%FSTAX23Y23*%
%MOIN*%
%SFA1B1*%

%IPPOS*%
%ADD16C,0.010000*%
%ADD80C,0.015000*%
%ADD81C,0.039370*%
%ADD84C,0.214960*%
%ADD85C,0.064960*%
%ADD86C,0.053150*%
%ADD87R,0.053150X0.053150*%
%ADD88C,0.067910*%
%ADD89R,0.067910X0.067910*%
%ADD90C,0.021650*%
%ADD91R,0.053150X0.053150*%
%ADD92R,0.067910X0.067910*%
%ADD93C,0.060240*%
%ADD94C,0.118110*%
%ADD95R,0.060240X0.060240*%
%ADD96C,0.216540*%
%ADD97C,0.023620*%
%ADD98C,0.059060*%
%ADD99C,0.030000*%
%LNrmx_explorer_board-1*%
%LPD*%
G36*
X07642Y03721D02*
X07661Y03716D01*
X07678Y03709*
X07695Y03699*
X0771Y03688*
X07723Y03674*
X07735Y03659*
X07744Y03643*
X07752Y03625*
X07757Y03607*
X07759Y03588*
Y03579*
Y03413*
Y03406*
X07758Y03391*
X07755Y03377*
X07751Y03364*
X07745Y03351*
X07739Y03338*
X07731Y03326*
X07722Y03315*
X07717Y0331*
X07516Y03109*
X07516Y03109*
X07515Y03109*
X0751Y03103*
X0751Y03103*
X07509Y03102*
X07499Y0309*
X07499Y03089*
X07498Y03089*
X07489Y03076*
X07489Y03075*
X07489Y03074*
X07481Y0306*
X07481Y0306*
X0748Y03059*
X07474Y03044*
X07474Y03044*
X07474Y03043*
X07469Y03028*
X07469Y03027*
X07469Y03026*
X07466Y03011*
Y0301*
X07466Y03009*
X07464Y02993*
X07464Y02993*
X07464Y02992*
X07464Y02984*
X07464Y02984*
X07464Y02984*
Y00952*
X07464Y00952*
X07464Y00952*
X07464Y00944*
X07464Y00943*
X07464Y00943*
X07466Y00927*
X07466Y00926*
Y00925*
X07469Y0091*
X07469Y00909*
X07469Y00908*
X07474Y00893*
X07474Y00892*
X07474Y00892*
X0748Y00877*
X07481Y00876*
X07481Y00876*
X07489Y00862*
X07489Y00861*
X07489Y0086*
X07498Y00847*
X07499Y00847*
X07499Y00846*
X07509Y00834*
X0751Y00833*
X0751Y00833*
X07515Y00827*
X07516Y00827*
X07516Y00827*
X07717Y00626*
X07722Y00621*
X07731Y0061*
X07739Y00598*
X07745Y00585*
X07751Y00572*
X07755Y00559*
X07758Y00545*
X07759Y0053*
Y00523*
Y00357*
Y00348*
X07757Y00329*
X07752Y00311*
X07744Y00293*
X07735Y00277*
X07723Y00262*
X0771Y00248*
X07695Y00237*
X07678Y00227*
X07661Y0022*
X07642Y00215*
X07624Y00212*
X01032*
X0103Y00213*
X01027Y00217*
X01025Y00221*
X01025Y00223*
X01025Y00226*
X01025Y00229*
X01025Y00232*
X01024Y00235*
X01023Y00238*
X01021Y00241*
X0102Y00243*
X01018Y00246*
X01016Y00248*
X01014Y0025*
X01011Y00252*
X01008Y00254*
X01006Y00255*
X01003Y00256*
X01Y00257*
X00997Y00257*
X00994Y00257*
X00991Y00257*
X00987Y00257*
X00984Y00256*
X00982Y00255*
X00979Y00254*
X00976Y00252*
X00974Y0025*
X00971Y00248*
X00969Y00246*
X00967Y00243*
X00966Y00241*
X00964Y00238*
X00963Y00235*
X00963Y00232*
X00962Y00229*
X00962Y00226*
X00962Y00223*
X00962Y00221*
X0096Y00217*
X00957Y00213*
X00955Y00212*
X00932*
X0093Y00213*
X00927Y00217*
X00925Y00221*
X00925Y00223*
X00925Y00226*
X00925Y00229*
X00925Y00232*
X00924Y00235*
X00923Y00238*
X00921Y00241*
X0092Y00243*
X00918Y00246*
X00916Y00248*
X00914Y0025*
X00911Y00252*
X00908Y00254*
X00906Y00255*
X00903Y00256*
X009Y00257*
X00897Y00257*
X00894Y00257*
X00891Y00257*
X00887Y00257*
X00884Y00256*
X00882Y00255*
X00879Y00254*
X00876Y00252*
X00874Y0025*
X00871Y00248*
X00869Y00246*
X00867Y00243*
X00866Y00241*
X00864Y00238*
X00863Y00235*
X00863Y00232*
X00862Y00229*
X00862Y00226*
X00862Y00223*
X00862Y00221*
X0086Y00217*
X00857Y00213*
X00855Y00212*
X00348*
X00329Y00215*
X00311Y0022*
X00293Y00227*
X00277Y00237*
X00262Y00248*
X00248Y00262*
X00237Y00277*
X00227Y00293*
X0022Y00311*
X00215Y00329*
X00212Y00348*
Y00357*
Y00928*
X00728*
X00728Y00928*
X00728*
X00728Y00928*
X00728Y00928*
X00729Y00928*
X00729Y00928*
X00729Y00928*
X0073Y00929*
X0073Y00929*
X00731Y00929*
X00731Y00929*
X00731Y00929*
X00731Y00929*
X00731Y00929*
X00731Y00929*
X00778Y00976*
X00778Y00977*
X00779Y00977*
X00779Y00977*
X00779Y00977*
X00779Y00977*
X00779Y00977*
X00779Y00978*
X0078Y00979*
X0078Y00979*
X0078Y00979*
X0078Y00979*
X0078Y00979*
X0078Y0098*
Y0098*
X0078Y0098*
Y01373*
X0078Y01374*
X00779Y01375*
X00779Y01376*
X00778Y01377*
X00777Y01377*
X00777Y01378*
X00776Y01378*
X00775Y01378*
X00685*
X00684Y01378*
X00683Y01378*
X00682Y01377*
X00681Y01377*
X00681Y01376*
X0068Y01375*
X0068Y01374*
X0068Y01373*
Y01156*
Y01156*
X0068Y01155*
X0068Y01155*
X0068Y01155*
X00679Y01154*
X00679Y01154*
X00597Y01072*
X00597Y01072*
X00596Y01071*
X00596Y01071*
X00596*
X00595Y01071*
X00595*
X00415*
X00415*
X00414Y01071*
X00414Y01071*
X00414Y01071*
X00413Y01072*
X00413Y01072*
X00413Y01072*
X00413Y01072*
X00413Y01072*
X00413Y01073*
X00413Y01073*
X00413Y01073*
X00413Y01073*
X00412Y01073*
X00412Y01073*
X00412Y01074*
X00412Y01074*
X00344Y01142*
X00344Y01142*
X00343Y01143*
X00343Y01143*
X00343Y01143*
X00343Y01144*
Y01144*
Y01406*
Y01406*
X00343Y01407*
X00343Y01407*
X00343Y01407*
X00344Y01408*
Y01408*
X00344Y01408*
X00554Y01618*
X00554Y01618*
X00554Y01618*
X00554Y01619*
X00554Y01619*
X00554Y01619*
X00554Y01619*
X00555Y01619*
X00555Y0162*
X00555Y01621*
X00555Y01621*
X00555Y01621*
X00555Y01621*
X00555Y01621*
Y01622*
X00555Y01622*
Y02219*
Y02219*
X00555Y02219*
X00564Y02224*
X00596Y02191*
X00597Y0219*
X00598Y0219*
X00599Y02189*
X006Y02189*
X00994*
X00995Y02189*
X00996Y0219*
X00996Y0219*
X00997Y02191*
X00998Y02192*
X00998Y02192*
X00999Y02193*
X00999Y02194*
Y02273*
X01004Y02278*
X01006Y02279*
X01112*
X01196Y02196*
Y02127*
X01196Y02125*
X01196Y02123*
X01197Y02121*
X01198Y02119*
X01199Y02118*
X01247Y0207*
X01246Y02068*
X01245Y02065*
X01244Y02062*
X01244Y02059*
X01244Y02056*
X01244Y02053*
X01244Y0205*
X01245Y02047*
X01246Y02044*
X01247Y02041*
X01249Y02038*
X0125Y02036*
X01252Y02033*
X01254Y02031*
X01256Y02029*
X01259Y02027*
X01261Y02025*
X01264Y02024*
X01267Y02023*
X0127Y02022*
X01273Y02021*
X01276Y02021*
X01279Y02021*
X01282Y02021*
X01285Y02021*
X01288Y02022*
X01291Y02023*
X01294Y02024*
X01297Y02025*
X01299Y02027*
X01302Y02029*
X01304Y02031*
X01306Y02033*
X01308Y02036*
X01309Y02038*
X01311Y02041*
X01312Y02044*
X01313Y02047*
X01314Y0205*
X01314Y02053*
X01314Y02056*
X01314Y02059*
X01314Y02062*
X01313Y02065*
X01312Y02068*
X01311Y02071*
X01309Y02073*
X01308Y02076*
X01306Y02078*
X01304Y02081*
X01302Y02083*
X01299Y02085*
X01297Y02086*
X01294Y02088*
X01291Y02089*
X01288Y0209*
X01285Y0209*
X01282Y02091*
X01279Y02091*
X01276Y02091*
X01273Y0209*
X0127Y0209*
X01267Y02089*
X01265Y02088*
X01221Y02132*
Y02201*
X01221Y02203*
X0122Y02205*
X01219Y02207*
X01218Y02209*
X01217Y0221*
X01126Y02301*
X01125Y02302*
X01123Y02303*
X01121Y02304*
X0112Y02304*
X01118Y02304*
X00955*
X00953Y02313*
X00955Y02315*
X00958Y02318*
X0096Y0232*
X00962Y02323*
X00964Y02326*
X00966Y02329*
X00967Y02332*
X00968Y02335*
X00969Y02338*
X00969Y02342*
X00969Y02345*
X00969Y02349*
X00969Y02352*
X00968Y02355*
X00967Y02359*
X00966Y02362*
X00964Y02365*
X00962Y02368*
X0096Y0237*
X00958Y02373*
X00958Y02373*
X00961Y02382*
X00963*
X00965Y02382*
X00967Y02382*
X00969Y02383*
X0097Y02384*
X00972Y02385*
X01043Y02457*
X01051Y02452*
X01051Y02451*
X01051Y02448*
X01051Y02445*
X01051Y02442*
X01051Y02439*
X01052Y02436*
X01053Y02433*
X01053Y02432*
X01053Y02432*
X01051Y02427*
X01048Y02424*
X01048Y02424*
X01045Y02423*
X01043Y02423*
X01041Y02422*
X01039Y0242*
X01038Y02419*
X01036Y02417*
X01035Y02415*
X01034Y02413*
X01033Y02411*
X01033Y02409*
X01033Y02407*
X01033Y02405*
X01033Y02403*
X01034Y02401*
X01035Y02399*
X01036Y02397*
X01038Y02395*
X01039Y02394*
X01041Y02392*
X01043Y02391*
X01045Y02391*
X01048Y0239*
X0105Y0239*
X01051Y0239*
X01053Y02388*
X01055Y02387*
X01056Y02386*
X01058Y02385*
X0106Y02385*
X01062Y02385*
X01073*
X01074Y02376*
X01073Y02375*
X0107Y02374*
X01067Y02373*
X01065Y02371*
X01062Y0237*
X0106Y02368*
X01058Y02365*
X01056Y02363*
X01054Y0236*
X01053Y02357*
X01052Y02354*
X01051Y02351*
X01051Y02348*
X01051Y02345*
X01051Y02342*
X01051Y02339*
X01052Y02336*
X01053Y02333*
X01054Y0233*
X01056Y02328*
X01058Y02325*
X0106Y02323*
X01062Y02321*
X01065Y02319*
X01067Y02317*
X0107Y02316*
X01073Y02315*
X01076Y02314*
X01079Y02314*
X01082Y02314*
X01085Y02314*
X01088Y02314*
X01091Y02315*
X01094Y02316*
X01097Y02317*
X011Y02319*
X01102Y02321*
X01105Y02323*
X01107Y02325*
X01108Y02328*
X0111Y0233*
X01111Y02333*
X01112Y02334*
X01116Y02336*
X01122Y02335*
X01123Y02334*
X01258Y02199*
X01259Y02198*
X01261Y02197*
X01262Y02196*
X01263Y02193*
X01264Y02191*
X01264Y02189*
X01263Y02187*
X01261Y02186*
X01259Y02185*
X01256Y02183*
X01254Y02181*
X01252Y02178*
X0125Y02176*
X01249Y02173*
X01247Y02171*
X01246Y02168*
X01245Y02165*
X01244Y02162*
X01244Y02159*
X01244Y02156*
X01244Y02153*
X01244Y0215*
X01245Y02147*
X01246Y02144*
X01247Y02141*
X01249Y02138*
X0125Y02136*
X01252Y02133*
X01254Y02131*
X01256Y02129*
X01259Y02127*
X01261Y02125*
X01264Y02124*
X01267Y02123*
X0127Y02122*
X01273Y02121*
X01276Y02121*
X01279Y02121*
X01282Y02121*
X01285Y02121*
X01288Y02122*
X01291Y02123*
X01294Y02124*
X01297Y02125*
X01299Y02127*
X01302Y02129*
X01304Y02131*
X01306Y02133*
X01308Y02136*
X01309Y02138*
X01311Y02141*
X01312Y02144*
X01313Y02147*
X01314Y0215*
X01314Y02153*
X01314Y02156*
X01314Y02159*
X01314Y02162*
X01313Y02165*
X01312Y02168*
X01311Y02171*
X01309Y02173*
X01308Y02176*
X01306Y02178*
X01304Y02181*
X01302Y02183*
X01299Y02185*
X01297Y02186*
X01296Y02187*
X01298Y02196*
X01298Y02196*
X0136*
X0136Y02196*
X01362Y02187*
X01361Y02186*
X01359Y02185*
X01356Y02183*
X01354Y02181*
X01352Y02178*
X0135Y02176*
X01349Y02173*
X01347Y02171*
X01346Y02168*
X01345Y02165*
X01344Y02162*
X01344Y02159*
X01344Y02156*
X01344Y02153*
X01344Y0215*
X01345Y02147*
X01346Y02144*
X01347Y02141*
X01349Y02138*
X0135Y02136*
X01352Y02133*
X01354Y02131*
X01356Y02129*
X01359Y02127*
X01361Y02125*
X01364Y02124*
X01367Y02123*
X0137Y02122*
X01373Y02121*
X01376Y02121*
X01379Y02121*
X01382Y02121*
X01385Y02121*
X01388Y02122*
X01391Y02123*
X01394Y02124*
X01397Y02125*
X01399Y02127*
X01402Y02129*
X01404Y02131*
X01406Y02133*
X01408Y02136*
X01409Y02138*
X01411Y02141*
X01412Y02144*
X01413Y02147*
X01414Y0215*
X01414Y02153*
X01414Y02156*
X01414Y02159*
X01414Y02162*
X01413Y02165*
X01412Y02168*
X01411Y02171*
X01409Y02173*
X01408Y02176*
X01406Y02178*
X01404Y02181*
X01402Y02183*
X01399Y02185*
X01397Y02186*
X01396Y02187*
X01398Y02196*
X01398Y02196*
X01401*
X01403Y02196*
X01405Y02196*
X01407Y02197*
X01408Y02198*
X0141Y02199*
X01491Y0228*
X01499Y02277*
Y01841*
X01434Y01776*
X01408*
X01408Y01776*
X01406Y01778*
X01404Y01781*
X01402Y01783*
X01399Y01785*
X01397Y01786*
X01394Y01788*
X01391Y01789*
X01388Y0179*
X01385Y0179*
X01382Y01791*
X01379Y01791*
X01376Y01791*
X01373Y0179*
X0137Y0179*
X01367Y01789*
X01364Y01788*
X01361Y01786*
X01359Y01785*
X01356Y01783*
X01354Y01781*
X01352Y01778*
X0135Y01776*
X01349Y01773*
X01347Y01771*
X01346Y01768*
X01345Y01765*
X01344Y01762*
X01344Y01759*
X01344Y01756*
X01344Y01753*
X01344Y0175*
X01345Y01747*
X01346Y01744*
X01347Y01741*
X01324Y01719*
X01303*
X013Y01725*
X013Y01728*
X01302Y01729*
X01304Y01731*
X01306Y01733*
X01308Y01736*
X01309Y01738*
X01311Y01741*
X01312Y01744*
X01313Y01747*
X01314Y0175*
X01314Y01753*
X01314Y01756*
X01314Y01759*
X01314Y01762*
X01313Y01765*
X01312Y01768*
X01311Y01771*
X01309Y01773*
X01308Y01776*
X01306Y01778*
X01304Y01781*
X01302Y01783*
X01299Y01785*
X01297Y01786*
X01294Y01788*
X01291Y01789*
X01288Y0179*
X01285Y0179*
X01282Y01791*
X01279Y01791*
X01276Y01791*
X01273Y0179*
X0127Y0179*
X01267Y01789*
X01264Y01788*
X01261Y01786*
X01259Y01785*
X01256Y01783*
X01254Y01781*
X01252Y01778*
X0125Y01776*
X01249Y01773*
X01247Y01771*
X01246Y01768*
X01245Y01765*
X01244Y01762*
X01244Y01759*
X01244Y01756*
X01244Y01753*
X01244Y0175*
X01245Y01747*
X01246Y01744*
X01247Y01741*
X01249Y01738*
X0125Y01736*
X01252Y01733*
X01254Y01731*
X01256Y01729*
X01258Y01728*
X01258Y01725*
X01255Y01719*
X01162*
X01152Y01729*
X0115Y0173*
X01149Y01731*
X01147Y01732*
X01145Y01732*
X01143Y01733*
X01113*
X01111Y01734*
X01108Y01742*
X01108Y01742*
X0111Y01744*
X01111Y01747*
X01112Y0175*
X01113Y01753*
X01114Y01756*
X01114Y01759*
X01114Y01762*
X01113Y01765*
X01112Y01768*
X01111Y01771*
X0111Y01774*
X01108Y01777*
X01107Y01779*
X01105Y01781*
X01102Y01784*
X011Y01785*
X01097Y01787*
X01094Y01788*
X01091Y01789*
X01094Y01798*
X01134*
X01136Y01798*
X01138Y01799*
X01139Y01799*
X01141Y018*
X01143Y01802*
X01265Y01924*
X01267Y01923*
X0127Y01922*
X01273Y01921*
X01276Y01921*
X01279Y01921*
X01282Y01921*
X01285Y01921*
X01288Y01922*
X01291Y01923*
X01294Y01924*
X01297Y01925*
X01299Y01927*
X01302Y01929*
X01304Y01931*
X01306Y01933*
X01308Y01936*
X01309Y01938*
X01311Y01941*
X01312Y01944*
X01313Y01947*
X01314Y0195*
X01314Y01953*
X01314Y01956*
X01314Y01959*
X01314Y01962*
X01313Y01965*
X01312Y01968*
X01311Y01971*
X01309Y01973*
X01308Y01976*
X01306Y01978*
X01304Y01981*
X01302Y01983*
X01299Y01985*
X01297Y01986*
X01294Y01988*
X01291Y01989*
X01288Y0199*
X01285Y0199*
X01282Y01991*
X01279Y01991*
X01276Y01991*
X01273Y0199*
X0127Y0199*
X01267Y01989*
X01264Y01988*
X01261Y01986*
X01259Y01985*
X01256Y01983*
X01254Y01981*
X01252Y01978*
X0125Y01976*
X01249Y01973*
X01247Y01971*
X01246Y01968*
X01245Y01965*
X01244Y01962*
X01244Y01959*
X01244Y01956*
X01244Y01953*
X01244Y0195*
X01245Y01947*
X01246Y01944*
X01247Y01941*
X01129Y01823*
X01105*
X01104Y01825*
X01103Y01826*
X01102Y01835*
X01105Y01837*
X01107Y01839*
X01108Y01842*
X0111Y01844*
X01111Y01847*
X01112Y0185*
X01113Y01853*
X01114Y01856*
X01114Y01859*
X01114Y01862*
X01113Y01865*
X01112Y01868*
X01111Y01871*
X0111Y01874*
X01108Y01877*
X01107Y01879*
X01105Y01881*
X01102Y01884*
X011Y01885*
X01097Y01887*
X01094Y01888*
X01091Y01889*
X01088Y0189*
X01085Y01891*
X01082Y01891*
X01079Y01891*
X01076Y0189*
X01073Y01889*
X0107Y01888*
X01067Y01887*
X01065Y01885*
X01062Y01884*
X0106Y01881*
X01058Y01879*
X01056Y01877*
X01054Y01874*
X01053Y01872*
X00967*
X00967Y01872*
X00966Y01876*
X00964Y01879*
X00962Y01881*
X0096Y01884*
X00958Y01887*
X00955Y01889*
X00953Y01891*
X0095Y01893*
X00947Y01894*
X00944Y01896*
X0094Y01897*
X00937Y01898*
X00934Y01898*
X0093Y01898*
X00927Y01898*
X00923Y01898*
X0092Y01897*
X00917Y01896*
X00914Y01894*
X00911Y01893*
X00908Y01891*
X00905Y01889*
X00903Y01887*
X009Y01884*
X00898Y01881*
X00896Y01879*
X00895Y01876*
X00894Y01872*
X00893Y01869*
X00892Y01866*
X00891Y01863*
X00891Y01859*
X00891Y01856*
X00892Y01852*
X00893Y01849*
X00894Y01846*
X00895Y01843*
X00896Y0184*
X00898Y01837*
X009Y01834*
X00902Y01832*
X00902Y0183*
X00899Y01823*
X00882*
X0088Y01823*
X00878Y01822*
X00876Y01822*
X00874Y01821*
X00873Y01819*
X00847Y01794*
X00847Y01794*
X00844Y01796*
X0084Y01797*
X00837Y01798*
X00834Y01798*
X0083Y01798*
X00827Y01798*
X00823Y01798*
X0082Y01797*
X00817Y01796*
X00814Y01794*
X00811Y01793*
X00808Y01791*
X00805Y01789*
X00803Y01787*
X008Y01784*
X00798Y01781*
X00796Y01779*
X00795Y01776*
X00794Y01772*
X00793Y01769*
X00792Y01766*
X00791Y01763*
X00791Y01759*
X00791Y01756*
X00792Y01752*
X00793Y01749*
X00794Y01746*
X00795Y01743*
X00796Y0174*
X00798Y01737*
X008Y01734*
X00803Y01732*
X00805Y01729*
X00808Y01727*
X00811Y01725*
X00814Y01724*
X00817Y01722*
X0082Y01721*
X00823Y01721*
X00827Y0172*
X0083Y0172*
X00834Y0172*
X00837Y01721*
X0084Y01721*
X00844Y01722*
X00847Y01724*
X0085Y01725*
X00853Y01727*
X00855Y01729*
X00858Y01732*
X0086Y01734*
X00862Y01737*
X00864Y0174*
X00866Y01743*
X00867Y01746*
X00868Y01749*
X00869Y01752*
X00869Y01756*
X00869Y01759*
X00869Y01763*
X00869Y01766*
X00868Y01769*
X00867Y01772*
X00866Y01776*
X00865Y01776*
X00887Y01798*
X00902*
X00905Y01789*
X00905Y01789*
X00903Y01787*
X009Y01784*
X00898Y01781*
X00896Y01779*
X00895Y01776*
X00894Y01772*
X00893Y01769*
X00892Y01766*
X00891Y01763*
X00891Y01759*
X00891Y01756*
X00892Y01752*
X00893Y01749*
X00894Y01746*
X00895Y01743*
X00896Y0174*
X00898Y01737*
X009Y01734*
X00903Y01732*
X00905Y01729*
X00908Y01727*
X00911Y01725*
X00914Y01724*
X00917Y01722*
X0092Y01721*
X00923Y01721*
X00927Y0172*
X0093Y0172*
X00934Y0172*
X00937Y01721*
X0094Y01721*
X00944Y01722*
X00947Y01724*
X0095Y01725*
X00953Y01727*
X00955Y01729*
X00958Y01732*
X0096Y01734*
X00962Y01737*
X00964Y0174*
X00966Y01743*
X00967Y01746*
X00968Y01749*
X00969Y01752*
X00969Y01756*
X00969Y01759*
X00969Y01763*
X00969Y01766*
X00968Y01769*
X00967Y01772*
X00966Y01776*
X00964Y01779*
X00962Y01781*
X0096Y01784*
X00958Y01787*
X00955Y01789*
X00955Y01789*
X00958Y01798*
X01071*
X01073Y01789*
X0107Y01788*
X01067Y01787*
X01065Y01785*
X01062Y01784*
X0106Y01781*
X01058Y01779*
X01056Y01777*
X01054Y01774*
X01053Y01771*
X01052Y01768*
X01051Y01765*
X01051Y01762*
X01051Y01759*
X01051Y01756*
X01051Y01753*
X01052Y0175*
X01053Y01747*
X01054Y01744*
X01056Y01742*
X01056Y01742*
X01053Y01734*
X01052Y01733*
X01036*
X01023Y01745*
X01023Y01746*
X01022Y01748*
X01021Y0175*
X0102Y01752*
X01018Y01754*
X01017Y01755*
X01015Y01756*
X01013Y01757*
X01011Y01758*
X01009Y01758*
X01006Y01758*
X01004Y01758*
X01002Y01758*
X01Y01757*
X00998Y01756*
X00996Y01755*
X00994Y01754*
X00993Y01752*
X00992Y0175*
X00991Y01748*
X0099Y01746*
X0099Y01744*
X0099Y01742*
X0099Y01739*
X0099Y01737*
X00991Y01735*
X00992Y01733*
X00993Y01731*
X00994Y0173*
X00996Y01728*
X00998Y01727*
X01Y01726*
X01002Y01725*
X01004Y01725*
X01006Y01725*
X01006*
X01011Y01719*
X01008Y01711*
X00796*
X00765Y01742*
X00766Y01743*
X00767Y01746*
X00768Y01749*
X00769Y01752*
X00769Y01756*
X00769Y01759*
X00769Y01763*
X00769Y01766*
X00768Y01769*
X00767Y01772*
X00766Y01776*
X00764Y01779*
X00762Y01781*
X0076Y01784*
X00758Y01787*
X00755Y01789*
X00753Y01791*
X0075Y01793*
X00747Y01794*
X00744Y01796*
X0074Y01797*
X00737Y01798*
X00734Y01798*
X0073Y01798*
X00727Y01798*
X00723Y01798*
X0072Y01797*
X00717Y01796*
X00714Y01794*
X00711Y01793*
X00708Y01791*
X00705Y01789*
X00703Y01787*
X007Y01784*
X00698Y01781*
X00696Y01779*
X00695Y01776*
X00694Y01772*
X00693Y01769*
X00692Y01766*
X00691Y01763*
X00691Y01759*
X00691Y01756*
X00692Y01752*
X00693Y01749*
X00694Y01746*
X00695Y01743*
X00696Y0174*
X00698Y01737*
X007Y01734*
X00703Y01732*
X00705Y01729*
X00708Y01727*
X00711Y01725*
X00714Y01724*
X00717Y01722*
X0072Y01721*
X00723Y01721*
X00727Y0172*
X0073Y0172*
X00734Y0172*
X00737Y01721*
X0074Y01721*
X00744Y01722*
X00747Y01724*
X00747Y01724*
X00781Y01691*
X0078Y01685*
X00777Y01682*
X00725*
X00669Y01738*
Y01798*
X00591*
Y0172*
X00651*
X00711Y0166*
X00713Y01659*
X00714Y01658*
X00716Y01657*
X00718Y01657*
X0072Y01657*
X00996*
X01206Y01447*
X01207Y01446*
X01209Y01445*
X01211Y01444*
X01213Y01443*
X01215Y01443*
X01246*
X01247Y01441*
X01249Y01438*
X0125Y01436*
X01252Y01433*
X01254Y01431*
X01256Y01429*
X01259Y01427*
X01261Y01425*
X01264Y01424*
X01267Y01423*
X0127Y01422*
X01273Y01421*
X01276Y01421*
X01279Y01421*
X01282Y01421*
X01285Y01421*
X01288Y01422*
X01291Y01423*
X01294Y01424*
X01297Y01425*
X01299Y01427*
X01302Y01429*
X01304Y01431*
X01306Y01433*
X01308Y01436*
X01309Y01438*
X01311Y01441*
X01312Y01444*
X01313Y01447*
X01314Y0145*
X01314Y01453*
X01314Y01456*
X01314Y01459*
X01314Y01462*
X01313Y01465*
X01312Y01468*
X01311Y01471*
X01309Y01473*
X01308Y01476*
X01306Y01478*
X01304Y01481*
X01302Y01483*
X01299Y01485*
X01297Y01486*
X01294Y01488*
X01291Y01489*
X01288Y0149*
X01285Y0149*
X01282Y01491*
X01279Y01491*
X01276Y01491*
X01273Y0149*
X0127Y0149*
X01267Y01489*
X01264Y01488*
X01261Y01486*
X01259Y01485*
X01256Y01483*
X01254Y01481*
X01252Y01478*
X0125Y01476*
X01249Y01473*
X01247Y01471*
X01246Y01468*
X0122*
X01011Y01677*
X01013Y01682*
X01015Y01686*
X01131*
X01169Y01648*
X01247Y0157*
X01246Y01568*
X01245Y01565*
X01244Y01562*
X01244Y01559*
X01244Y01556*
X01244Y01553*
X01244Y0155*
X01245Y01547*
X01246Y01544*
X01247Y01541*
X01249Y01538*
X0125Y01536*
X01252Y01533*
X01254Y01531*
X01256Y01529*
X01259Y01527*
X01261Y01525*
X01264Y01524*
X01267Y01523*
X0127Y01522*
X01273Y01521*
X01276Y01521*
X01279Y01521*
X01282Y01521*
X01285Y01521*
X01288Y01522*
X01291Y01523*
X01294Y01524*
X01297Y01525*
X01299Y01527*
X01302Y01529*
X01304Y01531*
X01306Y01533*
X01308Y01536*
X01309Y01538*
X01311Y01541*
X01312Y01544*
X01313Y01547*
X01314Y0155*
X01314Y01553*
X01314Y01556*
X01314Y01559*
X01314Y01562*
X01313Y01565*
X01312Y01568*
X01311Y01571*
X01309Y01573*
X01308Y01576*
X01306Y01578*
X01304Y01581*
X01302Y01583*
X01299Y01585*
X01297Y01586*
X01294Y01588*
X01291Y01589*
X01288Y0159*
X01285Y0159*
X01282Y01591*
X01279Y01591*
X01276Y01591*
X01273Y0159*
X0127Y0159*
X01267Y01589*
X01265Y01588*
X01187Y01666*
Y01666*
X01167Y01685*
X01171Y01694*
X01256*
X01259Y01685*
X01259Y01685*
X01256Y01683*
X01254Y01681*
X01252Y01678*
X0125Y01676*
X01249Y01673*
X01247Y01671*
X01246Y01668*
X01245Y01665*
X01244Y01662*
X01244Y01659*
X01244Y01656*
X01244Y01653*
X01244Y0165*
X01245Y01647*
X01246Y01644*
X01247Y01641*
X01249Y01638*
X0125Y01636*
X01252Y01633*
X01254Y01631*
X01256Y01629*
X01259Y01627*
X01261Y01625*
X01264Y01624*
X01267Y01623*
X0127Y01622*
X01273Y01621*
X01276Y01621*
X01279Y01621*
X01282Y01621*
X01285Y01621*
X01288Y01622*
X01291Y01623*
X01294Y01624*
X01297Y01625*
X01299Y01627*
X01302Y01629*
X01304Y01631*
X01306Y01633*
X01308Y01636*
X01309Y01638*
X01311Y01641*
X01312Y01644*
X01313Y01647*
X01314Y0165*
X01314Y01653*
X01314Y01656*
X01314Y01659*
X01314Y01662*
X01313Y01665*
X01312Y01668*
X01311Y01671*
X01309Y01673*
X01308Y01676*
X01306Y01678*
X01304Y01681*
X01302Y01683*
X01299Y01685*
X01299Y01685*
X01302Y01694*
X01329*
X01331Y01694*
X01333Y01694*
X01335Y01695*
X01337Y01696*
X01338Y01697*
X01365Y01724*
X01367Y01723*
X0137Y01722*
X01373Y01721*
X01376Y01721*
X01379Y01721*
X01382Y01721*
X01385Y01721*
X01388Y01722*
X01391Y01723*
X01394Y01724*
X01397Y01725*
X01399Y01727*
X01402Y01729*
X01404Y01731*
X01406Y01733*
X01408Y01736*
X01408Y01736*
X01442*
X01444Y01736*
X01446Y01736*
X01448Y01737*
X01451Y01738*
X01452Y01739*
X01454Y0174*
X01456Y01742*
X01533Y01819*
X01535Y01821*
X01536Y01823*
X01537Y01824*
X01538Y01827*
X01539Y01829*
X01539Y01831*
X01539Y01833*
Y02326*
Y03038*
X01998Y03497*
X03958*
X0396Y03497*
X03963Y03498*
X03965Y03498*
X03967Y03499*
X03969Y035*
X03971Y03502*
X03972Y03503*
X0404Y0357*
X04043Y0357*
X04046Y03571*
X04049Y03572*
X04052Y03573*
X04055Y03574*
X04058Y03575*
X04061Y03577*
X04063Y03579*
X04066Y03581*
X04068Y03584*
X0407Y03586*
X04072Y03589*
X04073Y03592*
X04075Y03595*
X04076Y03598*
X04076Y03601*
X04077Y03605*
X04077Y03608*
X04077Y03611*
X04076Y03614*
X04076Y03617*
X04075Y03621*
X04073Y03624*
X04072Y03627*
X0407Y03629*
X04068Y03632*
X04066Y03634*
X04063Y03637*
X04061Y03639*
X04058Y0364*
X04055Y03642*
X04052Y03643*
X04049Y03644*
X04046Y03645*
X04043Y03645*
X04039Y03645*
X04036Y03645*
X04033Y03645*
X0403Y03644*
X04026Y03643*
X04023Y03642*
X04021Y0364*
X04018Y03639*
X04015Y03637*
X04013Y03634*
X04011Y03632*
X04009Y03629*
X04007Y03627*
X04005Y03624*
X04004Y03621*
X04003Y03617*
X04002Y03614*
X04002Y03611*
X04002Y03608*
X04002Y03605*
X04002Y03601*
X04003Y03598*
X04004Y03595*
X04005Y03592*
X0395Y03537*
X0199*
X01987Y03537*
X01847Y03678*
X01845Y03679*
X01844Y0368*
X01842Y03681*
X0184Y03681*
X01838Y03681*
X01808*
X01807Y03683*
X01804Y0369*
X01805Y03693*
X01807Y03696*
X01808Y03699*
X01809Y03702*
X01809Y03705*
X01809Y03708*
X01809Y03711*
X01809Y03714*
X01808Y03715*
X01812Y03721*
X01814Y03723*
X01815Y03724*
X03802*
X03803Y03723*
X03805Y03721*
X03809Y03715*
X03808Y03714*
X03808Y03711*
X03808Y03708*
X03808Y03705*
X03808Y03702*
X03809Y03699*
X0381Y03696*
X03811Y03693*
X03813Y0369*
X03815Y03688*
X03817Y03685*
X03819Y03683*
X03822Y03682*
X03824Y0368*
X03827Y03679*
X0383Y03678*
X03833Y03677*
X03836Y03676*
X03839Y03676*
X03842Y03676*
X03845Y03677*
X03848Y03678*
X03851Y03679*
X03854Y0368*
X03857Y03682*
X03859Y03683*
X03862Y03685*
X03864Y03688*
X03865Y0369*
X03867Y03693*
X03868Y03696*
X03869Y03699*
X0387Y03702*
X03871Y03705*
X03871Y03708*
X03871Y03711*
X0387Y03714*
X0387Y03715*
X03873Y03721*
X03876Y03723*
X03876Y03724*
X03902*
X03903Y03723*
X03905Y03721*
X03909Y03715*
X03908Y03714*
X03908Y03711*
X03908Y03708*
X03908Y03705*
X03908Y03702*
X03909Y03699*
X0391Y03696*
X03911Y03693*
X03913Y0369*
X03915Y03688*
X03917Y03685*
X03919Y03683*
X03922Y03682*
X03924Y0368*
X03927Y03679*
X0393Y03678*
X03933Y03677*
X03936Y03676*
X03939Y03676*
X03942Y03676*
X03945Y03677*
X03948Y03678*
X03951Y03679*
X03954Y0368*
X03957Y03682*
X03959Y03683*
X03962Y03685*
X03964Y03688*
X03965Y0369*
X03967Y03693*
X03968Y03696*
X03969Y03699*
X0397Y03702*
X03971Y03705*
X03971Y03708*
X03971Y03711*
X0397Y03714*
X0397Y03715*
X03973Y03721*
X03976Y03723*
X03976Y03724*
X04002*
X04003Y03723*
X04005Y03721*
X04009Y03715*
X04008Y03714*
X04008Y03711*
X04008Y03708*
X04008Y03705*
X04008Y03702*
X04009Y03699*
X0401Y03696*
X04011Y03693*
X04013Y0369*
X04015Y03688*
X04017Y03685*
X04019Y03683*
X04022Y03682*
X04024Y0368*
X04027Y03679*
X0403Y03678*
X04033Y03677*
X04036Y03676*
X04039Y03676*
X04042Y03676*
X04045Y03677*
X04048Y03678*
X04051Y03679*
X04054Y0368*
X04057Y03682*
X04059Y03683*
X04062Y03685*
X04064Y03688*
X04065Y0369*
X04067Y03693*
X04068Y03696*
X04069Y03699*
X0407Y03702*
X04071Y03705*
X04071Y03708*
X04071Y03711*
X0407Y03714*
X0407Y03715*
X04073Y03721*
X04076Y03723*
X04076Y03724*
X04228*
X04229Y03723*
X04232Y03721*
X04235Y03715*
X04235Y03714*
X04234Y03711*
X04234Y03708*
X04234Y03705*
X04235Y03702*
X04235Y03699*
X04237Y03696*
X04238Y03693*
X04239Y0369*
X04241Y03688*
X04243Y03685*
X04246Y03683*
X04248Y03682*
X04251Y0368*
X04254Y03679*
X04256Y03678*
X04259Y03677*
X04263Y03676*
X04266Y03676*
X04269Y03676*
X04272Y03677*
X04275Y03678*
X04278Y03679*
X04281Y0368*
X04283Y03682*
X04286Y03683*
X04288Y03685*
X0429Y03688*
X04292Y0369*
X04293Y03693*
X04295Y03696*
X04296Y03699*
X04297Y03702*
X04297Y03705*
X04297Y03708*
X04297Y03711*
X04297Y03714*
X04296Y03715*
X043Y03721*
X04302Y03723*
X04303Y03724*
X04328*
X04329Y03723*
X04332Y03721*
X04335Y03715*
X04335Y03714*
X04334Y03711*
X04334Y03708*
X04334Y03705*
X04335Y03702*
X04335Y03699*
X04337Y03696*
X04338Y03693*
X04339Y0369*
X04341Y03688*
X04343Y03685*
X04346Y03683*
X04348Y03682*
X04351Y0368*
X04354Y03679*
X04356Y03678*
X04359Y03677*
X04363Y03676*
X04366Y03676*
X04369Y03676*
X04372Y03677*
X04375Y03678*
X04378Y03679*
X04381Y0368*
X04383Y03682*
X04386Y03683*
X04388Y03685*
X0439Y03688*
X04392Y0369*
X04393Y03693*
X04395Y03696*
X04396Y03699*
X04397Y03702*
X04397Y03705*
X04397Y03708*
X04397Y03711*
X04397Y03714*
X04396Y03715*
X044Y03721*
X04402Y03723*
X04403Y03724*
X04448*
X04448Y03723*
X04451Y03721*
X04454Y03715*
X04454Y03714*
X04453Y03711*
X04453Y03708*
X04453Y03705*
X04454Y03702*
X04455Y03699*
X04456Y03696*
X04457Y03693*
X04459Y0369*
X0446Y03688*
X04462Y03685*
X04465Y03683*
X04467Y03682*
X0447Y0368*
X04473Y03679*
X04476Y03678*
X04479Y03677*
X04482Y03676*
X04485Y03676*
X04488Y03676*
X04491Y03677*
X04494Y03678*
X04497Y03679*
X045Y0368*
X04502Y03682*
X04505Y03683*
X04507Y03685*
X04509Y03688*
X04511Y0369*
X04513Y03693*
X04514Y03696*
X04515Y03699*
X04516Y03702*
X04516Y03705*
X04516Y03708*
X04516Y03711*
X04516Y03714*
X04515Y03715*
X04519Y03721*
X04521Y03723*
X04522Y03724*
X04548*
X04548Y03723*
X04551Y03721*
X04554Y03715*
X04554Y03714*
X04553Y03711*
X04553Y03708*
X04553Y03705*
X04554Y03702*
X04555Y03699*
X04556Y03696*
X04557Y03693*
X04559Y0369*
X0456Y03688*
X04562Y03685*
X04565Y03683*
X04567Y03682*
X0457Y0368*
X04573Y03679*
X04576Y03678*
X04579Y03677*
X04582Y03676*
X04585Y03676*
X04588Y03676*
X04591Y03677*
X04594Y03678*
X04597Y03679*
X046Y0368*
X04602Y03682*
X04605Y03683*
X04607Y03685*
X04609Y03688*
X04611Y0369*
X04613Y03693*
X04614Y03696*
X04615Y03699*
X04616Y03702*
X04616Y03705*
X04616Y03708*
X04616Y03711*
X04616Y03714*
X04615Y03715*
X04619Y03721*
X04621Y03723*
X04622Y03724*
X07624*
X07642Y03721*
G37*
G36*
X01522Y03723D02*
X01525Y03721D01*
X01528Y03715*
X01528Y03714*
X01528Y03711*
X01527Y03708*
X01528Y03705*
X01528Y03702*
X01529Y03699*
X0153Y03696*
X01531Y03693*
X01533Y0369*
X0153Y03683*
X01528Y03681*
X0152*
X01518Y03681*
X01516Y03681*
X01514Y0368*
X01512Y03679*
X01511Y03678*
X01475Y03642*
X01475Y03642*
X01472Y03643*
X01469Y03644*
X01465Y03645*
X01462Y03645*
X01459Y03645*
X01456Y03645*
X01452Y03645*
X01449Y03644*
X01446Y03643*
X01443Y03642*
X0144Y0364*
X01437Y03639*
X01435Y03637*
X01432Y03634*
X0143Y03632*
X01428Y03629*
X01426Y03627*
X01425Y03624*
X01424Y03621*
X01423Y03617*
X01422Y03614*
X01422Y03611*
X01421Y03608*
X01422Y03605*
X01422Y03601*
X01423Y03598*
X01424Y03595*
X01425Y03592*
X01426Y03589*
X01428Y03586*
X0143Y03584*
X01432Y03581*
X01435Y03579*
X01437Y03577*
X0144Y03575*
X01443Y03574*
X01446Y03573*
Y03546*
X01199Y033*
X01198Y03298*
X01197Y03297*
X01196Y03295*
X01196Y03293*
X01196Y03291*
Y03135*
X01177Y03116*
X01139*
X0113Y03124*
X01131Y03125*
X0113Y03128*
X0113Y0313*
X01129Y03132*
X01128Y03134*
X01127Y03136*
X01126Y03137*
X01124Y03139*
X01122Y0314*
X0112Y03141*
X01118Y03142*
X01116Y03142*
X01114Y03142*
X01111Y03142*
X01109Y03142*
X01107Y03141*
X01105Y0314*
X01103Y03139*
X01102Y03137*
X011Y03136*
X01099Y03134*
X01098Y03132*
X01097Y0313*
X01097Y03128*
X01097Y03125*
X01097Y03123*
X01097Y03121*
X01098Y03119*
X01099Y03117*
X011Y03115*
X01102Y03114*
X01103Y03112*
X01105Y03111*
X01107Y0311*
X01109Y03109*
X0111Y03109*
X01124Y03095*
X01126Y03093*
X01128Y03092*
X01129Y03092*
X01131Y03091*
X01133Y03091*
X01182*
X01184Y03091*
X01186Y03092*
X01188Y03092*
X0119Y03093*
X01191Y03095*
X01217Y03121*
X01218Y03122*
X01219Y03124*
X0122Y03126*
X01221Y03127*
X01221Y03129*
Y03286*
X01467Y03532*
X01469Y03534*
X0147Y03536*
X0147Y03537*
X01471Y03539*
X01471Y03541*
Y03572*
X01472Y03573*
X01475Y03574*
X01478Y03575*
X0148Y03577*
X01483Y03579*
X01485Y03581*
X01488Y03584*
X0149Y03586*
X01491Y03589*
X01493Y03592*
X01494Y03595*
X01495Y03598*
X01496Y03601*
X01496Y03605*
X01496Y03608*
X01496Y03611*
X01496Y03614*
X01495Y03617*
X01494Y03621*
X01493Y03624*
X01493Y03624*
X01525Y03656*
X01833*
X01967Y03523*
X01505Y03061*
X01504Y03059*
X01502Y03057*
X01501Y03055*
X015Y03053*
X015Y03051*
X01499Y03049*
X01499Y03047*
Y02326*
Y02324*
X01422Y02247*
X01417Y02249*
X01414Y02251*
X01414Y02253*
X01414Y02256*
X01414Y02259*
X01414Y02262*
X01413Y02265*
X01412Y02268*
X01411Y02271*
X0141Y02273*
X01475Y02338*
X01476Y02339*
X01477Y02341*
X01478Y02342*
X01478Y02344*
X01478Y02345*
Y03078*
X01566Y03166*
X01567Y03167*
X01567Y03168*
X01568Y0317*
X01568Y03171*
X01569Y03173*
Y03572*
X01569Y03572*
X01572Y03573*
X01575Y03574*
X01578Y03575*
X0158Y03577*
X01583Y03579*
X01585Y03581*
X01588Y03584*
X0159Y03586*
X01591Y03589*
X01593Y03592*
X01594Y03595*
X01595Y03598*
X01596Y03601*
X01596Y03605*
X01596Y03608*
X01596Y03611*
X01596Y03614*
X01595Y03617*
X01594Y03621*
X01593Y03624*
X01591Y03627*
X0159Y03629*
X01588Y03632*
X01585Y03634*
X01583Y03637*
X0158Y03639*
X01578Y0364*
X01575Y03642*
X01572Y03643*
X01569Y03644*
X01565Y03645*
X01562Y03645*
X01559Y03645*
X01556Y03645*
X01552Y03645*
X01549Y03644*
X01546Y03643*
X01543Y03642*
X0154Y0364*
X01537Y03639*
X01535Y03637*
X01532Y03634*
X0153Y03632*
X01528Y03629*
X01526Y03627*
X01525Y03624*
X01524Y03621*
X01523Y03617*
X01522Y03614*
X01522Y03611*
X01521Y03608*
X01522Y03605*
X01522Y03601*
X01523Y03598*
X01524Y03595*
X01525Y03592*
X01526Y03589*
X01528Y03586*
X0153Y03584*
X01532Y03581*
X01535Y03579*
X01537Y03577*
X0154Y03575*
X01543Y03574*
X01546Y03573*
X01549Y03572*
Y03177*
X01461Y0309*
X0146Y03088*
X01459Y03087*
X01459Y03086*
X01458Y03084*
X01458Y03083*
Y02349*
X01396Y02287*
X01394Y02288*
X01391Y02289*
X01388Y0229*
X01385Y0229*
X01382Y02291*
X01379Y02291*
X01376Y02291*
X01373Y0229*
X0137Y0229*
X01367Y02289*
X01364Y02288*
X01361Y02286*
X01359Y02285*
X01356Y02283*
X01354Y02281*
X01352Y02278*
X0135Y02276*
X01349Y02273*
X01347Y02271*
X01346Y02268*
X01345Y02265*
X01344Y02262*
X01344Y02259*
X01344Y02256*
X01344Y02253*
X01344Y0225*
X01345Y02247*
X01346Y02244*
X01347Y02241*
X01349Y02238*
X0135Y02236*
X01352Y02233*
X01354Y02231*
X01356Y0223*
X01355Y02227*
X01352Y02221*
X01306*
X01303Y02227*
X01302Y0223*
X01304Y02231*
X01306Y02233*
X01308Y02236*
X01309Y02238*
X01311Y02241*
X01312Y02244*
X01313Y02247*
X01314Y0225*
X01314Y02253*
X01314Y02256*
X01314Y02259*
X01314Y02262*
X01313Y02265*
X01312Y02268*
X01311Y02271*
X01309Y02273*
X01308Y02276*
X01306Y02278*
X01304Y02281*
X01302Y02283*
X01299Y02285*
X01297Y02286*
X01294Y02288*
X01291Y02289*
X01288Y0229*
X01285Y0229*
X01282Y02291*
X01279Y02291*
X01276Y02291*
X01273Y0229*
X0127Y0229*
X01267Y02289*
X01264Y02288*
X01261Y02286*
X01259Y02285*
X01256Y02283*
X01254Y02281*
X01252Y02278*
X0125Y02276*
X01249Y02273*
X01247Y02271*
X01246Y02268*
X01245Y02265*
X01244Y02262*
X01244Y02261*
X0124Y02258*
X01235Y02257*
X01144Y02348*
Y02378*
X01144Y0238*
X01143Y02382*
X01143Y02384*
X01142Y02386*
X0114Y02387*
X01122Y02406*
X0112Y02407*
X01118Y02408*
X01117Y02409*
X01115Y0241*
X01113Y0241*
X01102*
X01099Y02419*
X011Y02419*
X01102Y02421*
X01105Y02423*
X01107Y02425*
X01108Y02428*
X0111Y0243*
X01111Y02433*
X01112Y02436*
X01113Y02439*
X01114Y02442*
X01114Y02445*
X01114Y02448*
X01113Y02451*
X01112Y02454*
X01111Y02457*
X0111Y0246*
X01108Y02463*
X01107Y02465*
Y02465*
X01109Y02473*
X01111Y02474*
X01231*
X01244Y02461*
X01244Y02459*
X01244Y02456*
X01244Y02453*
X01244Y0245*
X01245Y02447*
X01246Y02444*
X01247Y02441*
X01249Y02438*
X0125Y02436*
X01252Y02433*
X01254Y02431*
X01256Y02429*
X01259Y02427*
X01261Y02425*
X01264Y02424*
X01267Y02423*
X0127Y02422*
X01273Y02421*
X01276Y02421*
X01279Y02421*
X01282Y02421*
X01285Y02421*
X01288Y02422*
X01291Y02423*
X01294Y02424*
X01297Y02425*
X01299Y02427*
X01302Y02429*
X01304Y02431*
X01306Y02433*
X01315Y02432*
X01316Y02432*
X01318Y02431*
Y02405*
X01318Y02403*
X01318Y02401*
X01319Y02399*
X0132Y02397*
X01321Y02396*
X01347Y0237*
X01346Y02368*
X01345Y02365*
X01344Y02362*
X01344Y02359*
X01344Y02356*
X01344Y02353*
X01344Y0235*
X01345Y02347*
X01346Y02344*
X01347Y02341*
X01349Y02338*
X0135Y02336*
X01352Y02333*
X01354Y02331*
X01356Y02329*
X01359Y02327*
X01361Y02325*
X01364Y02324*
X01367Y02323*
X0137Y02322*
X01373Y02321*
X01376Y02321*
X01379Y02321*
X01382Y02321*
X01385Y02321*
X01388Y02322*
X01391Y02323*
X01394Y02324*
X01397Y02325*
X01399Y02327*
X01402Y02329*
X01404Y02331*
X01406Y02333*
X01408Y02336*
X01409Y02338*
X01411Y02341*
X01412Y02344*
X01413Y02347*
X01414Y0235*
X01414Y02353*
X01414Y02356*
X01414Y02359*
X01414Y02362*
X01413Y02365*
X01412Y02368*
X01411Y02371*
X01409Y02373*
X01408Y02376*
X01406Y02378*
X01404Y02381*
X01402Y02383*
X01399Y02385*
X01397Y02386*
X01394Y02388*
X01391Y02389*
X01388Y0239*
X01385Y0239*
X01382Y02391*
X01379Y02391*
X01376Y02391*
X01373Y0239*
X0137Y0239*
X01367Y02389*
X01365Y02388*
X01343Y0241*
Y02431*
X01345Y02432*
X01352Y02434*
X01352Y02433*
X01354Y02431*
X01356Y02429*
X01359Y02427*
X01361Y02425*
X01364Y02424*
X01367Y02423*
X0137Y02422*
X01373Y02421*
X01376Y02421*
X01379Y02421*
X01382Y02421*
X01385Y02421*
X01388Y02422*
X01391Y02423*
X01394Y02424*
X01397Y02425*
X01399Y02427*
X01402Y02429*
X01404Y02431*
X01406Y02433*
X01408Y02436*
X01409Y02438*
X01411Y02441*
X01412Y02444*
X01413Y02447*
X01414Y0245*
X01414Y02453*
X01414Y02456*
X01414Y02459*
X01414Y02462*
X01413Y02465*
X01412Y02468*
X01411Y02471*
X01409Y02473*
X01408Y02476*
X01406Y02478*
X01404Y02481*
X01402Y02483*
X01399Y02485*
X01397Y02486*
X01394Y02488*
X01391Y02489*
X01388Y0249*
X01385Y0249*
X01383Y02491*
Y02492*
X01383Y02494*
X01382Y02496*
X01382Y02497*
X01381Y02499*
X01379Y02501*
X01369Y02511*
X01369Y02513*
X01373Y02521*
X01376Y02521*
X01379Y02521*
X01382Y02521*
X01385Y02521*
X01388Y02522*
X01391Y02523*
X01394Y02524*
X01397Y02525*
X01399Y02527*
X01402Y02529*
X01404Y02531*
X01406Y02533*
X01408Y02536*
X01409Y02538*
X01411Y02541*
X01412Y02544*
X01413Y02547*
X01414Y0255*
X01414Y02553*
X01414Y02556*
X01414Y02559*
X01414Y02562*
X01413Y02565*
X01412Y02568*
X01411Y02571*
X01409Y02573*
X01408Y02576*
X01406Y02578*
X01404Y02581*
X01402Y02583*
X01399Y02585*
X01397Y02586*
X01394Y02588*
X01391Y02589*
X01388Y0259*
X01385Y0259*
X01382Y02591*
X01379Y02591*
X01376Y02591*
X01373Y0259*
X0137Y0259*
X01367Y02589*
X01364Y02588*
X01361Y02586*
X01359Y02585*
X01356Y02583*
X01354Y02581*
X01352Y02578*
X0135Y02576*
X0135Y02575*
X01343Y02576*
X01341Y02578*
Y02587*
X01341Y02589*
X0134Y02591*
X01339Y02593*
X01338Y02594*
X01337Y02596*
X01318Y02615*
X01317Y02616*
X01315Y02617*
X01313Y02618*
X01312Y02618*
X0131Y02618*
X01302*
X01299Y02626*
X013Y02627*
X01302Y02629*
X01304Y02631*
X01306Y02633*
X01308Y02636*
X01309Y02638*
X01311Y02641*
X01312Y02644*
X01313Y02647*
X01314Y0265*
X01314Y02653*
X01314Y02656*
X01314Y02659*
X01314Y02662*
X01313Y02665*
X01312Y02668*
X01311Y02671*
X01309Y02673*
X01308Y02676*
X01306Y02678*
X01304Y02681*
X01302Y02683*
X01299Y02685*
X01302Y02693*
X01303Y02695*
X01322*
X01347Y0267*
X01346Y02668*
X01345Y02665*
X01344Y02662*
X01344Y02659*
X01344Y02656*
X01344Y02653*
X01344Y0265*
X01345Y02647*
X01346Y02644*
X01347Y02641*
X01349Y02638*
X0135Y02636*
X01352Y02633*
X01354Y02631*
X01356Y02629*
X01359Y02627*
X01361Y02625*
X01364Y02624*
X01367Y02623*
X0137Y02622*
X01373Y02621*
X01376Y02621*
X01379Y02621*
X01382Y02621*
X01385Y02621*
X01388Y02622*
X01391Y02623*
X01394Y02624*
X01397Y02625*
X01399Y02627*
X01402Y02629*
X01404Y02631*
X01406Y02633*
X01408Y02636*
X01409Y02638*
X01411Y02641*
X01412Y02644*
X01413Y02647*
X01414Y0265*
X01414Y02653*
X01414Y02656*
X01414Y02659*
X01414Y02662*
X01413Y02665*
X01412Y02668*
X01411Y02671*
X01409Y02673*
X01408Y02676*
X01406Y02678*
X01404Y02681*
X01402Y02683*
X01399Y02685*
X01397Y02686*
X01394Y02688*
X01391Y02689*
X01388Y0269*
X01385Y0269*
X01382Y02691*
X01379Y02691*
X01376Y02691*
X01373Y0269*
X0137Y0269*
X01367Y02689*
X01365Y02688*
X01337Y02716*
X01335Y02717*
X01333Y02718*
X01332Y02719*
X0133Y0272*
X01328Y0272*
X01304*
X01304Y0272*
X01301Y02729*
X01302Y02729*
X01304Y02731*
X01306Y02733*
X01308Y02736*
X01309Y02738*
X01311Y02741*
X01312Y02744*
X01313Y02747*
X01314Y0275*
X01314Y02753*
X01314Y02756*
X01314Y02759*
X01314Y02762*
X01313Y02765*
X01312Y02768*
X01311Y02771*
X01309Y02773*
X01308Y02776*
X01306Y02778*
X01304Y02781*
X01302Y02783*
X01299Y02785*
X01297Y02786*
X01294Y02788*
X01291Y02789*
X01288Y0279*
X01285Y0279*
X01282Y02791*
X01279Y02791*
X01276Y02791*
X01273Y0279*
X0127Y0279*
X01267Y02789*
X01264Y02788*
X01261Y02786*
X01259Y02785*
X01256Y02783*
X01254Y02781*
X01252Y02778*
X0125Y02776*
X01249Y02773*
X01247Y02771*
X01246Y02768*
X01245Y02765*
X01244Y02762*
X01244Y02759*
X01244Y02756*
X01244Y02753*
X01244Y0275*
X01245Y02747*
X01246Y02744*
X01247Y02741*
X01249Y02738*
X0125Y02736*
X01252Y02733*
X01254Y02731*
X01256Y02729*
X01257Y02729*
X01254Y0272*
X01254Y0272*
X00881*
X00829Y02771*
X00833Y0278*
X01013*
X01014Y0278*
X01015Y0278*
X01016Y02781*
X01017Y02781*
X01054Y02819*
X01055Y02819*
X01055Y0282*
X01056Y02821*
X01056Y02822*
Y02857*
X01082*
X01083Y02857*
X01084Y02857*
X01085Y02858*
X01086Y02858*
X01086Y02859*
X01087Y0286*
X01087Y02861*
X01087Y02862*
Y02899*
X01087Y02899*
X01087Y02899*
X01088Y02899*
X01091Y029*
X01094Y02901*
X01097Y02903*
X011Y02904*
X01102Y02906*
X01105Y02908*
X01107Y0291*
X01108Y02913*
X0111Y02916*
X01111Y02918*
X01112Y02921*
X01113Y02924*
X01114Y02927*
X01114Y0293*
X01114Y02934*
X01113Y02937*
X01112Y0294*
X01111Y02943*
X0111Y02945*
X01108Y02948*
X01107Y02951*
X01105Y02953*
X01102Y02955*
X011Y02957*
X01097Y02958*
X01094Y0296*
X01091Y02961*
X01088Y02961*
X01087Y02962*
X01087Y02962*
X01087Y02962*
Y02999*
X01087Y02999*
X01087Y02999*
X01088Y02999*
X01091Y03*
X01094Y03001*
X01097Y03003*
X011Y03004*
X01102Y03006*
X01105Y03008*
X01107Y0301*
X01108Y03013*
X0111Y03016*
X01111Y03018*
X01112Y03021*
X01113Y03024*
X01114Y03027*
X01114Y0303*
X01114Y03034*
X01113Y03037*
X01112Y0304*
X01111Y03043*
X0111Y03045*
X01108Y03048*
X01107Y03051*
X01105Y03053*
X01102Y03055*
X011Y03057*
X01097Y03058*
X01094Y0306*
X01091Y03061*
X01088Y03061*
X01087Y03062*
X01087Y03062*
X01087Y03062*
Y03598*
X01096Y03599*
X01096Y03598*
X01097Y03595*
X01099Y03592*
X011Y03589*
X01102Y03586*
X01104Y03584*
X01106Y03581*
X01108Y03579*
X01111Y03577*
X01114Y03575*
X01117Y03574*
X0112Y03573*
X01123Y03572*
X01126Y03571*
X01129Y0357*
X01133Y0357*
X01136Y0357*
X01139Y03571*
X01142Y03572*
X01145Y03573*
X01148Y03574*
X01151Y03575*
X01154Y03577*
X01157Y03579*
X01159Y03581*
X01161Y03584*
X01163Y03586*
X01165Y03589*
X01167Y03592*
X01168Y03595*
X01169Y03598*
X0117Y03601*
X0117Y03605*
X0117Y03608*
X0117Y03611*
X0117Y03614*
X01169Y03617*
X01168Y03621*
X01167Y03624*
X01165Y03627*
X01163Y03629*
X01161Y03632*
X01159Y03634*
X01157Y03637*
X01154Y03639*
X01151Y0364*
X01148Y03642*
X01145Y03643*
X01142Y03644*
X01139Y03645*
X01136Y03645*
X01133Y03645*
X01129Y03645*
X01126Y03645*
X01123Y03644*
X0112Y03643*
X01117Y03642*
X01114Y0364*
X01111Y03639*
X01108Y03637*
X01106Y03634*
X01104Y03632*
X01102Y03629*
X011Y03627*
X01099Y03624*
X01097Y03621*
X01096Y03617*
X01096Y03617*
X01087Y03618*
Y03661*
X01087Y03662*
X01087Y03663*
X01086Y03664*
X01086Y03664*
X01085Y03665*
X01084Y03666*
X01083Y03666*
X01082Y03666*
X00954*
X00953Y03666*
X00952Y03666*
X00951Y03665*
X00951Y03664*
X0095Y03664*
X0095Y03663*
X00949Y03662*
X00949Y03661*
Y03638*
X00942Y03635*
X0094Y03635*
X00938Y03637*
X00936Y03639*
X00933Y0364*
X0093Y03642*
X00927Y03643*
X00924Y03644*
X00921Y03645*
X00917Y03645*
X00914Y03645*
X00911Y03645*
X00908Y03645*
X00904Y03644*
X00901Y03643*
X00898Y03642*
X00895Y0364*
X00893Y03639*
X0089Y03637*
X00888Y03634*
X00885Y03632*
X00883Y03629*
X00882Y03627*
X0088Y03624*
X00879Y03621*
X00878Y03617*
X00877Y03614*
X00877Y03611*
X00877Y03608*
X00877Y03605*
X00877Y03601*
X00878Y03598*
X00879Y03595*
X0088Y03592*
X00882Y03589*
X00883Y03586*
X00885Y03584*
X00888Y03581*
X0089Y03579*
X00893Y03577*
X00895Y03575*
X00898Y03574*
X00901Y03573*
X00904Y03572*
X00908Y03571*
X00911Y0357*
X00914Y0357*
X00917Y0357*
X00921Y03571*
X00924Y03572*
X00927Y03573*
X0093Y03574*
X00933Y03575*
X00936Y03577*
X00938Y03579*
X0094Y03581*
X00942Y03581*
X00949Y03577*
Y0312*
X00949Y03119*
X0095Y03118*
X0095Y03117*
X00951Y03116*
X00969Y03098*
Y03059*
X0096Y03056*
X0096Y03056*
X00958Y03058*
X00955Y0306*
X00953Y03062*
X0095Y03064*
X00947Y03066*
X00944Y03067*
X0094Y03068*
X00937Y03069*
X00934Y03069*
X0093Y03069*
X00927Y03069*
X00923Y03069*
X0092Y03068*
X00917Y03067*
X00914Y03066*
X00911Y03064*
X00908Y03062*
X00905Y0306*
X00903Y03058*
X009Y03056*
X00898Y03053*
X00896Y0305*
X00895Y03047*
X00894Y03044*
X00893Y03041*
X00892Y03037*
X00891Y03034*
X00891Y0303*
X00891Y03027*
X00892Y03024*
X00893Y0302*
X00894Y03017*
X00895Y03014*
X00896Y03011*
X00898Y03008*
X009Y03005*
X00903Y03003*
X00905Y03001*
X00908Y02999*
X00911Y02997*
X00914Y02995*
X00917Y02994*
X0092Y02993*
X00923Y02992*
X00927Y02992*
X0093Y02991*
X00934Y02992*
X00937Y02992*
X0094Y02993*
X00944Y02994*
X00947Y02995*
X0095Y02997*
X00953Y02999*
X00955Y03001*
X00958Y03003*
X0096Y03005*
X0096Y03005*
X00969Y03002*
Y02959*
X0096Y02956*
X0096Y02956*
X00958Y02958*
X00955Y0296*
X00953Y02962*
X0095Y02964*
X00947Y02966*
X00944Y02967*
X0094Y02968*
X00937Y02969*
X00934Y02969*
X0093Y02969*
X00927Y02969*
X00923Y02969*
X0092Y02968*
X00917Y02967*
X00914Y02966*
X00911Y02964*
X00908Y02962*
X00905Y0296*
X00903Y02958*
X009Y02956*
X00898Y02953*
X00896Y0295*
X00895Y02947*
X00894Y02944*
X00893Y02941*
X00892Y02937*
X00891Y02934*
X00891Y0293*
X00891Y02927*
X00892Y02924*
X00893Y0292*
X00894Y02917*
X00895Y02914*
X00896Y02911*
X00898Y02908*
X009Y02905*
X00903Y02903*
X00905Y02901*
X00908Y02899*
X00911Y02897*
X00914Y02895*
X00917Y02894*
X0092Y02893*
X00923Y02892*
X00927Y02892*
X0093Y02891*
X00934Y02892*
X00937Y02892*
X0094Y02893*
X00944Y02894*
X00947Y02895*
X0095Y02897*
X00953Y02899*
X00955Y02901*
X00958Y02903*
X0096Y02905*
X0096Y02905*
X00969Y02902*
Y02876*
X00952Y02859*
X00826*
X00825Y02859*
X00824Y02858*
X00823Y02858*
X00822Y02858*
X00816Y02863*
X00765Y02913*
X00766Y02914*
X00767Y02917*
X00768Y0292*
X00769Y02924*
X00769Y02927*
X00769Y0293*
X00769Y02934*
X00769Y02937*
X00768Y02941*
X00767Y02944*
X00766Y02947*
X00764Y0295*
X00762Y02953*
X0076Y02956*
X00758Y02958*
X00756Y02959*
X00757Y02963*
X0076Y02968*
X00775*
X00795Y02948*
X00795Y02947*
X00794Y02944*
X00793Y02941*
X00792Y02937*
X00791Y02934*
X00791Y0293*
X00791Y02927*
X00792Y02924*
X00793Y0292*
X00794Y02917*
X00795Y02914*
X00796Y02911*
X00798Y02908*
X008Y02905*
X00803Y02903*
X00805Y02901*
X00808Y02899*
X00811Y02897*
X00814Y02895*
X00817Y02894*
X0082Y02893*
X00823Y02892*
X00827Y02892*
X0083Y02891*
X00834Y02892*
X00837Y02892*
X0084Y02893*
X00844Y02894*
X00847Y02895*
X0085Y02897*
X00853Y02899*
X00855Y02901*
X00858Y02903*
X0086Y02905*
X00862Y02908*
X00864Y02911*
X00866Y02914*
X00867Y02917*
X00868Y0292*
X00869Y02924*
X00869Y02927*
X00869Y0293*
X00869Y02934*
X00869Y02937*
X00868Y02941*
X00867Y02944*
X00866Y02947*
X00864Y0295*
X00862Y02953*
X0086Y02956*
X00858Y02958*
X00855Y0296*
X00853Y02962*
X0085Y02964*
X00847Y02966*
X00844Y02967*
X0084Y02968*
X00837Y02969*
X00834Y02969*
X0083Y02969*
X00827Y02969*
X00823Y02969*
X0082Y02968*
X00817Y02967*
X00814Y02966*
X00813Y02965*
X00789Y0299*
X00787Y02991*
X00786Y02992*
X00784Y02993*
X00782Y02993*
X0078Y02993*
X00761*
X00759Y02995*
X00757Y03002*
X00758Y03003*
X0076Y03005*
X00762Y03008*
X00764Y03011*
X00766Y03014*
X00767Y03017*
X00768Y0302*
X00769Y03024*
X00769Y03027*
X00769Y0303*
X00769Y03034*
X00769Y03037*
X00768Y03041*
X00767Y03044*
X00766Y03047*
X00764Y0305*
X00762Y03053*
X0076Y03056*
X00758Y03058*
X00755Y0306*
X00753Y03062*
X0075Y03064*
X00747Y03066*
X00744Y03067*
X0074Y03068*
X00737Y03069*
X00734Y03069*
X0073Y03069*
X00727Y03069*
X00723Y03069*
X0072Y03068*
X00717Y03067*
X00714Y03066*
X00711Y03064*
X00708Y03062*
X00705Y0306*
X00703Y03058*
X007Y03056*
X00698Y03053*
X00696Y0305*
X00695Y03047*
X00694Y03044*
X00693Y03041*
X00692Y03037*
X00691Y03034*
X00691Y0303*
X00691Y03027*
X00692Y03024*
X00693Y0302*
X00694Y03017*
X00695Y03014*
X00696Y03011*
X00698Y03008*
X007Y03005*
X00703Y03003*
X00703Y03002*
X00703Y02998*
X00703Y02997*
X00701Y02993*
X007Y02992*
X00698Y02991*
X00696Y0299*
X00678Y02971*
X00669Y02969*
X00591*
Y02891*
X00618*
Y02589*
X00618Y02587*
X00618Y02585*
X00619Y02584*
X0062Y02582*
X00621Y0258*
X00671Y02531*
X00684Y02518*
X00685Y02517*
X00687Y02516*
X00689Y02515*
X00691Y02514*
X00693Y02514*
X00798*
X00802Y02506*
X00771Y02476*
X0077Y02474*
X00769Y02473*
X00768Y02472*
X00764Y02471*
X00764Y02471*
X00759Y02471*
X00758Y02473*
X00755Y02475*
X00753Y02477*
X0075Y02479*
X00747Y02481*
X00744Y02482*
X0074Y02483*
X00737Y02484*
X00734Y02484*
X0073Y02484*
X00727Y02484*
X00723Y02484*
X0072Y02483*
X00717Y02482*
X00714Y02481*
X00711Y02479*
X00708Y02477*
X00705Y02475*
X00703Y02473*
X007Y0247*
X00698Y02468*
X00696Y02465*
X00695Y02462*
X00694Y02459*
X00693Y02455*
X00692Y02452*
X00691Y02449*
X00691Y02445*
X00691Y02442*
X00692Y02438*
X00693Y02435*
X00694Y02432*
X00695Y02429*
X00696Y02426*
X00698Y02423*
X007Y0242*
X00703Y02418*
X00705Y02415*
X00708Y02413*
X00711Y02411*
X00714Y0241*
X00717Y02409*
X0072Y02408*
X00723Y02407*
X00727Y02406*
X0073Y02406*
X00734Y02406*
X00737Y02407*
X0074Y02408*
X00744Y02409*
X00747Y0241*
X0075Y02411*
X00753Y02413*
X00755Y02415*
X00758Y02418*
X00759Y02418*
X00765Y02417*
X00767Y02415*
Y024*
X00747Y0238*
X00747Y02381*
X00744Y02382*
X0074Y02383*
X00737Y02384*
X00734Y02384*
X0073Y02384*
X00727Y02384*
X00723Y02384*
X0072Y02383*
X00717Y02382*
X00714Y02381*
X00711Y02379*
X00708Y02377*
X00705Y02375*
X00703Y02373*
X007Y0237*
X00698Y02368*
X00696Y02365*
X00695Y02362*
X00694Y02359*
X00693Y02355*
X00692Y02352*
X00691Y02349*
X00691Y02345*
X00691Y02342*
X00692Y02338*
X00693Y02335*
X00694Y02332*
X00695Y02329*
X00696Y02326*
X00698Y02323*
X007Y0232*
X00703Y02318*
X00705Y02315*
X00708Y02313*
X00705Y02304*
X00689*
X00669Y02324*
Y02384*
X00591*
Y0232*
X00583Y02317*
X00575Y02324*
Y03255*
X00692Y03372*
X00859Y03539*
X0086Y0354*
X0086Y03541*
X00861Y03542*
X00861Y03543*
Y03659*
Y03661*
X00861Y03662*
X0086Y03663*
X0086Y03664*
X00859Y03664*
X00859Y03665*
X00858Y03666*
X00857Y03666*
X00856Y03666*
X00854*
X00748*
X00747Y03666*
X00746Y03666*
X00745Y03665*
X00744Y03664*
X00743Y03664*
X00743Y03663*
X00743Y03662*
X00743Y03661*
Y03555*
X00564Y03376*
X00555Y0338*
X00555Y03381*
Y03381*
Y03413*
X00555Y03413*
X00555Y03414*
X00554Y03415*
X00554Y03416*
X00553Y03417*
X00552Y03417*
X00551Y03417*
X0055Y03418*
X00212*
Y03579*
Y03588*
X00215Y03607*
X0022Y03625*
X00227Y03643*
X00237Y03659*
X00248Y03674*
X00262Y03688*
X00277Y03699*
X00293Y03709*
X00311Y03716*
X00329Y03721*
X00348Y03724*
X00658*
X00658Y03723*
X00661Y03721*
X00664Y03715*
X00664Y03714*
X00664Y03711*
X00663Y03708*
X00664Y03705*
X00664Y03702*
X00665Y03699*
X00666Y03696*
X00667Y03693*
X00669Y0369*
X00671Y03688*
X00673Y03685*
X00675Y03683*
X00677Y03682*
X0068Y0368*
X00683Y03679*
X00686Y03678*
X00689Y03677*
X00692Y03676*
X00695Y03676*
X00698Y03676*
X00701Y03677*
X00704Y03678*
X00707Y03679*
X0071Y0368*
X00712Y03682*
X00715Y03683*
X00717Y03685*
X00719Y03688*
X00721Y0369*
X00723Y03693*
X00724Y03696*
X00725Y03699*
X00726Y03702*
X00726Y03705*
X00727Y03708*
X00726Y03711*
X00726Y03714*
X00726Y03715*
X00729Y03721*
X00732Y03723*
X00732Y03724*
X00758*
X00758Y03723*
X00761Y03721*
X00764Y03715*
X00764Y03714*
X00764Y03711*
X00763Y03708*
X00764Y03705*
X00764Y03702*
X00765Y03699*
X00766Y03696*
X00767Y03693*
X00769Y0369*
X00771Y03688*
X00773Y03685*
X00775Y03683*
X00777Y03682*
X0078Y0368*
X00783Y03679*
X00786Y03678*
X00789Y03677*
X00792Y03676*
X00795Y03676*
X00798Y03676*
X00801Y03677*
X00804Y03678*
X00807Y03679*
X0081Y0368*
X00812Y03682*
X00815Y03683*
X00817Y03685*
X00819Y03688*
X00821Y0369*
X00823Y03693*
X00824Y03696*
X00825Y03699*
X00826Y03702*
X00826Y03705*
X00827Y03708*
X00826Y03711*
X00826Y03714*
X00826Y03715*
X00829Y03721*
X00832Y03723*
X00832Y03724*
X00877*
X00878Y03723*
X0088Y03721*
X00883Y03715*
X00883Y03714*
X00883Y03711*
X00883Y03708*
X00883Y03705*
X00883Y03702*
X00884Y03699*
X00885Y03696*
X00886Y03693*
X00888Y0369*
X0089Y03688*
X00892Y03685*
X00894Y03683*
X00897Y03682*
X00899Y0368*
X00902Y03679*
X00905Y03678*
X00908Y03677*
X00911Y03676*
X00914Y03676*
X00917Y03676*
X0092Y03677*
X00923Y03678*
X00926Y03679*
X00929Y0368*
X00932Y03682*
X00934Y03683*
X00936Y03685*
X00938Y03688*
X0094Y0369*
X00942Y03693*
X00943Y03696*
X00944Y03699*
X00945Y03702*
X00945Y03705*
X00946Y03708*
X00945Y03711*
X00945Y03714*
X00945Y03715*
X00948Y03721*
X00951Y03723*
X00951Y03724*
X00977*
X00978Y03723*
X0098Y03721*
X00983Y03715*
X00983Y03714*
X00983Y03711*
X00983Y03708*
X00983Y03705*
X00983Y03702*
X00984Y03699*
X00985Y03696*
X00986Y03693*
X00988Y0369*
X0099Y03688*
X00992Y03685*
X00994Y03683*
X00997Y03682*
X00999Y0368*
X01002Y03679*
X01005Y03678*
X01008Y03677*
X01011Y03676*
X01014Y03676*
X01017Y03676*
X0102Y03677*
X01023Y03678*
X01026Y03679*
X01029Y0368*
X01032Y03682*
X01034Y03683*
X01036Y03685*
X01038Y03688*
X0104Y0369*
X01042Y03693*
X01043Y03696*
X01044Y03699*
X01045Y03702*
X01045Y03705*
X01046Y03708*
X01045Y03711*
X01045Y03714*
X01045Y03715*
X01048Y03721*
X01051Y03723*
X01051Y03724*
X01095*
X01096Y03723*
X01099Y03721*
X01102Y03715*
X01102Y03714*
X01101Y03711*
X01101Y03708*
X01101Y03705*
X01102Y03702*
X01102Y03699*
X01103Y03696*
X01105Y03693*
X01106Y0369*
X01108Y03688*
X0111Y03685*
X01113Y03683*
X01115Y03682*
X01118Y0368*
X01121Y03679*
X01123Y03678*
X01126Y03677*
X01129Y03676*
X01133Y03676*
X01136Y03676*
X01139Y03677*
X01142Y03678*
X01145Y03679*
X01147Y0368*
X0115Y03682*
X01153Y03683*
X01155Y03685*
X01157Y03688*
X01159Y0369*
X0116Y03693*
X01162Y03696*
X01163Y03699*
X01164Y03702*
X01164Y03705*
X01164Y03708*
X01164Y03711*
X01164Y03714*
X01163Y03715*
X01167Y03721*
X01169Y03723*
X0117Y03724*
X01195*
X01196Y03723*
X01199Y03721*
X01202Y03715*
X01202Y03714*
X01201Y03711*
X01201Y03708*
X01201Y03705*
X01202Y03702*
X01202Y03699*
X01203Y03696*
X01205Y03693*
X01206Y0369*
X01208Y03688*
X0121Y03685*
X01213Y03683*
X01215Y03682*
X01218Y0368*
X01221Y03679*
X01223Y03678*
X01226Y03677*
X01229Y03676*
X01233Y03676*
X01236Y03676*
X01239Y03677*
X01242Y03678*
X01245Y03679*
X01247Y0368*
X0125Y03682*
X01253Y03683*
X01255Y03685*
X01257Y03688*
X01259Y0369*
X0126Y03693*
X01262Y03696*
X01263Y03699*
X01264Y03702*
X01264Y03705*
X01264Y03708*
X01264Y03711*
X01264Y03714*
X01263Y03715*
X01267Y03721*
X01269Y03723*
X0127Y03724*
X01422*
X01422Y03723*
X01425Y03721*
X01428Y03715*
X01428Y03714*
X01428Y03711*
X01427Y03708*
X01428Y03705*
X01428Y03702*
X01429Y03699*
X0143Y03696*
X01431Y03693*
X01433Y0369*
X01435Y03688*
X01437Y03685*
X01439Y03683*
X01441Y03682*
X01444Y0368*
X01447Y03679*
X0145Y03678*
X01453Y03677*
X01456Y03676*
X01459Y03676*
X01462Y03676*
X01465Y03677*
X01468Y03678*
X01471Y03679*
X01474Y0368*
X01476Y03682*
X01479Y03683*
X01481Y03685*
X01483Y03688*
X01485Y0369*
X01487Y03693*
X01488Y03696*
X01489Y03699*
X0149Y03702*
X0149Y03705*
X0149Y03708*
X0149Y03711*
X0149Y03714*
X0149Y03715*
X01493Y03721*
X01496Y03723*
X01496Y03724*
X01522*
X01522Y03723*
G37*
G36*
X01082Y03062D02*
X01074Y03061D01*
X01066Y03058*
X0106Y03053*
X01055Y03046*
X01051Y03039*
X0105Y0303*
X01051Y03022*
X01055Y03015*
X0106Y03008*
X01066Y03003*
X01074Y03*
X01082Y02999*
Y02962*
X01074Y02961*
X01066Y02958*
X0106Y02953*
X01055Y02946*
X01051Y02939*
X0105Y0293*
X01051Y02922*
X01055Y02915*
X0106Y02908*
X01066Y02903*
X01074Y029*
X01082Y02899*
Y02862*
X01051*
Y02822*
X01013Y02785*
X00826*
Y02854*
X00954*
X00974Y02874*
Y031*
X00954Y0312*
Y03661*
X01082*
Y03062*
G37*
G36*
X00705Y02901D02*
X00708Y02899D01*
X00711Y02897*
X00714Y02895*
X00717Y02894*
X0072Y02893*
X00723Y02892*
X00727Y02892*
X0073Y02891*
X00734Y02892*
X00737Y02892*
X0074Y02893*
X00744Y02894*
X00747Y02895*
X00747Y02895*
X00798Y02845*
Y02772*
X00798Y0277*
X00799Y02768*
X00799Y02766*
X008Y02765*
X00802Y02763*
X00867Y02698*
X00868Y02697*
X0087Y02696*
X00872Y02695*
X00874Y02695*
X00875Y02695*
X01255*
X01256Y02693*
X01259Y02685*
X01256Y02683*
X01254Y02681*
X01252Y02678*
X0125Y02676*
X01249Y02673*
X01247Y02671*
X01246Y02668*
X01245Y02665*
X01244Y02662*
X01244Y02659*
X01244Y02656*
X01244Y02653*
X01244Y0265*
X01245Y02647*
X01246Y02644*
X01161Y02559*
X00706*
X00663Y02603*
Y02782*
X00692Y02811*
X00694Y02813*
X00695Y02815*
X00695Y02816*
X00696Y02818*
X00696Y0282*
Y02897*
X00697Y02898*
X00705Y02901*
X00705Y02901*
G37*
G36*
X00856Y03543D02*
X00688Y03375D01*
X0057Y03257*
Y02322*
X0062Y02273*
X00994*
Y02194*
X006*
X00511Y02283*
Y03316*
X00748Y03553*
Y03661*
X00856*
Y03543*
G37*
G36*
X0055Y0338D02*
X00551Y03379D01*
Y03363*
X00507Y0332*
X00506Y03316*
Y02283*
X00507Y02279*
X00551Y02236*
Y02221*
X0055Y0222*
Y01622*
X0055Y01622*
X0055Y01622*
X00339Y01411*
X00339Y0141*
X00338Y01409*
Y01408*
X00338Y01407*
Y01143*
X00338Y01142*
Y01141*
X00339Y0114*
X00339Y01139*
X00408Y0107*
X00409Y0107*
X00409Y0107*
X00409Y0107*
Y01066*
X00413*
X00414Y01066*
X00596*
X00597Y01066*
X00598*
X00599Y01067*
X006Y01068*
X00683Y01151*
X00684Y01152*
X00685Y01153*
Y01154*
X00685Y01155*
Y01373*
X00775*
Y0098*
X00775Y0098*
X00775Y0098*
X00728Y00933*
X00728Y00933*
X00728Y00933*
X00212*
Y03413*
X0055*
Y0338*
G37*
%LNrmx_explorer_board-2*%
%LPC*%
G36*
X04485Y03645D02*
X04481Y03645D01*
X04478Y03645*
X04475Y03644*
X04472Y03643*
X04469Y03642*
X04466Y0364*
X04463Y03639*
X04461Y03637*
X04458Y03634*
X04456Y03632*
X04454Y03629*
X04452Y03627*
X04451Y03624*
X04449Y03621*
X04449Y03617*
X04448Y03614*
X04447Y03611*
X04447Y03608*
X04447Y03605*
X04448Y03601*
X04449Y03598*
X04449Y03595*
X04451Y03592*
X04452Y03589*
X04454Y03586*
X04456Y03584*
X04458Y03581*
X04461Y03579*
X04463Y03577*
X04466Y03575*
X04469Y03574*
X04472Y03573*
X04475Y03572*
X04478Y03571*
X04481Y0357*
X04485Y0357*
X04488Y0357*
X04491Y03571*
X04494Y03572*
X04498Y03573*
X04501Y03574*
X04503Y03575*
X04506Y03577*
X04509Y03579*
X04511Y03581*
X04513Y03584*
X04515Y03586*
X04517Y03589*
X04519Y03592*
X0452Y03595*
X04521Y03598*
X04522Y03601*
X04522Y03605*
X04522Y03608*
X04522Y03611*
X04522Y03614*
X04521Y03617*
X0452Y03621*
X04519Y03624*
X04517Y03627*
X04515Y03629*
X04513Y03632*
X04511Y03634*
X04509Y03637*
X04506Y03639*
X04503Y0364*
X04501Y03642*
X04498Y03643*
X04494Y03644*
X04491Y03645*
X04488Y03645*
X04485Y03645*
G37*
G36*
X04366D02*
X04362Y03645D01*
X04359Y03645*
X04356Y03644*
X04353Y03643*
X0435Y03642*
X04347Y0364*
X04344Y03639*
X04342Y03637*
X04339Y03634*
X04337Y03632*
X04335Y03629*
X04333Y03627*
X04332Y03624*
X0433Y03621*
X04329Y03617*
X04329Y03614*
X04328Y03611*
X04328Y03608*
X04328Y03605*
X04329Y03601*
X04329Y03598*
X0433Y03595*
X04332Y03592*
X04333Y03589*
X04335Y03586*
X04337Y03584*
X04339Y03581*
X04342Y03579*
X04344Y03577*
X04347Y03575*
X0435Y03574*
X04353Y03573*
X04356Y03572*
X04359Y03571*
X04362Y0357*
X04366Y0357*
X04369Y0357*
X04372Y03571*
X04375Y03572*
X04378Y03573*
X04382Y03574*
X04384Y03575*
X04387Y03577*
X0439Y03579*
X04392Y03581*
X04394Y03584*
X04396Y03586*
X04398Y03589*
X044Y03592*
X04401Y03595*
X04402Y03598*
X04403Y03601*
X04403Y03605*
X04403Y03608*
X04403Y03611*
X04403Y03614*
X04402Y03617*
X04401Y03621*
X044Y03624*
X04398Y03627*
X04396Y03629*
X04394Y03632*
X04392Y03634*
X0439Y03637*
X04387Y03639*
X04384Y0364*
X04382Y03642*
X04378Y03643*
X04375Y03644*
X04372Y03645*
X04369Y03645*
X04366Y03645*
G37*
G36*
X04266D02*
X04262Y03645D01*
X04259Y03645*
X04256Y03644*
X04253Y03643*
X0425Y03642*
X04247Y0364*
X04244Y03639*
X04242Y03637*
X04239Y03634*
X04237Y03632*
X04235Y03629*
X04233Y03627*
X04232Y03624*
X0423Y03621*
X04229Y03617*
X04229Y03614*
X04228Y03611*
X04228Y03608*
X04228Y03605*
X04229Y03601*
X04229Y03598*
X0423Y03595*
X04232Y03592*
X04233Y03589*
X04235Y03586*
X04237Y03584*
X04239Y03581*
X04242Y03579*
X04244Y03577*
X04247Y03575*
X0425Y03574*
X04253Y03573*
X04256Y03572*
X04259Y03571*
X04262Y0357*
X04266Y0357*
X04269Y0357*
X04272Y03571*
X04275Y03572*
X04278Y03573*
X04282Y03574*
X04284Y03575*
X04287Y03577*
X0429Y03579*
X04292Y03581*
X04294Y03584*
X04296Y03586*
X04298Y03589*
X043Y03592*
X04301Y03595*
X04302Y03598*
X04303Y03601*
X04303Y03605*
X04303Y03608*
X04303Y03611*
X04303Y03614*
X04302Y03617*
X04301Y03621*
X043Y03624*
X04298Y03627*
X04296Y03629*
X04294Y03632*
X04292Y03634*
X0429Y03637*
X04287Y03639*
X04284Y0364*
X04282Y03642*
X04278Y03643*
X04275Y03644*
X04272Y03645*
X04269Y03645*
X04266Y03645*
G37*
G36*
X03939D02*
X03936Y03645D01*
X03933Y03645*
X0393Y03644*
X03926Y03643*
X03923Y03642*
X03921Y0364*
X03918Y03639*
X03915Y03637*
X03913Y03634*
X03911Y03632*
X03909Y03629*
X03907Y03627*
X03905Y03624*
X03904Y03621*
X03903Y03617*
X03902Y03614*
X03902Y03611*
X03902Y03608*
X03902Y03605*
X03902Y03601*
X03903Y03598*
X03904Y03595*
X03905Y03592*
X03907Y03589*
X03909Y03586*
X03911Y03584*
X03913Y03581*
X03915Y03579*
X03918Y03577*
X03921Y03575*
X03923Y03574*
X03926Y03573*
X0393Y03572*
X03933Y03571*
X03936Y0357*
X03939Y0357*
X03943Y0357*
X03946Y03571*
X03949Y03572*
X03952Y03573*
X03955Y03574*
X03958Y03575*
X03961Y03577*
X03963Y03579*
X03966Y03581*
X03968Y03584*
X0397Y03586*
X03972Y03589*
X03973Y03592*
X03975Y03595*
X03976Y03598*
X03976Y03601*
X03977Y03605*
X03977Y03608*
X03977Y03611*
X03976Y03614*
X03976Y03617*
X03975Y03621*
X03973Y03624*
X03972Y03627*
X0397Y03629*
X03968Y03632*
X03966Y03634*
X03963Y03637*
X03961Y03639*
X03958Y0364*
X03955Y03642*
X03952Y03643*
X03949Y03644*
X03946Y03645*
X03943Y03645*
X03939Y03645*
G37*
G36*
X07578Y03656D02*
X07572Y03656D01*
X07566Y03655*
X07561Y03655*
X07555Y03654*
X07549Y03652*
X07543Y03651*
X07538Y03649*
X07532Y03646*
X07527Y03644*
X07522Y03641*
X07517Y03638*
X07512Y03634*
X07507Y03631*
X07502Y03627*
X07498Y03623*
X07494Y03619*
X0749Y03614*
X07487Y03609*
X07483Y03605*
X0748Y03599*
X07477Y03594*
X07475Y03589*
X07472Y03583*
X0747Y03578*
X07469Y03572*
X07467Y03566*
X07466Y03561*
X07466Y03555*
X07465Y03549*
X07465Y03543*
X07465Y03537*
X07466Y03531*
X07466Y03525*
X07467Y03519*
X07469Y03513*
X0747Y03508*
X07472Y03502*
X07475Y03497*
X07477Y03491*
X0748Y03486*
X07483Y03481*
X07487Y03476*
X0749Y03472*
X07494Y03467*
X07498Y03463*
X07502Y03459*
X07507Y03455*
X07512Y03451*
X07517Y03448*
X07522Y03445*
X07527Y03442*
X07532Y03439*
X07538Y03437*
X07543Y03435*
X07549Y03433*
X07555Y03432*
X07561Y03431*
X07566Y0343*
X07572Y0343*
X07578Y0343*
X07584Y0343*
X0759Y0343*
X07596Y03431*
X07602Y03432*
X07608Y03433*
X07613Y03435*
X07619Y03437*
X07624Y03439*
X0763Y03442*
X07635Y03445*
X0764Y03448*
X07645Y03451*
X0765Y03455*
X07654Y03459*
X07658Y03463*
X07662Y03467*
X07666Y03472*
X0767Y03476*
X07673Y03481*
X07676Y03486*
X07679Y03491*
X07682Y03497*
X07684Y03502*
X07686Y03508*
X07688Y03513*
X07689Y03519*
X0769Y03525*
X07691Y03531*
X07691Y03537*
X07692Y03543*
X07691Y03549*
X07691Y03555*
X0769Y03561*
X07689Y03566*
X07688Y03572*
X07686Y03578*
X07684Y03583*
X07682Y03589*
X07679Y03594*
X07676Y03599*
X07673Y03605*
X0767Y03609*
X07666Y03614*
X07662Y03619*
X07658Y03623*
X07654Y03627*
X0765Y03631*
X07645Y03634*
X0764Y03638*
X07635Y03641*
X0763Y03644*
X07624Y03646*
X07619Y03649*
X07613Y03651*
X07608Y03652*
X07602Y03654*
X07596Y03655*
X0759Y03655*
X07584Y03656*
X07578Y03656*
G37*
G36*
X04822D02*
X04816Y03656D01*
X0481Y03655*
X04805Y03655*
X04799Y03654*
X04793Y03652*
X04787Y03651*
X04782Y03649*
X04776Y03646*
X04771Y03644*
X04766Y03641*
X04761Y03638*
X04756Y03634*
X04751Y03631*
X04747Y03627*
X04742Y03623*
X04738Y03619*
X04734Y03614*
X04731Y03609*
X04727Y03605*
X04724Y03599*
X04721Y03594*
X04719Y03589*
X04717Y03583*
X04715Y03578*
X04713Y03572*
X04712Y03566*
X0471Y03561*
X0471Y03555*
X04709Y03549*
X04709Y03543*
X04709Y03537*
X0471Y03531*
X0471Y03525*
X04712Y03519*
X04713Y03513*
X04715Y03508*
X04717Y03502*
X04719Y03497*
X04721Y03491*
X04724Y03486*
X04727Y03481*
X04731Y03476*
X04734Y03472*
X04738Y03467*
X04742Y03463*
X04747Y03459*
X04751Y03455*
X04756Y03451*
X04761Y03448*
X04766Y03445*
X04771Y03442*
X04776Y03439*
X04782Y03437*
X04787Y03435*
X04793Y03433*
X04799Y03432*
X04805Y03431*
X0481Y0343*
X04816Y0343*
X04822Y0343*
X04828Y0343*
X04834Y0343*
X0484Y03431*
X04846Y03432*
X04852Y03433*
X04857Y03435*
X04863Y03437*
X04868Y03439*
X04874Y03442*
X04879Y03445*
X04884Y03448*
X04889Y03451*
X04894Y03455*
X04898Y03459*
X04902Y03463*
X04907Y03467*
X0491Y03472*
X04914Y03476*
X04917Y03481*
X0492Y03486*
X04923Y03491*
X04926Y03497*
X04928Y03502*
X0493Y03508*
X04932Y03513*
X04933Y03519*
X04934Y03525*
X04935Y03531*
X04935Y03537*
X04936Y03543*
X04935Y03549*
X04935Y03555*
X04934Y03561*
X04933Y03566*
X04932Y03572*
X0493Y03578*
X04928Y03583*
X04926Y03589*
X04923Y03594*
X0492Y03599*
X04917Y03605*
X04914Y03609*
X0491Y03614*
X04907Y03619*
X04902Y03623*
X04898Y03627*
X04894Y03631*
X04889Y03634*
X04884Y03638*
X04879Y03641*
X04874Y03644*
X04868Y03646*
X04863Y03649*
X04857Y03651*
X04852Y03652*
X04846Y03654*
X0484Y03655*
X04834Y03655*
X04828Y03656*
X04822Y03656*
G37*
G36*
X02179Y03425D02*
X02175Y03425D01*
X0217Y03424*
X02166Y03423*
X02161Y03422*
X02157Y03421*
X02153Y03419*
X02149Y03418*
X02145Y03416*
X02141Y03413*
X02137Y0341*
X02134Y03408*
X0213Y03405*
X02127Y03401*
X02124Y03398*
X02122Y03394*
X02119Y0339*
X02117Y03386*
X02115Y03382*
X02114Y03378*
X02112Y03374*
X02111Y03369*
X02111Y03365*
X0211Y0336*
X0211Y03356*
X0211Y03351*
X02111Y03347*
X02111Y03342*
X02112Y03338*
X02114Y03334*
X02115Y03329*
X02117Y03325*
X02119Y03321*
X02122Y03318*
X02124Y03314*
X02127Y0331*
X0213Y03307*
X02134Y03304*
X02137Y03301*
X02141Y03298*
X02145Y03296*
X02149Y03294*
X02153Y03292*
X02157Y03291*
X02161Y03289*
X02166Y03288*
X0217Y03287*
X02175Y03287*
X02179Y03287*
X02184Y03287*
X02188Y03287*
X02192Y03288*
X02197Y03289*
X02201Y03291*
X02205Y03292*
X0221Y03294*
X02213Y03296*
X02217Y03298*
X02221Y03301*
X02224Y03304*
X02228Y03307*
X02231Y0331*
X02234Y03314*
X02236Y03318*
X02239Y03321*
X02241Y03325*
X02243Y03329*
X02244Y03334*
X02246Y03338*
X02247Y03342*
X02247Y03347*
X02248Y03351*
X02248Y03356*
X02248Y0336*
X02247Y03365*
X02247Y03369*
X02246Y03374*
X02244Y03378*
X02243Y03382*
X02241Y03386*
X02239Y0339*
X02236Y03394*
X02234Y03398*
X02231Y03401*
X02228Y03405*
X02224Y03408*
X02221Y0341*
X02217Y03413*
X02213Y03416*
X0221Y03418*
X02205Y03419*
X02201Y03421*
X02197Y03422*
X02192Y03423*
X02188Y03424*
X02184Y03425*
X02179Y03425*
G37*
G36*
X03779Y03291D02*
X03776Y03291D01*
X03773Y0329*
X0377Y0329*
X03767Y03289*
X03764Y03288*
X03761Y03286*
X03759Y03285*
X03756Y03283*
X03754Y03281*
X03752Y03278*
X0375Y03276*
X03749Y03273*
X03747Y03271*
X03746Y03268*
X03745Y03265*
X03744Y03262*
X03744Y03259*
X03744Y03256*
X03744Y03253*
X03744Y0325*
X03745Y03247*
X03746Y03244*
X03747Y03241*
X03749Y03238*
X0375Y03236*
X03752Y03233*
X03754Y03231*
X03756Y03229*
X03759Y03227*
X03761Y03225*
X03764Y03224*
X03767Y03223*
X0377Y03222*
X03773Y03221*
X03776Y03221*
X03779Y03221*
X03782Y03221*
X03785Y03221*
X03788Y03222*
X03791Y03223*
X03794Y03224*
X03797Y03225*
X03799Y03227*
X03802Y03229*
X03804Y03231*
X03806Y03233*
X03808Y03236*
X03809Y03238*
X03811Y03241*
X03812Y03244*
X03813Y03247*
X03814Y0325*
X03814Y03253*
X03814Y03256*
X03814Y03259*
X03814Y03262*
X03813Y03265*
X03812Y03268*
X03811Y03271*
X03809Y03273*
X03808Y03276*
X03806Y03278*
X03804Y03281*
X03802Y03283*
X03799Y03285*
X03797Y03286*
X03794Y03288*
X03791Y03289*
X03788Y0329*
X03785Y0329*
X03782Y03291*
X03779Y03291*
G37*
G36*
X03679D02*
X03676Y03291D01*
X03673Y0329*
X0367Y0329*
X03667Y03289*
X03664Y03288*
X03661Y03286*
X03659Y03285*
X03656Y03283*
X03654Y03281*
X03652Y03278*
X0365Y03276*
X03649Y03273*
X03647Y03271*
X03646Y03268*
X03645Y03265*
X03644Y03262*
X03644Y03259*
X03644Y03256*
X03644Y03253*
X03644Y0325*
X03645Y03247*
X03646Y03244*
X03647Y03241*
X03649Y03238*
X0365Y03236*
X03652Y03233*
X03654Y03231*
X03656Y03229*
X03659Y03227*
X03661Y03225*
X03664Y03224*
X03667Y03223*
X0367Y03222*
X03673Y03221*
X03676Y03221*
X03679Y03221*
X03682Y03221*
X03685Y03221*
X03688Y03222*
X03691Y03223*
X03694Y03224*
X03697Y03225*
X03699Y03227*
X03702Y03229*
X03704Y03231*
X03706Y03233*
X03708Y03236*
X03709Y03238*
X03711Y03241*
X03712Y03244*
X03713Y03247*
X03714Y0325*
X03714Y03253*
X03714Y03256*
X03714Y03259*
X03714Y03262*
X03713Y03265*
X03712Y03268*
X03711Y03271*
X03709Y03273*
X03708Y03276*
X03706Y03278*
X03704Y03281*
X03702Y03283*
X03699Y03285*
X03697Y03286*
X03694Y03288*
X03691Y03289*
X03688Y0329*
X03685Y0329*
X03682Y03291*
X03679Y03291*
G37*
G36*
X03779Y03191D02*
X03776Y03191D01*
X03773Y0319*
X0377Y0319*
X03767Y03189*
X03764Y03188*
X03761Y03186*
X03759Y03185*
X03756Y03183*
X03754Y03181*
X03752Y03178*
X0375Y03176*
X03749Y03173*
X03747Y03171*
X03746Y03168*
X03745Y03165*
X03744Y03162*
X03744Y03159*
X03744Y03156*
X03744Y03153*
X03744Y0315*
X03745Y03147*
X03746Y03144*
X03747Y03141*
X03749Y03138*
X0375Y03136*
X03752Y03133*
X03754Y03131*
X03756Y03129*
X03759Y03127*
X03761Y03125*
X03764Y03124*
X03767Y03123*
X0377Y03122*
X03773Y03121*
X03776Y03121*
X03779Y03121*
X03782Y03121*
X03785Y03121*
X03788Y03122*
X03791Y03123*
X03794Y03124*
X03797Y03125*
X03799Y03127*
X03802Y03129*
X03804Y03131*
X03806Y03133*
X03808Y03136*
X03809Y03138*
X03811Y03141*
X03812Y03144*
X03813Y03147*
X03814Y0315*
X03814Y03153*
X03814Y03156*
X03814Y03159*
X03814Y03162*
X03813Y03165*
X03812Y03168*
X03811Y03171*
X03809Y03173*
X03808Y03176*
X03806Y03178*
X03804Y03181*
X03802Y03183*
X03799Y03185*
X03797Y03186*
X03794Y03188*
X03791Y03189*
X03788Y0319*
X03785Y0319*
X03782Y03191*
X03779Y03191*
G37*
G36*
X03679D02*
X03676Y03191D01*
X03673Y0319*
X0367Y0319*
X03667Y03189*
X03664Y03188*
X03661Y03186*
X03659Y03185*
X03656Y03183*
X03654Y03181*
X03652Y03178*
X0365Y03176*
X03649Y03173*
X03647Y03171*
X03646Y03168*
X03645Y03165*
X03644Y03162*
X03644Y03159*
X03644Y03156*
X03644Y03153*
X03644Y0315*
X03645Y03147*
X03646Y03144*
X03647Y03141*
X03649Y03138*
X0365Y03136*
X03652Y03133*
X03654Y03131*
X03656Y03129*
X03659Y03127*
X03661Y03125*
X03664Y03124*
X03667Y03123*
X0367Y03122*
X03673Y03121*
X03676Y03121*
X03679Y03121*
X03682Y03121*
X03685Y03121*
X03688Y03122*
X03691Y03123*
X03694Y03124*
X03697Y03125*
X03699Y03127*
X03702Y03129*
X03704Y03131*
X03706Y03133*
X03708Y03136*
X03709Y03138*
X03711Y03141*
X03712Y03144*
X03713Y03147*
X03714Y0315*
X03714Y03153*
X03714Y03156*
X03714Y03159*
X03714Y03162*
X03713Y03165*
X03712Y03168*
X03711Y03171*
X03709Y03173*
X03708Y03176*
X03706Y03178*
X03704Y03181*
X03702Y03183*
X03699Y03185*
X03697Y03186*
X03694Y03188*
X03691Y03189*
X03688Y0319*
X03685Y0319*
X03682Y03191*
X03679Y03191*
G37*
G36*
X03779Y03091D02*
X03776Y03091D01*
X03773Y0309*
X0377Y0309*
X03767Y03089*
X03764Y03088*
X03761Y03086*
X03759Y03085*
X03756Y03083*
X03754Y03081*
X03752Y03078*
X0375Y03076*
X03749Y03073*
X03747Y03071*
X03746Y03068*
X03745Y03065*
X03744Y03062*
X03744Y03059*
X03744Y03056*
X03744Y03053*
X03744Y0305*
X03745Y03047*
X03746Y03044*
X03747Y03041*
X03749Y03038*
X0375Y03036*
X03752Y03033*
X03754Y03031*
X03756Y03029*
X03759Y03027*
X03761Y03025*
X03764Y03024*
X03767Y03023*
X0377Y03022*
X03773Y03021*
X03776Y03021*
X03779Y03021*
X03782Y03021*
X03785Y03021*
X03788Y03022*
X03791Y03023*
X03794Y03024*
X03797Y03025*
X03799Y03027*
X03802Y03029*
X03804Y03031*
X03806Y03033*
X03808Y03036*
X03809Y03038*
X03811Y03041*
X03812Y03044*
X03813Y03047*
X03814Y0305*
X03814Y03053*
X03814Y03056*
X03814Y03059*
X03814Y03062*
X03813Y03065*
X03812Y03068*
X03811Y03071*
X03809Y03073*
X03808Y03076*
X03806Y03078*
X03804Y03081*
X03802Y03083*
X03799Y03085*
X03797Y03086*
X03794Y03088*
X03791Y03089*
X03788Y0309*
X03785Y0309*
X03782Y03091*
X03779Y03091*
G37*
G36*
X03679D02*
X03676Y03091D01*
X03673Y0309*
X0367Y0309*
X03667Y03089*
X03664Y03088*
X03661Y03086*
X03659Y03085*
X03656Y03083*
X03654Y03081*
X03652Y03078*
X0365Y03076*
X03649Y03073*
X03647Y03071*
X03646Y03068*
X03645Y03065*
X03644Y03062*
X03644Y03059*
X03644Y03056*
X03644Y03053*
X03644Y0305*
X03645Y03047*
X03646Y03044*
X03647Y03041*
X03649Y03038*
X0365Y03036*
X03652Y03033*
X03654Y03031*
X03656Y03029*
X03659Y03027*
X03661Y03025*
X03664Y03024*
X03667Y03023*
X0367Y03022*
X03673Y03021*
X03676Y03021*
X03679Y03021*
X03682Y03021*
X03685Y03021*
X03688Y03022*
X03691Y03023*
X03694Y03024*
X03697Y03025*
X03699Y03027*
X03702Y03029*
X03704Y03031*
X03706Y03033*
X03708Y03036*
X03709Y03038*
X03711Y03041*
X03712Y03044*
X03713Y03047*
X03714Y0305*
X03714Y03053*
X03714Y03056*
X03714Y03059*
X03714Y03062*
X03713Y03065*
X03712Y03068*
X03711Y03071*
X03709Y03073*
X03708Y03076*
X03706Y03078*
X03704Y03081*
X03702Y03083*
X03699Y03085*
X03697Y03086*
X03694Y03088*
X03691Y03089*
X03688Y0309*
X03685Y0309*
X03682Y03091*
X03679Y03091*
G37*
G36*
X03779Y02991D02*
X03776Y02991D01*
X03773Y0299*
X0377Y0299*
X03767Y02989*
X03764Y02988*
X03761Y02986*
X03759Y02985*
X03756Y02983*
X03754Y02981*
X03752Y02978*
X0375Y02976*
X03749Y02973*
X03747Y02971*
X03746Y02968*
X03745Y02965*
X03744Y02962*
X03744Y02959*
X03744Y02956*
X03744Y02953*
X03744Y0295*
X03745Y02947*
X03746Y02944*
X03747Y02941*
X03749Y02938*
X0375Y02936*
X03752Y02933*
X03754Y02931*
X03756Y02929*
X03759Y02927*
X03761Y02925*
X03764Y02924*
X03767Y02923*
X0377Y02922*
X03773Y02921*
X03776Y02921*
X03779Y02921*
X03782Y02921*
X03785Y02921*
X03788Y02922*
X03791Y02923*
X03794Y02924*
X03797Y02925*
X03799Y02927*
X03802Y02929*
X03804Y02931*
X03806Y02933*
X03808Y02936*
X03809Y02938*
X03811Y02941*
X03812Y02944*
X03813Y02947*
X03814Y0295*
X03814Y02953*
X03814Y02956*
X03814Y02959*
X03814Y02962*
X03813Y02965*
X03812Y02968*
X03811Y02971*
X03809Y02973*
X03808Y02976*
X03806Y02978*
X03804Y02981*
X03802Y02983*
X03799Y02985*
X03797Y02986*
X03794Y02988*
X03791Y02989*
X03788Y0299*
X03785Y0299*
X03782Y02991*
X03779Y02991*
G37*
G36*
X03679D02*
X03676Y02991D01*
X03673Y0299*
X0367Y0299*
X03667Y02989*
X03664Y02988*
X03661Y02986*
X03659Y02985*
X03656Y02983*
X03654Y02981*
X03652Y02978*
X0365Y02976*
X03649Y02973*
X03647Y02971*
X03646Y02968*
X03645Y02965*
X03644Y02962*
X03644Y02959*
X03644Y02956*
X03644Y02953*
X03644Y0295*
X03645Y02947*
X03646Y02944*
X03647Y02941*
X03649Y02938*
X0365Y02936*
X03652Y02933*
X03654Y02931*
X03656Y02929*
X03659Y02927*
X03661Y02925*
X03664Y02924*
X03667Y02923*
X0367Y02922*
X03673Y02921*
X03676Y02921*
X03679Y02921*
X03682Y02921*
X03685Y02921*
X03688Y02922*
X03691Y02923*
X03694Y02924*
X03697Y02925*
X03699Y02927*
X03702Y02929*
X03704Y02931*
X03706Y02933*
X03708Y02936*
X03709Y02938*
X03711Y02941*
X03712Y02944*
X03713Y02947*
X03714Y0295*
X03714Y02953*
X03714Y02956*
X03714Y02959*
X03714Y02962*
X03713Y02965*
X03712Y02968*
X03711Y02971*
X03709Y02973*
X03708Y02976*
X03706Y02978*
X03704Y02981*
X03702Y02983*
X03699Y02985*
X03697Y02986*
X03694Y02988*
X03691Y02989*
X03688Y0299*
X03685Y0299*
X03682Y02991*
X03679Y02991*
G37*
G36*
X04535Y02889D02*
X04472D01*
Y02826*
X04535*
Y02889*
G37*
G36*
X04703Y02889D02*
X047Y02889D01*
X04697Y02889*
X04694Y02888*
X04691Y02887*
X04689Y02886*
X04686Y02884*
X04683Y02882*
X04681Y0288*
X04679Y02878*
X04677Y02875*
X04676Y02873*
X04674Y0287*
X04673Y02867*
X04672Y02864*
X04672Y02861*
X04672Y02858*
X04672Y02855*
X04672Y02852*
X04673Y02849*
X04674Y02846*
X04676Y02843*
X04677Y0284*
X04679Y02838*
X04681Y02835*
X04683Y02833*
X04686Y02831*
X04689Y0283*
X04691Y02829*
X04694Y02828*
X04697Y02827*
X047Y02826*
X04703Y02826*
X04707Y02826*
X0471Y02827*
X04713Y02828*
X04716Y02829*
X04718Y0283*
X04721Y02831*
X04723Y02833*
X04726Y02835*
X04728Y02838*
X0473Y0284*
X04731Y02843*
X04733Y02846*
X04734Y02849*
X04734Y02852*
X04735Y02855*
X04735Y02858*
X04735Y02861*
X04734Y02864*
X04734Y02867*
X04733Y0287*
X04731Y02873*
X0473Y02875*
X04728Y02878*
X04726Y0288*
X04723Y02882*
X04721Y02884*
X04718Y02886*
X04716Y02887*
X04713Y02888*
X0471Y02889*
X04707Y02889*
X04703Y02889*
G37*
G36*
X04603D02*
X046Y02889D01*
X04597Y02889*
X04594Y02888*
X04591Y02887*
X04589Y02886*
X04586Y02884*
X04583Y02882*
X04581Y0288*
X04579Y02878*
X04577Y02875*
X04576Y02873*
X04574Y0287*
X04573Y02867*
X04572Y02864*
X04572Y02861*
X04572Y02858*
X04572Y02855*
X04572Y02852*
X04573Y02849*
X04574Y02846*
X04576Y02843*
X04577Y0284*
X04579Y02838*
X04581Y02835*
X04583Y02833*
X04586Y02831*
X04589Y0283*
X04591Y02829*
X04594Y02828*
X04597Y02827*
X046Y02826*
X04603Y02826*
X04607Y02826*
X0461Y02827*
X04613Y02828*
X04616Y02829*
X04618Y0283*
X04621Y02831*
X04623Y02833*
X04626Y02835*
X04628Y02838*
X0463Y0284*
X04631Y02843*
X04633Y02846*
X04634Y02849*
X04634Y02852*
X04635Y02855*
X04635Y02858*
X04635Y02861*
X04634Y02864*
X04634Y02867*
X04633Y0287*
X04631Y02873*
X0463Y02875*
X04628Y02878*
X04626Y0288*
X04623Y02882*
X04621Y02884*
X04618Y02886*
X04616Y02887*
X04613Y02888*
X0461Y02889*
X04607Y02889*
X04603Y02889*
G37*
G36*
X03779Y02891D02*
X03776Y02891D01*
X03773Y0289*
X0377Y0289*
X03767Y02889*
X03764Y02888*
X03761Y02886*
X03759Y02885*
X03756Y02883*
X03754Y02881*
X03752Y02878*
X0375Y02876*
X03749Y02873*
X03747Y02871*
X03746Y02868*
X03745Y02865*
X03744Y02862*
X03744Y02859*
X03744Y02856*
X03744Y02853*
X03744Y0285*
X03745Y02847*
X03746Y02844*
X03747Y02841*
X03749Y02838*
X0375Y02836*
X03752Y02833*
X03754Y02831*
X03756Y02829*
X03759Y02827*
X03761Y02825*
X03764Y02824*
X03767Y02823*
X0377Y02822*
X03773Y02821*
X03776Y02821*
X03779Y02821*
X03782Y02821*
X03785Y02821*
X03788Y02822*
X03791Y02823*
X03794Y02824*
X03797Y02825*
X03799Y02827*
X03802Y02829*
X03804Y02831*
X03806Y02833*
X03808Y02836*
X03809Y02838*
X03811Y02841*
X03812Y02844*
X03813Y02847*
X03814Y0285*
X03814Y02853*
X03814Y02856*
X03814Y02859*
X03814Y02862*
X03813Y02865*
X03812Y02868*
X03811Y02871*
X03809Y02873*
X03808Y02876*
X03806Y02878*
X03804Y02881*
X03802Y02883*
X03799Y02885*
X03797Y02886*
X03794Y02888*
X03791Y02889*
X03788Y0289*
X03785Y0289*
X03782Y02891*
X03779Y02891*
G37*
G36*
X03679D02*
X03676Y02891D01*
X03673Y0289*
X0367Y0289*
X03667Y02889*
X03664Y02888*
X03661Y02886*
X03659Y02885*
X03656Y02883*
X03654Y02881*
X03652Y02878*
X0365Y02876*
X03649Y02873*
X03647Y02871*
X03646Y02868*
X03645Y02865*
X03644Y02862*
X03644Y02859*
X03644Y02856*
X03644Y02853*
X03644Y0285*
X03645Y02847*
X03646Y02844*
X03647Y02841*
X03649Y02838*
X0365Y02836*
X03652Y02833*
X03654Y02831*
X03656Y02829*
X03659Y02827*
X03661Y02825*
X03664Y02824*
X03667Y02823*
X0367Y02822*
X03673Y02821*
X03676Y02821*
X03679Y02821*
X03682Y02821*
X03685Y02821*
X03688Y02822*
X03691Y02823*
X03694Y02824*
X03697Y02825*
X03699Y02827*
X03702Y02829*
X03704Y02831*
X03706Y02833*
X03708Y02836*
X03709Y02838*
X03711Y02841*
X03712Y02844*
X03713Y02847*
X03714Y0285*
X03714Y02853*
X03714Y02856*
X03714Y02859*
X03714Y02862*
X03713Y02865*
X03712Y02868*
X03711Y02871*
X03709Y02873*
X03708Y02876*
X03706Y02878*
X03704Y02881*
X03702Y02883*
X03699Y02885*
X03697Y02886*
X03694Y02888*
X03691Y02889*
X03688Y0289*
X03685Y0289*
X03682Y02891*
X03679Y02891*
G37*
G36*
X04925Y02894D02*
X04921Y02894D01*
X04918Y02894*
X04915Y02893*
X04911Y02892*
X04908Y02891*
X04905Y02889*
X04902Y02887*
X049Y02885*
X04897Y02883*
X04895Y0288*
X04893Y02878*
X04891Y02875*
X04889Y02872*
X04888Y02869*
X04887Y02866*
X04886Y02862*
X04886Y02859*
X04886Y02855*
X04886Y02852*
X04886Y02849*
X04887Y02845*
X04888Y02842*
X04889Y02839*
X04891Y02836*
X04893Y02833*
X04895Y0283*
X04897Y02828*
X049Y02826*
X04902Y02823*
X04905Y02822*
X04908Y0282*
X04911Y02819*
X04915Y02818*
X04918Y02817*
X04921Y02817*
X04925Y02816*
X04928Y02817*
X04931Y02817*
X04935Y02818*
X04938Y02819*
X04941Y0282*
X04944Y02822*
X04947Y02823*
X0495Y02826*
X04952Y02828*
X04955Y0283*
X04957Y02833*
X04958Y02836*
X0496Y02839*
X04961Y02842*
X04962Y02845*
X04963Y02849*
X04964Y02852*
X04964Y02855*
X04964Y02859*
X04963Y02862*
X04962Y02866*
X04961Y02869*
X0496Y02872*
X04958Y02875*
X04957Y02878*
X04955Y0288*
X04952Y02883*
X0495Y02885*
X04947Y02887*
X04944Y02889*
X04941Y02891*
X04938Y02892*
X04935Y02893*
X04931Y02894*
X04928Y02894*
X04925Y02894*
G37*
G36*
X04825D02*
X04821Y02894D01*
X04818Y02894*
X04815Y02893*
X04811Y02892*
X04808Y02891*
X04805Y02889*
X04802Y02887*
X048Y02885*
X04797Y02883*
X04795Y0288*
X04793Y02878*
X04791Y02875*
X04789Y02872*
X04788Y02869*
X04787Y02866*
X04786Y02862*
X04786Y02859*
X04786Y02855*
X04786Y02852*
X04786Y02849*
X04787Y02845*
X04788Y02842*
X04789Y02839*
X04791Y02836*
X04793Y02833*
X04795Y0283*
X04797Y02828*
X048Y02826*
X04802Y02823*
X04805Y02822*
X04808Y0282*
X04811Y02819*
X04815Y02818*
X04818Y02817*
X04821Y02817*
X04825Y02816*
X04828Y02817*
X04831Y02817*
X04835Y02818*
X04838Y02819*
X04841Y0282*
X04844Y02822*
X04847Y02823*
X0485Y02826*
X04852Y02828*
X04855Y0283*
X04857Y02833*
X04858Y02836*
X0486Y02839*
X04861Y02842*
X04862Y02845*
X04863Y02849*
X04864Y02852*
X04864Y02855*
X04864Y02859*
X04863Y02862*
X04862Y02866*
X04861Y02869*
X0486Y02872*
X04858Y02875*
X04857Y02878*
X04855Y0288*
X04852Y02883*
X0485Y02885*
X04847Y02887*
X04844Y02889*
X04841Y02891*
X04838Y02892*
X04835Y02893*
X04831Y02894*
X04828Y02894*
X04825Y02894*
G37*
G36*
X03779Y02791D02*
X03776Y02791D01*
X03773Y0279*
X0377Y0279*
X03767Y02789*
X03764Y02788*
X03761Y02786*
X03759Y02785*
X03756Y02783*
X03754Y02781*
X03752Y02778*
X0375Y02776*
X03749Y02773*
X03747Y02771*
X03746Y02768*
X03745Y02765*
X03744Y02762*
X03744Y02759*
X03744Y02756*
X03744Y02753*
X03744Y0275*
X03745Y02747*
X03746Y02744*
X03747Y02741*
X03749Y02738*
X0375Y02736*
X03752Y02733*
X03754Y02731*
X03756Y02729*
X03759Y02727*
X03761Y02725*
X03764Y02724*
X03767Y02723*
X0377Y02722*
X03773Y02721*
X03776Y02721*
X03779Y02721*
X03782Y02721*
X03785Y02721*
X03788Y02722*
X03791Y02723*
X03794Y02724*
X03797Y02725*
X03799Y02727*
X03802Y02729*
X03804Y02731*
X03806Y02733*
X03808Y02736*
X03809Y02738*
X03811Y02741*
X03812Y02744*
X03813Y02747*
X03814Y0275*
X03814Y02753*
X03814Y02756*
X03814Y02759*
X03814Y02762*
X03813Y02765*
X03812Y02768*
X03811Y02771*
X03809Y02773*
X03808Y02776*
X03806Y02778*
X03804Y02781*
X03802Y02783*
X03799Y02785*
X03797Y02786*
X03794Y02788*
X03791Y02789*
X03788Y0279*
X03785Y0279*
X03782Y02791*
X03779Y02791*
G37*
G36*
X03679D02*
X03676Y02791D01*
X03673Y0279*
X0367Y0279*
X03667Y02789*
X03664Y02788*
X03661Y02786*
X03659Y02785*
X03656Y02783*
X03654Y02781*
X03652Y02778*
X0365Y02776*
X03649Y02773*
X03647Y02771*
X03646Y02768*
X03645Y02765*
X03644Y02762*
X03644Y02759*
X03644Y02756*
X03644Y02753*
X03644Y0275*
X03645Y02747*
X03646Y02744*
X03647Y02741*
X03649Y02738*
X0365Y02736*
X03652Y02733*
X03654Y02731*
X03656Y02729*
X03659Y02727*
X03661Y02725*
X03664Y02724*
X03667Y02723*
X0367Y02722*
X03673Y02721*
X03676Y02721*
X03679Y02721*
X03682Y02721*
X03685Y02721*
X03688Y02722*
X03691Y02723*
X03694Y02724*
X03697Y02725*
X03699Y02727*
X03702Y02729*
X03704Y02731*
X03706Y02733*
X03708Y02736*
X03709Y02738*
X03711Y02741*
X03712Y02744*
X03713Y02747*
X03714Y0275*
X03714Y02753*
X03714Y02756*
X03714Y02759*
X03714Y02762*
X03713Y02765*
X03712Y02768*
X03711Y02771*
X03709Y02773*
X03708Y02776*
X03706Y02778*
X03704Y02781*
X03702Y02783*
X03699Y02785*
X03697Y02786*
X03694Y02788*
X03691Y02789*
X03688Y0279*
X03685Y0279*
X03682Y02791*
X03679Y02791*
G37*
G36*
X04925Y02794D02*
X04921Y02794D01*
X04918Y02794*
X04915Y02793*
X04911Y02792*
X04908Y02791*
X04905Y02789*
X04902Y02787*
X049Y02785*
X04897Y02783*
X04895Y0278*
X04893Y02778*
X04891Y02775*
X04889Y02772*
X04888Y02769*
X04887Y02766*
X04886Y02762*
X04886Y02759*
X04886Y02755*
X04886Y02752*
X04886Y02749*
X04887Y02745*
X04888Y02742*
X04889Y02739*
X04891Y02736*
X04893Y02733*
X04895Y0273*
X04897Y02728*
X049Y02726*
X04902Y02723*
X04905Y02722*
X04908Y0272*
X04911Y02719*
X04915Y02718*
X04918Y02717*
X04921Y02717*
X04925Y02716*
X04928Y02717*
X04931Y02717*
X04935Y02718*
X04938Y02719*
X04941Y0272*
X04944Y02722*
X04947Y02723*
X0495Y02726*
X04952Y02728*
X04955Y0273*
X04957Y02733*
X04958Y02736*
X0496Y02739*
X04961Y02742*
X04962Y02745*
X04963Y02749*
X04964Y02752*
X04964Y02755*
X04964Y02759*
X04963Y02762*
X04962Y02766*
X04961Y02769*
X0496Y02772*
X04958Y02775*
X04957Y02778*
X04955Y0278*
X04952Y02783*
X0495Y02785*
X04947Y02787*
X04944Y02789*
X04941Y02791*
X04938Y02792*
X04935Y02793*
X04931Y02794*
X04928Y02794*
X04925Y02794*
G37*
G36*
X04825D02*
X04821Y02794D01*
X04818Y02794*
X04815Y02793*
X04811Y02792*
X04808Y02791*
X04805Y02789*
X04802Y02787*
X048Y02785*
X04797Y02783*
X04795Y0278*
X04793Y02778*
X04791Y02775*
X04789Y02772*
X04788Y02769*
X04787Y02766*
X04786Y02762*
X04786Y02759*
X04786Y02755*
X04786Y02752*
X04786Y02749*
X04787Y02745*
X04788Y02742*
X04789Y02739*
X04791Y02736*
X04793Y02733*
X04795Y0273*
X04797Y02728*
X048Y02726*
X04802Y02723*
X04805Y02722*
X04808Y0272*
X04811Y02719*
X04815Y02718*
X04818Y02717*
X04821Y02717*
X04825Y02716*
X04828Y02717*
X04831Y02717*
X04835Y02718*
X04838Y02719*
X04841Y0272*
X04844Y02722*
X04847Y02723*
X0485Y02726*
X04852Y02728*
X04855Y0273*
X04857Y02733*
X04858Y02736*
X0486Y02739*
X04861Y02742*
X04862Y02745*
X04863Y02749*
X04864Y02752*
X04864Y02755*
X04864Y02759*
X04863Y02762*
X04862Y02766*
X04861Y02769*
X0486Y02772*
X04858Y02775*
X04857Y02778*
X04855Y0278*
X04852Y02783*
X0485Y02785*
X04847Y02787*
X04844Y02789*
X04841Y02791*
X04838Y02792*
X04835Y02793*
X04831Y02794*
X04828Y02794*
X04825Y02794*
G37*
G36*
X03779Y02691D02*
X03776Y02691D01*
X03773Y0269*
X0377Y0269*
X03767Y02689*
X03764Y02688*
X03761Y02686*
X03759Y02685*
X03756Y02683*
X03754Y02681*
X03752Y02678*
X0375Y02676*
X03749Y02673*
X03747Y02671*
X03746Y02668*
X03745Y02665*
X03744Y02662*
X03744Y02659*
X03744Y02656*
X03744Y02653*
X03744Y0265*
X03745Y02647*
X03746Y02644*
X03747Y02641*
X03749Y02638*
X0375Y02636*
X03752Y02633*
X03754Y02631*
X03756Y02629*
X03759Y02627*
X03761Y02625*
X03764Y02624*
X03767Y02623*
X0377Y02622*
X03773Y02621*
X03776Y02621*
X03779Y02621*
X03782Y02621*
X03785Y02621*
X03788Y02622*
X03791Y02623*
X03794Y02624*
X03797Y02625*
X03799Y02627*
X03802Y02629*
X03804Y02631*
X03806Y02633*
X03808Y02636*
X03809Y02638*
X03811Y02641*
X03812Y02644*
X03813Y02647*
X03814Y0265*
X03814Y02653*
X03814Y02656*
X03814Y02659*
X03814Y02662*
X03813Y02665*
X03812Y02668*
X03811Y02671*
X03809Y02673*
X03808Y02676*
X03806Y02678*
X03804Y02681*
X03802Y02683*
X03799Y02685*
X03797Y02686*
X03794Y02688*
X03791Y02689*
X03788Y0269*
X03785Y0269*
X03782Y02691*
X03779Y02691*
G37*
G36*
X03679D02*
X03676Y02691D01*
X03673Y0269*
X0367Y0269*
X03667Y02689*
X03664Y02688*
X03661Y02686*
X03659Y02685*
X03656Y02683*
X03654Y02681*
X03652Y02678*
X0365Y02676*
X03649Y02673*
X03647Y02671*
X03646Y02668*
X03645Y02665*
X03644Y02662*
X03644Y02659*
X03644Y02656*
X03644Y02653*
X03644Y0265*
X03645Y02647*
X03646Y02644*
X03647Y02641*
X03649Y02638*
X0365Y02636*
X03652Y02633*
X03654Y02631*
X03656Y02629*
X03659Y02627*
X03661Y02625*
X03664Y02624*
X03667Y02623*
X0367Y02622*
X03673Y02621*
X03676Y02621*
X03679Y02621*
X03682Y02621*
X03685Y02621*
X03688Y02622*
X03691Y02623*
X03694Y02624*
X03697Y02625*
X03699Y02627*
X03702Y02629*
X03704Y02631*
X03706Y02633*
X03708Y02636*
X03709Y02638*
X03711Y02641*
X03712Y02644*
X03713Y02647*
X03714Y0265*
X03714Y02653*
X03714Y02656*
X03714Y02659*
X03714Y02662*
X03713Y02665*
X03712Y02668*
X03711Y02671*
X03709Y02673*
X03708Y02676*
X03706Y02678*
X03704Y02681*
X03702Y02683*
X03699Y02685*
X03697Y02686*
X03694Y02688*
X03691Y02689*
X03688Y0269*
X03685Y0269*
X03682Y02691*
X03679Y02691*
G37*
G36*
X04925Y02694D02*
X04921Y02694D01*
X04918Y02694*
X04915Y02693*
X04911Y02692*
X04908Y02691*
X04905Y02689*
X04902Y02687*
X049Y02685*
X04897Y02683*
X04895Y0268*
X04893Y02678*
X04891Y02675*
X04889Y02672*
X04888Y02669*
X04887Y02666*
X04886Y02662*
X04886Y02659*
X04886Y02655*
X04886Y02652*
X04886Y02649*
X04887Y02645*
X04888Y02642*
X04889Y02639*
X04891Y02636*
X04893Y02633*
X04895Y0263*
X04897Y02628*
X049Y02626*
X04902Y02623*
X04905Y02622*
X04908Y0262*
X04911Y02619*
X04915Y02618*
X04918Y02617*
X04921Y02617*
X04925Y02616*
X04928Y02617*
X04931Y02617*
X04935Y02618*
X04938Y02619*
X04941Y0262*
X04944Y02622*
X04947Y02623*
X0495Y02626*
X04952Y02628*
X04955Y0263*
X04957Y02633*
X04958Y02636*
X0496Y02639*
X04961Y02642*
X04962Y02645*
X04963Y02649*
X04964Y02652*
X04964Y02655*
X04964Y02659*
X04963Y02662*
X04962Y02666*
X04961Y02669*
X0496Y02672*
X04958Y02675*
X04957Y02678*
X04955Y0268*
X04952Y02683*
X0495Y02685*
X04947Y02687*
X04944Y02689*
X04941Y02691*
X04938Y02692*
X04935Y02693*
X04931Y02694*
X04928Y02694*
X04925Y02694*
G37*
G36*
X04825D02*
X04821Y02694D01*
X04818Y02694*
X04815Y02693*
X04811Y02692*
X04808Y02691*
X04805Y02689*
X04802Y02687*
X048Y02685*
X04797Y02683*
X04795Y0268*
X04793Y02678*
X04791Y02675*
X04789Y02672*
X04788Y02669*
X04787Y02666*
X04786Y02662*
X04786Y02659*
X04786Y02655*
X04786Y02652*
X04786Y02649*
X04787Y02645*
X04788Y02642*
X04789Y02639*
X04791Y02636*
X04793Y02633*
X04795Y0263*
X04797Y02628*
X048Y02626*
X04802Y02623*
X04805Y02622*
X04808Y0262*
X04811Y02619*
X04815Y02618*
X04818Y02617*
X04821Y02617*
X04825Y02616*
X04828Y02617*
X04831Y02617*
X04835Y02618*
X04838Y02619*
X04841Y0262*
X04844Y02622*
X04847Y02623*
X0485Y02626*
X04852Y02628*
X04855Y0263*
X04857Y02633*
X04858Y02636*
X0486Y02639*
X04861Y02642*
X04862Y02645*
X04863Y02649*
X04864Y02652*
X04864Y02655*
X04864Y02659*
X04863Y02662*
X04862Y02666*
X04861Y02669*
X0486Y02672*
X04858Y02675*
X04857Y02678*
X04855Y0268*
X04852Y02683*
X0485Y02685*
X04847Y02687*
X04844Y02689*
X04841Y02691*
X04838Y02692*
X04835Y02693*
X04831Y02694*
X04828Y02694*
X04825Y02694*
G37*
G36*
X03779Y02591D02*
X03776Y02591D01*
X03773Y0259*
X0377Y0259*
X03767Y02589*
X03764Y02588*
X03761Y02586*
X03759Y02585*
X03756Y02583*
X03754Y02581*
X03752Y02578*
X0375Y02576*
X03749Y02573*
X03747Y02571*
X03746Y02568*
X03745Y02565*
X03744Y02562*
X03744Y02559*
X03744Y02556*
X03744Y02553*
X03744Y0255*
X03745Y02547*
X03746Y02544*
X03747Y02541*
X03749Y02538*
X0375Y02536*
X03752Y02533*
X03754Y02531*
X03756Y02529*
X03759Y02527*
X03761Y02525*
X03764Y02524*
X03767Y02523*
X0377Y02522*
X03773Y02521*
X03776Y02521*
X03779Y02521*
X03782Y02521*
X03785Y02521*
X03788Y02522*
X03791Y02523*
X03794Y02524*
X03797Y02525*
X03799Y02527*
X03802Y02529*
X03804Y02531*
X03806Y02533*
X03808Y02536*
X03809Y02538*
X03811Y02541*
X03812Y02544*
X03813Y02547*
X03814Y0255*
X03814Y02553*
X03814Y02556*
X03814Y02559*
X03814Y02562*
X03813Y02565*
X03812Y02568*
X03811Y02571*
X03809Y02573*
X03808Y02576*
X03806Y02578*
X03804Y02581*
X03802Y02583*
X03799Y02585*
X03797Y02586*
X03794Y02588*
X03791Y02589*
X03788Y0259*
X03785Y0259*
X03782Y02591*
X03779Y02591*
G37*
G36*
X03679D02*
X03676Y02591D01*
X03673Y0259*
X0367Y0259*
X03667Y02589*
X03664Y02588*
X03661Y02586*
X03659Y02585*
X03656Y02583*
X03654Y02581*
X03652Y02578*
X0365Y02576*
X03649Y02573*
X03647Y02571*
X03646Y02568*
X03645Y02565*
X03644Y02562*
X03644Y02559*
X03644Y02556*
X03644Y02553*
X03644Y0255*
X03645Y02547*
X03646Y02544*
X03647Y02541*
X03649Y02538*
X0365Y02536*
X03652Y02533*
X03654Y02531*
X03656Y02529*
X03659Y02527*
X03661Y02525*
X03664Y02524*
X03667Y02523*
X0367Y02522*
X03673Y02521*
X03676Y02521*
X03679Y02521*
X03682Y02521*
X03685Y02521*
X03688Y02522*
X03691Y02523*
X03694Y02524*
X03697Y02525*
X03699Y02527*
X03702Y02529*
X03704Y02531*
X03706Y02533*
X03708Y02536*
X03709Y02538*
X03711Y02541*
X03712Y02544*
X03713Y02547*
X03714Y0255*
X03714Y02553*
X03714Y02556*
X03714Y02559*
X03714Y02562*
X03713Y02565*
X03712Y02568*
X03711Y02571*
X03709Y02573*
X03708Y02576*
X03706Y02578*
X03704Y02581*
X03702Y02583*
X03699Y02585*
X03697Y02586*
X03694Y02588*
X03691Y02589*
X03688Y0259*
X03685Y0259*
X03682Y02591*
X03679Y02591*
G37*
G36*
X04964Y02594D02*
X04886D01*
Y02516*
X04964*
Y02594*
G37*
G36*
X04825Y02594D02*
X04821Y02594D01*
X04818Y02594*
X04815Y02593*
X04811Y02592*
X04808Y02591*
X04805Y02589*
X04802Y02587*
X048Y02585*
X04797Y02583*
X04795Y0258*
X04793Y02578*
X04791Y02575*
X04789Y02572*
X04788Y02569*
X04787Y02566*
X04786Y02562*
X04786Y02559*
X04786Y02555*
X04786Y02552*
X04786Y02549*
X04787Y02545*
X04788Y02542*
X04789Y02539*
X04791Y02536*
X04793Y02533*
X04795Y0253*
X04797Y02528*
X048Y02526*
X04802Y02523*
X04805Y02522*
X04808Y0252*
X04811Y02519*
X04815Y02518*
X04818Y02517*
X04821Y02517*
X04825Y02516*
X04828Y02517*
X04831Y02517*
X04835Y02518*
X04838Y02519*
X04841Y0252*
X04844Y02522*
X04847Y02523*
X0485Y02526*
X04852Y02528*
X04855Y0253*
X04857Y02533*
X04858Y02536*
X0486Y02539*
X04861Y02542*
X04862Y02545*
X04863Y02549*
X04864Y02552*
X04864Y02555*
X04864Y02559*
X04863Y02562*
X04862Y02566*
X04861Y02569*
X0486Y02572*
X04858Y02575*
X04857Y02578*
X04855Y0258*
X04852Y02583*
X0485Y02585*
X04847Y02587*
X04844Y02589*
X04841Y02591*
X04838Y02592*
X04835Y02593*
X04831Y02594*
X04828Y02594*
X04825Y02594*
G37*
G36*
X03779Y02491D02*
X03776Y02491D01*
X03773Y0249*
X0377Y0249*
X03767Y02489*
X03764Y02488*
X03761Y02486*
X03759Y02485*
X03756Y02483*
X03754Y02481*
X03752Y02478*
X0375Y02476*
X03749Y02473*
X03747Y02471*
X03746Y02468*
X03745Y02465*
X03744Y02462*
X03744Y02459*
X03744Y02456*
X03744Y02453*
X03744Y0245*
X03745Y02447*
X03746Y02444*
X03747Y02441*
X03749Y02438*
X0375Y02436*
X03752Y02433*
X03754Y02431*
X03756Y02429*
X03759Y02427*
X03761Y02425*
X03764Y02424*
X03767Y02423*
X0377Y02422*
X03773Y02421*
X03776Y02421*
X03779Y02421*
X03782Y02421*
X03785Y02421*
X03788Y02422*
X03791Y02423*
X03794Y02424*
X03797Y02425*
X03799Y02427*
X03802Y02429*
X03804Y02431*
X03806Y02433*
X03808Y02436*
X03809Y02438*
X03811Y02441*
X03812Y02444*
X03813Y02447*
X03814Y0245*
X03814Y02453*
X03814Y02456*
X03814Y02459*
X03814Y02462*
X03813Y02465*
X03812Y02468*
X03811Y02471*
X03809Y02473*
X03808Y02476*
X03806Y02478*
X03804Y02481*
X03802Y02483*
X03799Y02485*
X03797Y02486*
X03794Y02488*
X03791Y02489*
X03788Y0249*
X03785Y0249*
X03782Y02491*
X03779Y02491*
G37*
G36*
Y02291D02*
X03776Y02291D01*
X03773Y0229*
X0377Y0229*
X03767Y02289*
X03764Y02288*
X03761Y02286*
X03759Y02285*
X03756Y02283*
X03754Y02281*
X03752Y02278*
X0375Y02276*
X03749Y02273*
X03747Y02271*
X03746Y02268*
X03745Y02265*
X03744Y02262*
X03744Y02259*
X03744Y02256*
X03744Y02253*
X03744Y0225*
X03745Y02247*
X03746Y02244*
X03747Y02241*
X03749Y02238*
X0375Y02236*
X03752Y02233*
X03754Y02231*
X03756Y02229*
X03759Y02227*
X03761Y02225*
X03764Y02224*
X03767Y02223*
X0377Y02222*
X03773Y02221*
X03776Y02221*
X03779Y02221*
X03782Y02221*
X03785Y02221*
X03788Y02222*
X03791Y02223*
X03794Y02224*
X03797Y02225*
X03799Y02227*
X03802Y02229*
X03804Y02231*
X03806Y02233*
X03808Y02236*
X03809Y02238*
X03811Y02241*
X03812Y02244*
X03813Y02247*
X03814Y0225*
X03814Y02253*
X03814Y02256*
X03814Y02259*
X03814Y02262*
X03813Y02265*
X03812Y02268*
X03811Y02271*
X03809Y02273*
X03808Y02276*
X03806Y02278*
X03804Y02281*
X03802Y02283*
X03799Y02285*
X03797Y02286*
X03794Y02288*
X03791Y02289*
X03788Y0229*
X03785Y0229*
X03782Y02291*
X03779Y02291*
G37*
G36*
X03679D02*
X03676Y02291D01*
X03673Y0229*
X0367Y0229*
X03667Y02289*
X03664Y02288*
X03661Y02286*
X03659Y02285*
X03656Y02283*
X03654Y02281*
X03652Y02278*
X0365Y02276*
X03649Y02273*
X03647Y02271*
X03646Y02268*
X03645Y02265*
X03644Y02262*
X03644Y02259*
X03644Y02256*
X03644Y02253*
X03644Y0225*
X03645Y02247*
X03646Y02244*
X03647Y02241*
X03649Y02238*
X0365Y02236*
X03652Y02233*
X03654Y02231*
X03656Y02229*
X03659Y02227*
X03661Y02225*
X03664Y02224*
X03667Y02223*
X0367Y02222*
X03673Y02221*
X03676Y02221*
X03679Y02221*
X03682Y02221*
X03685Y02221*
X03688Y02222*
X03691Y02223*
X03694Y02224*
X03697Y02225*
X03699Y02227*
X03702Y02229*
X03704Y02231*
X03706Y02233*
X03708Y02236*
X03709Y02238*
X03711Y02241*
X03712Y02244*
X03713Y02247*
X03714Y0225*
X03714Y02253*
X03714Y02256*
X03714Y02259*
X03714Y02262*
X03713Y02265*
X03712Y02268*
X03711Y02271*
X03709Y02273*
X03708Y02276*
X03706Y02278*
X03704Y02281*
X03702Y02283*
X03699Y02285*
X03697Y02286*
X03694Y02288*
X03691Y02289*
X03688Y0229*
X03685Y0229*
X03682Y02291*
X03679Y02291*
G37*
G36*
X03779Y02191D02*
X03776Y02191D01*
X03773Y0219*
X0377Y0219*
X03767Y02189*
X03764Y02188*
X03761Y02186*
X03759Y02185*
X03756Y02183*
X03754Y02181*
X03752Y02178*
X0375Y02176*
X03749Y02173*
X03747Y02171*
X03746Y02168*
X03745Y02165*
X03744Y02162*
X03744Y02159*
X03744Y02156*
X03744Y02153*
X03744Y0215*
X03745Y02147*
X03746Y02144*
X03747Y02141*
X03749Y02138*
X0375Y02136*
X03752Y02133*
X03754Y02131*
X03756Y02129*
X03759Y02127*
X03761Y02125*
X03764Y02124*
X03767Y02123*
X0377Y02122*
X03773Y02121*
X03776Y02121*
X03779Y02121*
X03782Y02121*
X03785Y02121*
X03788Y02122*
X03791Y02123*
X03794Y02124*
X03797Y02125*
X03799Y02127*
X03802Y02129*
X03804Y02131*
X03806Y02133*
X03808Y02136*
X03809Y02138*
X03811Y02141*
X03812Y02144*
X03813Y02147*
X03814Y0215*
X03814Y02153*
X03814Y02156*
X03814Y02159*
X03814Y02162*
X03813Y02165*
X03812Y02168*
X03811Y02171*
X03809Y02173*
X03808Y02176*
X03806Y02178*
X03804Y02181*
X03802Y02183*
X03799Y02185*
X03797Y02186*
X03794Y02188*
X03791Y02189*
X03788Y0219*
X03785Y0219*
X03782Y02191*
X03779Y02191*
G37*
G36*
X03679D02*
X03676Y02191D01*
X03673Y0219*
X0367Y0219*
X03667Y02189*
X03664Y02188*
X03661Y02186*
X03659Y02185*
X03656Y02183*
X03654Y02181*
X03652Y02178*
X0365Y02176*
X03649Y02173*
X03647Y02171*
X03646Y02168*
X03645Y02165*
X03644Y02162*
X03644Y02159*
X03644Y02156*
X03644Y02153*
X03644Y0215*
X03645Y02147*
X03646Y02144*
X03647Y02141*
X03649Y02138*
X0365Y02136*
X03652Y02133*
X03654Y02131*
X03656Y02129*
X03659Y02127*
X03661Y02125*
X03664Y02124*
X03667Y02123*
X0367Y02122*
X03673Y02121*
X03676Y02121*
X03679Y02121*
X03682Y02121*
X03685Y02121*
X03688Y02122*
X03691Y02123*
X03694Y02124*
X03697Y02125*
X03699Y02127*
X03702Y02129*
X03704Y02131*
X03706Y02133*
X03708Y02136*
X03709Y02138*
X03711Y02141*
X03712Y02144*
X03713Y02147*
X03714Y0215*
X03714Y02153*
X03714Y02156*
X03714Y02159*
X03714Y02162*
X03713Y02165*
X03712Y02168*
X03711Y02171*
X03709Y02173*
X03708Y02176*
X03706Y02178*
X03704Y02181*
X03702Y02183*
X03699Y02185*
X03697Y02186*
X03694Y02188*
X03691Y02189*
X03688Y0219*
X03685Y0219*
X03682Y02191*
X03679Y02191*
G37*
G36*
X03779Y02091D02*
X03776Y02091D01*
X03773Y0209*
X0377Y0209*
X03767Y02089*
X03764Y02088*
X03761Y02086*
X03759Y02085*
X03756Y02083*
X03754Y02081*
X03752Y02078*
X0375Y02076*
X03749Y02073*
X03747Y02071*
X03746Y02068*
X03745Y02065*
X03744Y02062*
X03744Y02059*
X03744Y02056*
X03744Y02053*
X03744Y0205*
X03745Y02047*
X03746Y02044*
X03747Y02041*
X03749Y02038*
X0375Y02036*
X03752Y02033*
X03754Y02031*
X03756Y02029*
X03759Y02027*
X03761Y02025*
X03764Y02024*
X03767Y02023*
X0377Y02022*
X03773Y02021*
X03776Y02021*
X03779Y02021*
X03782Y02021*
X03785Y02021*
X03788Y02022*
X03791Y02023*
X03794Y02024*
X03797Y02025*
X03799Y02027*
X03802Y02029*
X03804Y02031*
X03806Y02033*
X03808Y02036*
X03809Y02038*
X03811Y02041*
X03812Y02044*
X03813Y02047*
X03814Y0205*
X03814Y02053*
X03814Y02056*
X03814Y02059*
X03814Y02062*
X03813Y02065*
X03812Y02068*
X03811Y02071*
X03809Y02073*
X03808Y02076*
X03806Y02078*
X03804Y02081*
X03802Y02083*
X03799Y02085*
X03797Y02086*
X03794Y02088*
X03791Y02089*
X03788Y0209*
X03785Y0209*
X03782Y02091*
X03779Y02091*
G37*
G36*
X03679D02*
X03676Y02091D01*
X03673Y0209*
X0367Y0209*
X03667Y02089*
X03664Y02088*
X03661Y02086*
X03659Y02085*
X03656Y02083*
X03654Y02081*
X03652Y02078*
X0365Y02076*
X03649Y02073*
X03647Y02071*
X03646Y02068*
X03645Y02065*
X03644Y02062*
X03644Y02059*
X03644Y02056*
X03644Y02053*
X03644Y0205*
X03645Y02047*
X03646Y02044*
X03647Y02041*
X03649Y02038*
X0365Y02036*
X03652Y02033*
X03654Y02031*
X03656Y02029*
X03659Y02027*
X03661Y02025*
X03664Y02024*
X03667Y02023*
X0367Y02022*
X03673Y02021*
X03676Y02021*
X03679Y02021*
X03682Y02021*
X03685Y02021*
X03688Y02022*
X03691Y02023*
X03694Y02024*
X03697Y02025*
X03699Y02027*
X03702Y02029*
X03704Y02031*
X03706Y02033*
X03708Y02036*
X03709Y02038*
X03711Y02041*
X03712Y02044*
X03713Y02047*
X03714Y0205*
X03714Y02053*
X03714Y02056*
X03714Y02059*
X03714Y02062*
X03713Y02065*
X03712Y02068*
X03711Y02071*
X03709Y02073*
X03708Y02076*
X03706Y02078*
X03704Y02081*
X03702Y02083*
X03699Y02085*
X03697Y02086*
X03694Y02088*
X03691Y02089*
X03688Y0209*
X03685Y0209*
X03682Y02091*
X03679Y02091*
G37*
G36*
X01379D02*
X01376Y02091D01*
X01373Y0209*
X0137Y0209*
X01367Y02089*
X01364Y02088*
X01361Y02086*
X01359Y02085*
X01356Y02083*
X01354Y02081*
X01352Y02078*
X0135Y02076*
X01349Y02073*
X01347Y02071*
X01346Y02068*
X01345Y02065*
X01344Y02062*
X01344Y02059*
X01344Y02056*
X01344Y02053*
X01344Y0205*
X01345Y02047*
X01346Y02044*
X01347Y02041*
X01349Y02038*
X0135Y02036*
X01352Y02033*
X01354Y02031*
X01356Y02029*
X01359Y02027*
X01361Y02025*
X01364Y02024*
X01367Y02023*
X0137Y02022*
X01373Y02021*
X01376Y02021*
X01379Y02021*
X01382Y02021*
X01385Y02021*
X01388Y02022*
X01391Y02023*
X01394Y02024*
X01397Y02025*
X01399Y02027*
X01402Y02029*
X01404Y02031*
X01406Y02033*
X01408Y02036*
X01409Y02038*
X01411Y02041*
X01412Y02044*
X01413Y02047*
X01414Y0205*
X01414Y02053*
X01414Y02056*
X01414Y02059*
X01414Y02062*
X01413Y02065*
X01412Y02068*
X01411Y02071*
X01409Y02073*
X01408Y02076*
X01406Y02078*
X01404Y02081*
X01402Y02083*
X01399Y02085*
X01397Y02086*
X01394Y02088*
X01391Y02089*
X01388Y0209*
X01385Y0209*
X01382Y02091*
X01379Y02091*
G37*
G36*
X03779Y01991D02*
X03776Y01991D01*
X03773Y0199*
X0377Y0199*
X03767Y01989*
X03764Y01988*
X03761Y01986*
X03759Y01985*
X03756Y01983*
X03754Y01981*
X03752Y01978*
X0375Y01976*
X03749Y01973*
X03747Y01971*
X03746Y01968*
X03745Y01965*
X03744Y01962*
X03744Y01959*
X03744Y01956*
X03744Y01953*
X03744Y0195*
X03745Y01947*
X03746Y01944*
X03747Y01941*
X03749Y01938*
X0375Y01936*
X03752Y01933*
X03754Y01931*
X03756Y01929*
X03759Y01927*
X03761Y01925*
X03764Y01924*
X03767Y01923*
X0377Y01922*
X03773Y01921*
X03776Y01921*
X03779Y01921*
X03782Y01921*
X03785Y01921*
X03788Y01922*
X03791Y01923*
X03794Y01924*
X03797Y01925*
X03799Y01927*
X03802Y01929*
X03804Y01931*
X03806Y01933*
X03808Y01936*
X03809Y01938*
X03811Y01941*
X03812Y01944*
X03813Y01947*
X03814Y0195*
X03814Y01953*
X03814Y01956*
X03814Y01959*
X03814Y01962*
X03813Y01965*
X03812Y01968*
X03811Y01971*
X03809Y01973*
X03808Y01976*
X03806Y01978*
X03804Y01981*
X03802Y01983*
X03799Y01985*
X03797Y01986*
X03794Y01988*
X03791Y01989*
X03788Y0199*
X03785Y0199*
X03782Y01991*
X03779Y01991*
G37*
G36*
X03679D02*
X03676Y01991D01*
X03673Y0199*
X0367Y0199*
X03667Y01989*
X03664Y01988*
X03661Y01986*
X03659Y01985*
X03656Y01983*
X03654Y01981*
X03652Y01978*
X0365Y01976*
X03649Y01973*
X03647Y01971*
X03646Y01968*
X03645Y01965*
X03644Y01962*
X03644Y01959*
X03644Y01956*
X03644Y01953*
X03644Y0195*
X03645Y01947*
X03646Y01944*
X03647Y01941*
X03649Y01938*
X0365Y01936*
X03652Y01933*
X03654Y01931*
X03656Y01929*
X03659Y01927*
X03661Y01925*
X03664Y01924*
X03667Y01923*
X0367Y01922*
X03673Y01921*
X03676Y01921*
X03679Y01921*
X03682Y01921*
X03685Y01921*
X03688Y01922*
X03691Y01923*
X03694Y01924*
X03697Y01925*
X03699Y01927*
X03702Y01929*
X03704Y01931*
X03706Y01933*
X03708Y01936*
X03709Y01938*
X03711Y01941*
X03712Y01944*
X03713Y01947*
X03714Y0195*
X03714Y01953*
X03714Y01956*
X03714Y01959*
X03714Y01962*
X03713Y01965*
X03712Y01968*
X03711Y01971*
X03709Y01973*
X03708Y01976*
X03706Y01978*
X03704Y01981*
X03702Y01983*
X03699Y01985*
X03697Y01986*
X03694Y01988*
X03691Y01989*
X03688Y0199*
X03685Y0199*
X03682Y01991*
X03679Y01991*
G37*
G36*
X01379D02*
X01376Y01991D01*
X01373Y0199*
X0137Y0199*
X01367Y01989*
X01364Y01988*
X01361Y01986*
X01359Y01985*
X01356Y01983*
X01354Y01981*
X01352Y01978*
X0135Y01976*
X01349Y01973*
X01347Y01971*
X01346Y01968*
X01345Y01965*
X01344Y01962*
X01344Y01959*
X01344Y01956*
X01344Y01953*
X01344Y0195*
X01345Y01947*
X01346Y01944*
X01347Y01941*
X01349Y01938*
X0135Y01936*
X01352Y01933*
X01354Y01931*
X01356Y01929*
X01359Y01927*
X01361Y01925*
X01364Y01924*
X01367Y01923*
X0137Y01922*
X01373Y01921*
X01376Y01921*
X01379Y01921*
X01382Y01921*
X01385Y01921*
X01388Y01922*
X01391Y01923*
X01394Y01924*
X01397Y01925*
X01399Y01927*
X01402Y01929*
X01404Y01931*
X01406Y01933*
X01408Y01936*
X01409Y01938*
X01411Y01941*
X01412Y01944*
X01413Y01947*
X01414Y0195*
X01414Y01953*
X01414Y01956*
X01414Y01959*
X01414Y01962*
X01413Y01965*
X01412Y01968*
X01411Y01971*
X01409Y01973*
X01408Y01976*
X01406Y01978*
X01404Y01981*
X01402Y01983*
X01399Y01985*
X01397Y01986*
X01394Y01988*
X01391Y01989*
X01388Y0199*
X01385Y0199*
X01382Y01991*
X01379Y01991*
G37*
G36*
X03779Y01891D02*
X03776Y01891D01*
X03773Y0189*
X0377Y0189*
X03767Y01889*
X03764Y01888*
X03761Y01886*
X03759Y01885*
X03756Y01883*
X03754Y01881*
X03752Y01878*
X0375Y01876*
X03749Y01873*
X03747Y01871*
X03746Y01868*
X03745Y01865*
X03744Y01862*
X03744Y01859*
X03744Y01856*
X03744Y01853*
X03744Y0185*
X03745Y01847*
X03746Y01844*
X03747Y01841*
X03749Y01838*
X0375Y01836*
X03752Y01833*
X03754Y01831*
X03756Y01829*
X03759Y01827*
X03761Y01825*
X03764Y01824*
X03767Y01823*
X0377Y01822*
X03773Y01821*
X03776Y01821*
X03779Y01821*
X03782Y01821*
X03785Y01821*
X03788Y01822*
X03791Y01823*
X03794Y01824*
X03797Y01825*
X03799Y01827*
X03802Y01829*
X03804Y01831*
X03806Y01833*
X03808Y01836*
X03809Y01838*
X03811Y01841*
X03812Y01844*
X03813Y01847*
X03814Y0185*
X03814Y01853*
X03814Y01856*
X03814Y01859*
X03814Y01862*
X03813Y01865*
X03812Y01868*
X03811Y01871*
X03809Y01873*
X03808Y01876*
X03806Y01878*
X03804Y01881*
X03802Y01883*
X03799Y01885*
X03797Y01886*
X03794Y01888*
X03791Y01889*
X03788Y0189*
X03785Y0189*
X03782Y01891*
X03779Y01891*
G37*
G36*
X03679D02*
X03676Y01891D01*
X03673Y0189*
X0367Y0189*
X03667Y01889*
X03664Y01888*
X03661Y01886*
X03659Y01885*
X03656Y01883*
X03654Y01881*
X03652Y01878*
X0365Y01876*
X03649Y01873*
X03647Y01871*
X03646Y01868*
X03645Y01865*
X03644Y01862*
X03644Y01859*
X03644Y01856*
X03644Y01853*
X03644Y0185*
X03645Y01847*
X03646Y01844*
X03647Y01841*
X03649Y01838*
X0365Y01836*
X03652Y01833*
X03654Y01831*
X03656Y01829*
X03659Y01827*
X03661Y01825*
X03664Y01824*
X03667Y01823*
X0367Y01822*
X03673Y01821*
X03676Y01821*
X03679Y01821*
X03682Y01821*
X03685Y01821*
X03688Y01822*
X03691Y01823*
X03694Y01824*
X03697Y01825*
X03699Y01827*
X03702Y01829*
X03704Y01831*
X03706Y01833*
X03708Y01836*
X03709Y01838*
X03711Y01841*
X03712Y01844*
X03713Y01847*
X03714Y0185*
X03714Y01853*
X03714Y01856*
X03714Y01859*
X03714Y01862*
X03713Y01865*
X03712Y01868*
X03711Y01871*
X03709Y01873*
X03708Y01876*
X03706Y01878*
X03704Y01881*
X03702Y01883*
X03699Y01885*
X03697Y01886*
X03694Y01888*
X03691Y01889*
X03688Y0189*
X03685Y0189*
X03682Y01891*
X03679Y01891*
G37*
G36*
X01279D02*
X01276Y01891D01*
X01273Y0189*
X0127Y0189*
X01267Y01889*
X01264Y01888*
X01261Y01886*
X01259Y01885*
X01256Y01883*
X01254Y01881*
X01252Y01878*
X0125Y01876*
X01249Y01873*
X01247Y01871*
X01246Y01868*
X01245Y01865*
X01244Y01862*
X01244Y01859*
X01244Y01856*
X01244Y01853*
X01244Y0185*
X01245Y01847*
X01246Y01844*
X01247Y01841*
X01249Y01838*
X0125Y01836*
X01252Y01833*
X01254Y01831*
X01256Y01829*
X01259Y01827*
X01261Y01825*
X01264Y01824*
X01267Y01823*
X0127Y01822*
X01273Y01821*
X01276Y01821*
X01279Y01821*
X01282Y01821*
X01285Y01821*
X01288Y01822*
X01291Y01823*
X01294Y01824*
X01297Y01825*
X01299Y01827*
X01302Y01829*
X01304Y01831*
X01306Y01833*
X01308Y01836*
X01309Y01838*
X01311Y01841*
X01312Y01844*
X01313Y01847*
X01314Y0185*
X01314Y01853*
X01314Y01856*
X01314Y01859*
X01314Y01862*
X01313Y01865*
X01312Y01868*
X01311Y01871*
X01309Y01873*
X01308Y01876*
X01306Y01878*
X01304Y01881*
X01302Y01883*
X01299Y01885*
X01297Y01886*
X01294Y01888*
X01291Y01889*
X01288Y0189*
X01285Y0189*
X01282Y01891*
X01279Y01891*
G37*
G36*
X0083Y01898D02*
X00827Y01898D01*
X00823Y01898*
X0082Y01897*
X00817Y01896*
X00814Y01894*
X00811Y01893*
X00808Y01891*
X00805Y01889*
X00803Y01887*
X008Y01884*
X00798Y01881*
X00796Y01879*
X00795Y01876*
X00794Y01872*
X00793Y01869*
X00792Y01866*
X00791Y01863*
X00791Y01859*
X00791Y01856*
X00792Y01852*
X00793Y01849*
X00794Y01846*
X00795Y01843*
X00796Y0184*
X00798Y01837*
X008Y01834*
X00803Y01832*
X00805Y01829*
X00808Y01827*
X00811Y01825*
X00814Y01824*
X00817Y01822*
X0082Y01821*
X00823Y01821*
X00827Y0182*
X0083Y0182*
X00834Y0182*
X00837Y01821*
X0084Y01821*
X00844Y01822*
X00847Y01824*
X0085Y01825*
X00853Y01827*
X00855Y01829*
X00858Y01832*
X0086Y01834*
X00862Y01837*
X00864Y0184*
X00866Y01843*
X00867Y01846*
X00868Y01849*
X00869Y01852*
X00869Y01856*
X00869Y01859*
X00869Y01863*
X00869Y01866*
X00868Y01869*
X00867Y01872*
X00866Y01876*
X00864Y01879*
X00862Y01881*
X0086Y01884*
X00858Y01887*
X00855Y01889*
X00853Y01891*
X0085Y01893*
X00847Y01894*
X00844Y01896*
X0084Y01897*
X00837Y01898*
X00834Y01898*
X0083Y01898*
G37*
G36*
X0073D02*
X00727Y01898D01*
X00723Y01898*
X0072Y01897*
X00717Y01896*
X00714Y01894*
X00711Y01893*
X00708Y01891*
X00705Y01889*
X00703Y01887*
X007Y01884*
X00698Y01881*
X00696Y01879*
X00695Y01876*
X00694Y01872*
X00693Y01869*
X00692Y01866*
X00691Y01863*
X00691Y01859*
X00691Y01856*
X00692Y01852*
X00693Y01849*
X00694Y01846*
X00695Y01843*
X00696Y0184*
X00698Y01837*
X007Y01834*
X00703Y01832*
X00705Y01829*
X00708Y01827*
X00711Y01825*
X00714Y01824*
X00717Y01822*
X0072Y01821*
X00723Y01821*
X00727Y0182*
X0073Y0182*
X00734Y0182*
X00737Y01821*
X0074Y01821*
X00744Y01822*
X00747Y01824*
X0075Y01825*
X00753Y01827*
X00755Y01829*
X00758Y01832*
X0076Y01834*
X00762Y01837*
X00764Y0184*
X00766Y01843*
X00767Y01846*
X00768Y01849*
X00769Y01852*
X00769Y01856*
X00769Y01859*
X00769Y01863*
X00769Y01866*
X00768Y01869*
X00767Y01872*
X00766Y01876*
X00764Y01879*
X00762Y01881*
X0076Y01884*
X00758Y01887*
X00755Y01889*
X00753Y01891*
X0075Y01893*
X00747Y01894*
X00744Y01896*
X0074Y01897*
X00737Y01898*
X00734Y01898*
X0073Y01898*
G37*
G36*
X0063D02*
X00627Y01898D01*
X00623Y01898*
X0062Y01897*
X00617Y01896*
X00614Y01894*
X00611Y01893*
X00608Y01891*
X00605Y01889*
X00603Y01887*
X006Y01884*
X00598Y01881*
X00596Y01879*
X00595Y01876*
X00594Y01872*
X00593Y01869*
X00592Y01866*
X00591Y01863*
X00591Y01859*
X00591Y01856*
X00592Y01852*
X00593Y01849*
X00594Y01846*
X00595Y01843*
X00596Y0184*
X00598Y01837*
X006Y01834*
X00603Y01832*
X00605Y01829*
X00608Y01827*
X00611Y01825*
X00614Y01824*
X00617Y01822*
X0062Y01821*
X00623Y01821*
X00627Y0182*
X0063Y0182*
X00634Y0182*
X00637Y01821*
X0064Y01821*
X00644Y01822*
X00647Y01824*
X0065Y01825*
X00653Y01827*
X00655Y01829*
X00658Y01832*
X0066Y01834*
X00662Y01837*
X00664Y0184*
X00666Y01843*
X00667Y01846*
X00668Y01849*
X00669Y01852*
X00669Y01856*
X00669Y01859*
X00669Y01863*
X00669Y01866*
X00668Y01869*
X00667Y01872*
X00666Y01876*
X00664Y01879*
X00662Y01881*
X0066Y01884*
X00658Y01887*
X00655Y01889*
X00653Y01891*
X0065Y01893*
X00647Y01894*
X00644Y01896*
X0064Y01897*
X00637Y01898*
X00634Y01898*
X0063Y01898*
G37*
G36*
X03779Y01791D02*
X03776Y01791D01*
X03773Y0179*
X0377Y0179*
X03767Y01789*
X03764Y01788*
X03761Y01786*
X03759Y01785*
X03756Y01783*
X03754Y01781*
X03752Y01778*
X0375Y01776*
X03749Y01773*
X03747Y01771*
X03746Y01768*
X03745Y01765*
X03744Y01762*
X03744Y01759*
X03744Y01756*
X03744Y01753*
X03744Y0175*
X03745Y01747*
X03746Y01744*
X03747Y01741*
X03749Y01738*
X0375Y01736*
X03752Y01733*
X03754Y01731*
X03756Y01729*
X03759Y01727*
X03761Y01725*
X03764Y01724*
X03767Y01723*
X0377Y01722*
X03773Y01721*
X03776Y01721*
X03779Y01721*
X03782Y01721*
X03785Y01721*
X03788Y01722*
X03791Y01723*
X03794Y01724*
X03797Y01725*
X03799Y01727*
X03802Y01729*
X03804Y01731*
X03806Y01733*
X03808Y01736*
X03809Y01738*
X03811Y01741*
X03812Y01744*
X03813Y01747*
X03814Y0175*
X03814Y01753*
X03814Y01756*
X03814Y01759*
X03814Y01762*
X03813Y01765*
X03812Y01768*
X03811Y01771*
X03809Y01773*
X03808Y01776*
X03806Y01778*
X03804Y01781*
X03802Y01783*
X03799Y01785*
X03797Y01786*
X03794Y01788*
X03791Y01789*
X03788Y0179*
X03785Y0179*
X03782Y01791*
X03779Y01791*
G37*
G36*
X04279Y03351D02*
X03976D01*
X03973Y03351*
X0397Y0335*
X03968Y0335*
X03965Y03349*
X03963Y03347*
X0396Y03346*
X03958Y03344*
X03836Y03222*
X03835Y0322*
X03833Y03217*
X03832Y03215*
X0383Y03212*
X0383Y0321*
X03829Y03207*
X03829Y03204*
Y01741*
X03779Y01691*
X03779Y01691*
X03776Y01691*
X03773Y0169*
X0377Y0169*
X03767Y01689*
X03764Y01688*
X03761Y01686*
X03759Y01685*
X03756Y01683*
X03754Y01681*
X03752Y01678*
X0375Y01676*
X03749Y01673*
X03747Y01671*
X03746Y01668*
X03745Y01665*
X03744Y01662*
X03744Y01659*
X03744Y01656*
X03744Y01653*
X03744Y0165*
X03745Y01647*
X03746Y01644*
X03747Y01641*
X03749Y01638*
X0375Y01636*
X03752Y01633*
X03754Y01631*
X03756Y01629*
X03759Y01627*
X03761Y01625*
X03764Y01624*
X03767Y01623*
X03766Y01614*
X03727*
X03725Y01614*
X03724Y01613*
X03723Y01613*
X03721Y01612*
X0372Y01611*
X03696Y01587*
X03694Y01588*
X03691Y01589*
X03688Y0159*
X03685Y0159*
X03682Y01591*
X03679Y01591*
X03676Y01591*
X03673Y0159*
X0367Y0159*
X03667Y01589*
X03664Y01588*
X03661Y01586*
X03659Y01585*
X03656Y01583*
X03654Y01581*
X03652Y01578*
X0365Y01576*
X03649Y01573*
X03647Y01571*
X03646Y01568*
X03645Y01565*
X03644Y01562*
X03644Y01559*
X03644Y01556*
X03644Y01553*
X03644Y0155*
X03645Y01547*
X03646Y01544*
X03647Y01541*
X03649Y01538*
X0365Y01536*
X03652Y01533*
X03654Y01531*
X03656Y01529*
X03659Y01527*
X03661Y01525*
X03664Y01524*
X03667Y01523*
X0367Y01522*
X03673Y01521*
X03676Y01521*
X03679Y01521*
X03682Y01521*
X03685Y01521*
X03688Y01522*
X03691Y01523*
X03694Y01524*
X03697Y01525*
X03699Y01527*
X03702Y01529*
X03704Y01531*
X03706Y01533*
X03708Y01536*
X03709Y01538*
X03711Y01541*
X03712Y01544*
X03713Y01547*
X03714Y0155*
X03714Y01553*
X03714Y01556*
X03714Y01559*
X03714Y01562*
X03713Y01565*
X03712Y01568*
X03711Y01571*
X0371Y01573*
X03731Y01594*
X03757*
X03759Y01585*
X03759Y01585*
X03756Y01583*
X03754Y01581*
X03752Y01578*
X0375Y01576*
X03749Y01573*
X03747Y01571*
X03746Y01568*
X03745Y01565*
X03744Y01562*
X03744Y01559*
X03744Y01556*
X03744Y01553*
X03744Y0155*
X03745Y01547*
X03746Y01544*
X03747Y01541*
X03749Y01538*
X0375Y01536*
X03752Y01533*
X03754Y01531*
X03756Y01529*
X03759Y01527*
X03761Y01525*
X03764Y01524*
X03767Y01523*
X03764Y01514*
X03728*
X03726Y01514*
X03725Y01514*
X03723Y01513*
X03722Y01513*
X03721Y01512*
X03696Y01487*
X03694Y01488*
X03691Y01489*
X03688Y0149*
X03685Y0149*
X03682Y01491*
X03679Y01491*
X03676Y01491*
X03673Y0149*
X0367Y0149*
X03667Y01489*
X03664Y01488*
X03661Y01486*
X03659Y01485*
X03656Y01483*
X03654Y01481*
X03652Y01478*
X0365Y01476*
X03649Y01473*
X03647Y01471*
X03646Y01468*
X03645Y01465*
X03644Y01462*
X03644Y01459*
X03644Y01456*
X03644Y01453*
X03644Y0145*
X03645Y01447*
X03646Y01444*
X03647Y01441*
X03649Y01438*
X0365Y01436*
X03652Y01433*
X03654Y01431*
X03656Y01429*
X03659Y01427*
X03661Y01425*
X03664Y01424*
X03667Y01423*
X0367Y01422*
X03673Y01421*
X03676Y01421*
X03679Y01421*
X03682Y01421*
X03685Y01421*
X03688Y01422*
X03691Y01423*
X03694Y01424*
X03697Y01425*
X03699Y01427*
X03702Y01429*
X03704Y01431*
X03706Y01433*
X03708Y01436*
X03709Y01438*
X03711Y01441*
X03712Y01444*
X03713Y01447*
X03714Y0145*
X03714Y01453*
X03714Y01456*
X03714Y01459*
X03714Y01462*
X03713Y01465*
X03712Y01468*
X03711Y01471*
X0371Y01473*
X03732Y01494*
X03736*
X03744Y01491*
Y01421*
X03814*
Y01454*
X03818*
X0382Y01454*
X03821Y01454*
X03823Y01455*
X03824Y01456*
X03825Y01457*
X03981Y01612*
X03982Y01613*
X03983Y01615*
X03983Y01616*
X03984Y01618*
X03984Y01619*
Y03177*
X04023Y03217*
X04077*
X0413Y03164*
X04131Y03163*
X04133Y03162*
X04134Y03161*
X04136Y03161*
X04137Y03161*
X04187*
X04188Y03161*
X0419Y03161*
X04191Y03162*
X04192Y03163*
X04194Y03164*
X04222Y03193*
X04223Y03192*
X04225Y03192*
X04227Y03192*
X04229Y03193*
X04231Y03194*
X04233Y03195*
X04235Y03196*
X04237Y03197*
X04238Y03199*
X04239Y03201*
X0424Y03203*
X04241Y03205*
X04242Y03207*
X04242Y03209*
X04242Y03211*
X04241Y03214*
X0424Y03216*
X04248Y0322*
X04255Y03213*
X04255Y03212*
X04255Y0321*
X04255Y03208*
X04256Y03206*
X04257Y03204*
X04258Y03202*
X04259Y032*
X0426Y03198*
X04262Y03197*
X04264Y03196*
X04266Y03195*
X04268Y03194*
X0427Y03193*
X04272Y03193*
X04274Y03193*
X04277Y03194*
X04279Y03195*
X04281Y03196*
X04282Y03197*
X04284Y03198*
X04286Y032*
X04287Y03202*
X04288Y03204*
X04288Y03206*
X04289Y03208*
X04289Y0321*
X04289Y03212*
X04288Y03214*
X04288Y03217*
X04287Y03219*
X04286Y0322*
X04284Y03222*
X04282Y03224*
X04281Y03225*
X04279Y03226*
X04277Y03226*
X04274Y03227*
X04272Y03227*
X0427Y03227*
X0427Y03227*
X04217Y03279*
X04216Y0328*
X04215Y03281*
X04213Y03282*
X04212Y03282*
X0421Y03282*
X04*
X03999Y03282*
X03997Y03282*
X03996Y03281*
X03995Y0328*
X03993Y03279*
X03922Y03207*
X03921Y03206*
X0392Y03205*
X03919Y03203*
X03919Y03202*
X03919Y032*
Y01733*
X03801Y01616*
X03798Y01616*
X03797Y01625*
X03797Y01626*
X03799Y01627*
X03802Y01629*
X03804Y01631*
X03806Y01633*
X03808Y01636*
X03809Y01638*
X03811Y01641*
X03812Y01644*
X03813Y01647*
X03814Y0165*
X03814Y01653*
X03814Y01656*
X03814Y01656*
X03871Y01713*
X03873Y01715*
X03875Y01717*
X03876Y0172*
X03877Y01722*
X03878Y01725*
X03878Y01728*
X03879Y01731*
Y03194*
X03986Y03302*
X04269*
X04365Y03206*
Y03157*
Y03131*
Y02685*
X04365Y02682*
X04365Y02679*
X04366Y02676*
X04367Y02674*
X04368Y02671*
X0437Y02669*
X04372Y02667*
X04416Y02623*
Y02618*
X04416Y02617*
X04416Y02616*
X04417Y02615*
X04417Y02614*
X04418Y02613*
X04419Y02613*
X0442Y02613*
X04421Y02613*
X04436*
X04437Y02613*
X04458*
X04663Y02408*
Y01647*
X04647Y01631*
X04638Y01635*
Y0167*
X04638Y01671*
X04638Y01672*
X04638Y01673*
X04637Y01674*
X04636Y01674*
X04635Y01675*
X04634Y01675*
X04633Y01675*
X04566*
X04565Y01675*
X04565Y01675*
X04564Y01674*
X04563Y01674*
X04562Y01673*
X04562Y01672*
X04562Y01671*
X04561Y0167*
Y01662*
X0409*
X04088Y01661*
X04086Y01661*
X04084Y0166*
X04083Y01659*
X04081Y01658*
X03833Y0141*
X03035*
X03033Y0141*
X03031Y01409*
X03029Y01408*
X03028Y01407*
X03026Y01406*
X02766Y01146*
X01316*
X01004Y01457*
X01003Y01458*
X01001Y01459*
X00999Y0146*
X00998Y01461*
X00996Y01461*
X00641*
X00639Y01461*
X00637Y0146*
X00636Y01459*
X00634Y01458*
X00632Y01457*
X0054Y01365*
X00539Y01364*
X00538Y01362*
X00537Y0136*
X00537Y01358*
X00537Y01356*
Y01312*
X00531*
X0053Y01312*
X00529Y01311*
X00528Y01311*
X00527Y0131*
X00527Y01309*
X00526Y01309*
X00526Y01308*
X00526Y01307*
Y0124*
X00526Y01239*
X00526Y01238*
X00527Y01237*
X00527Y01236*
X00528Y01235*
X00529Y01235*
X0053Y01235*
X00531Y01235*
X0057*
X00571Y01235*
X00572Y01235*
X00573Y01235*
X00574Y01236*
X00575Y01237*
X00575Y01238*
X00575Y01239*
X00575Y0124*
Y01307*
X00575Y01308*
X00575Y01309*
X00575Y01309*
X00574Y0131*
X00573Y01311*
X00572Y01311*
X00571Y01312*
X0057Y01312*
X00562*
Y01351*
X00646Y01436*
X0099*
X01302Y01124*
X01303Y01123*
X01305Y01122*
X01307Y01121*
X01309Y01121*
X01311Y01121*
X02771*
X02773Y01121*
X02775Y01121*
X02777Y01122*
X02779Y01123*
X0278Y01124*
X0304Y01385*
X03838*
X0384Y01385*
X03842Y01385*
X03844Y01386*
X03845Y01387*
X03847Y01388*
X04095Y01637*
X04561*
Y01631*
X04562Y0163*
X04562Y01629*
X04562Y01628*
X04563Y01627*
X04564Y01627*
X04565Y01626*
X04565Y01626*
X04566Y01626*
X04629*
X04633Y01617*
X04604Y01588*
X04602Y01586*
X04601Y01584*
X04599Y01581*
X04598Y01579*
X04597Y01576*
X04597Y01573*
X04597Y0157*
Y00541*
X04548Y00493*
X04138*
X04137Y00493*
X04136Y00492*
X04135Y00492*
X04135Y00491*
X04134Y0049*
X04134Y0049*
X04133Y00489*
X04133Y00488*
Y00409*
X04133Y00408*
X04134Y00407*
X04134Y00406*
X04135Y00405*
X04135Y00405*
X04136Y00404*
X04137Y00404*
X04138Y00404*
X04571*
X04572Y00404*
X04573Y00404*
X04574Y00405*
X04575Y00405*
X04576Y00406*
X04576Y00407*
X04576Y00408*
X04576Y00409*
Y00451*
X04639Y00514*
X04641Y00516*
X04642Y00518*
X04644Y0052*
X04645Y00523*
X04646Y00525*
X04646Y00528*
X04646Y00531*
Y0156*
X04705Y01619*
X04707Y01621*
X04708Y01623*
X0471Y01626*
X04711Y01628*
X04712Y01631*
X04712Y01634*
X04712Y01636*
Y02418*
X04712Y02421*
X04712Y02423*
X04711Y02426*
X0471Y02429*
X04708Y02431*
X04707Y02433*
X04705Y02435*
X04493Y02648*
Y02657*
X04493Y02658*
X04492Y02659*
X04492Y0266*
X04491Y02661*
X0449Y02661*
X0449Y02662*
X04489Y02662*
X04488Y02662*
X04468*
X04468Y02662*
X04468Y02662*
X04464*
X04464Y02662*
X04447*
X04414Y02695*
Y03131*
Y03157*
Y03216*
X04414Y03219*
X04413Y03222*
X04413Y03224*
X04412Y03227*
X0441Y03229*
X04409Y03231*
X04407Y03234*
X04297Y03344*
X04294Y03346*
X04292Y03347*
X0429Y03349*
X04287Y0335*
X04285Y0335*
X04282Y03351*
X04279Y03351*
G37*
G36*
X03679Y01691D02*
X03676Y01691D01*
X03673Y0169*
X03673Y0169*
X03191*
X03188Y0169*
X03185Y0169*
X03182Y01689*
X03179Y01688*
X03177Y01687*
X03174Y01686*
X03171Y01684*
X03169Y01682*
X03167Y0168*
X02721Y01235*
X01352*
X01058Y0153*
Y01556*
X01058Y01557*
X01057Y01558*
X01057Y01558*
X01056Y01559*
X01055Y0156*
X01055Y0156*
X01054Y01561*
X01053Y01561*
X00826*
X00825Y01561*
X00824Y0156*
X00823Y0156*
X00823Y01559*
X00822Y01558*
X00822Y01558*
X00821Y01557*
X00821Y01556*
Y01525*
X00821Y01524*
X00822Y01523*
X00822Y01522*
X00823Y01522*
X00823Y01521*
X00824Y0152*
X00825Y0152*
X00826Y0152*
X00883*
X00921Y01482*
X00922Y01482*
X00923Y01481*
X00924Y01481*
X00925Y01481*
X00954*
X00954Y01481*
X01009*
X01314Y01176*
X01316Y01174*
X01318Y01172*
X01321Y0117*
X01323Y01169*
X01326Y01168*
X01329Y01167*
X01332Y01166*
X01335Y01166*
X01338Y01166*
X02736*
X02739Y01166*
X02742Y01166*
X02745Y01167*
X02748Y01168*
X0275Y01169*
X02753Y0117*
X02756Y01172*
X02758Y01174*
X0276Y01176*
X03206Y01621*
X03673*
X03673Y01621*
X03676Y01621*
X03679Y01621*
X03682Y01621*
X03685Y01621*
X03688Y01622*
X03691Y01623*
X03694Y01624*
X03697Y01625*
X03699Y01627*
X03702Y01629*
X03704Y01631*
X03706Y01633*
X03708Y01636*
X03709Y01638*
X03711Y01641*
X03712Y01644*
X03713Y01647*
X03714Y0165*
X03714Y01653*
X03714Y01656*
X03714Y01659*
X03714Y01662*
X03713Y01665*
X03712Y01668*
X03711Y01671*
X03709Y01673*
X03708Y01676*
X03706Y01678*
X03704Y01681*
X03702Y01683*
X03699Y01685*
X03697Y01686*
X03694Y01688*
X03691Y01689*
X03688Y0169*
X03685Y0169*
X03682Y01691*
X03679Y01691*
G37*
G36*
X01379D02*
X01376Y01691D01*
X01373Y0169*
X0137Y0169*
X01367Y01689*
X01364Y01688*
X01361Y01686*
X01359Y01685*
X01356Y01683*
X01354Y01681*
X01352Y01678*
X0135Y01676*
X01349Y01673*
X01347Y01671*
X01346Y01668*
X01345Y01665*
X01344Y01662*
X01344Y01659*
X01344Y01656*
X01344Y01653*
X01344Y0165*
X01345Y01647*
X01346Y01644*
X01347Y01641*
X01349Y01638*
X0135Y01636*
X01352Y01633*
X01354Y01631*
X01356Y01629*
X01359Y01627*
X01361Y01625*
X01364Y01624*
X01367Y01623*
X0137Y01622*
X01373Y01621*
X01376Y01621*
X01379Y01621*
X01382Y01621*
X01385Y01621*
X01388Y01622*
X01391Y01623*
X01394Y01624*
X01397Y01625*
X01399Y01627*
X01402Y01629*
X01404Y01631*
X01406Y01633*
X01408Y01636*
X01409Y01638*
X01411Y01641*
X01412Y01644*
X01413Y01647*
X01414Y0165*
X01414Y01653*
X01414Y01656*
X01414Y01659*
X01414Y01662*
X01413Y01665*
X01412Y01668*
X01411Y01671*
X01409Y01673*
X01408Y01676*
X01406Y01678*
X01404Y01681*
X01402Y01683*
X01399Y01685*
X01397Y01686*
X01394Y01688*
X01391Y01689*
X01388Y0169*
X01385Y0169*
X01382Y01691*
X01379Y01691*
G37*
G36*
Y01591D02*
X01376Y01591D01*
X01373Y0159*
X0137Y0159*
X01367Y01589*
X01364Y01588*
X01361Y01586*
X01359Y01585*
X01356Y01583*
X01354Y01581*
X01352Y01578*
X0135Y01576*
X01349Y01573*
X01347Y01571*
X01346Y01568*
X01345Y01565*
X01344Y01562*
X01344Y01559*
X01344Y01556*
X01344Y01553*
X01344Y0155*
X01345Y01547*
X01346Y01544*
X01347Y01541*
X01349Y01538*
X0135Y01536*
X01352Y01533*
X01354Y01531*
X01356Y01529*
X01359Y01527*
X01361Y01525*
X01364Y01524*
X01367Y01523*
X0137Y01522*
X01373Y01521*
X01376Y01521*
X01379Y01521*
X01382Y01521*
X01385Y01521*
X01388Y01522*
X01391Y01523*
X01394Y01524*
X01397Y01525*
X01399Y01527*
X01402Y01529*
X01404Y01531*
X01406Y01533*
X01408Y01536*
X01409Y01538*
X01411Y01541*
X01412Y01544*
X01413Y01547*
X01414Y0155*
X01414Y01553*
X01414Y01556*
X01414Y01559*
X01414Y01562*
X01413Y01565*
X01412Y01568*
X01411Y01571*
X01409Y01573*
X01408Y01576*
X01406Y01578*
X01404Y01581*
X01402Y01583*
X01399Y01585*
X01397Y01586*
X01394Y01588*
X01391Y01589*
X01388Y0159*
X01385Y0159*
X01382Y01591*
X01379Y01591*
G37*
G36*
X01414Y01491D02*
X01344D01*
Y01421*
X01414*
Y01491*
G37*
G36*
X01579Y01425D02*
X01575Y01425D01*
X0157Y01424*
X01566Y01423*
X01561Y01422*
X01557Y01421*
X01553Y01419*
X01549Y01418*
X01545Y01416*
X01541Y01413*
X01537Y0141*
X01534Y01408*
X0153Y01405*
X01527Y01401*
X01524Y01398*
X01522Y01394*
X01519Y0139*
X01517Y01386*
X01515Y01382*
X01514Y01378*
X01512Y01374*
X01511Y01369*
X01511Y01365*
X0151Y0136*
X0151Y01356*
X0151Y01351*
X01511Y01347*
X01511Y01342*
X01512Y01338*
X01514Y01334*
X01515Y01329*
X01517Y01325*
X01519Y01321*
X01522Y01318*
X01524Y01314*
X01527Y0131*
X0153Y01307*
X01534Y01304*
X01537Y01301*
X01541Y01298*
X01545Y01296*
X01549Y01294*
X01553Y01292*
X01557Y01291*
X01561Y01289*
X01566Y01288*
X0157Y01287*
X01575Y01287*
X01579Y01287*
X01584Y01287*
X01588Y01287*
X01592Y01288*
X01597Y01289*
X01601Y01291*
X01605Y01292*
X0161Y01294*
X01613Y01296*
X01617Y01298*
X01621Y01301*
X01624Y01304*
X01628Y01307*
X01631Y0131*
X01634Y01314*
X01636Y01318*
X01639Y01321*
X01641Y01325*
X01643Y01329*
X01644Y01334*
X01646Y01338*
X01647Y01342*
X01647Y01347*
X01648Y01351*
X01648Y01356*
X01648Y0136*
X01647Y01365*
X01647Y01369*
X01646Y01374*
X01644Y01378*
X01643Y01382*
X01641Y01386*
X01639Y0139*
X01636Y01394*
X01634Y01398*
X01631Y01401*
X01628Y01405*
X01624Y01408*
X01621Y0141*
X01617Y01413*
X01613Y01416*
X0161Y01418*
X01605Y01419*
X01601Y01421*
X01597Y01422*
X01592Y01423*
X01588Y01424*
X01584Y01425*
X01579Y01425*
G37*
G36*
X03479Y01375D02*
X03475Y01375D01*
X0347Y01374*
X03466Y01373*
X03461Y01372*
X03457Y01371*
X03453Y01369*
X03449Y01368*
X03445Y01366*
X03441Y01363*
X03437Y0136*
X03434Y01358*
X0343Y01355*
X03427Y01351*
X03424Y01348*
X03422Y01344*
X03419Y0134*
X03417Y01336*
X03415Y01332*
X03414Y01328*
X03412Y01324*
X03411Y01319*
X03411Y01315*
X0341Y0131*
X0341Y01306*
X0341Y01301*
X03411Y01297*
X03411Y01292*
X03412Y01288*
X03414Y01284*
X03415Y01279*
X03417Y01275*
X03419Y01271*
X03422Y01268*
X03424Y01264*
X03427Y0126*
X0343Y01257*
X03434Y01254*
X03437Y01251*
X03441Y01248*
X03445Y01246*
X03449Y01244*
X03453Y01242*
X03457Y01241*
X03461Y01239*
X03466Y01238*
X0347Y01237*
X03475Y01237*
X03479Y01237*
X03484Y01237*
X03488Y01237*
X03492Y01238*
X03497Y01239*
X03501Y01241*
X03505Y01242*
X0351Y01244*
X03513Y01246*
X03517Y01248*
X03521Y01251*
X03524Y01254*
X03528Y01257*
X03531Y0126*
X03534Y01264*
X03536Y01268*
X03539Y01271*
X03541Y01275*
X03543Y01279*
X03544Y01284*
X03546Y01288*
X03547Y01292*
X03547Y01297*
X03548Y01301*
X03548Y01306*
X03548Y0131*
X03547Y01315*
X03547Y01319*
X03546Y01324*
X03544Y01328*
X03543Y01332*
X03541Y01336*
X03539Y0134*
X03536Y01344*
X03534Y01348*
X03531Y01351*
X03528Y01355*
X03524Y01358*
X03521Y0136*
X03517Y01363*
X03513Y01366*
X0351Y01368*
X03505Y01369*
X03501Y01371*
X03497Y01372*
X03492Y01373*
X03488Y01374*
X03484Y01375*
X03479Y01375*
G37*
G36*
X00561Y0085D02*
X00555Y0085D01*
X00549Y0085*
X00543Y00849*
X00537Y00848*
X00531Y00846*
X00526Y00845*
X0052Y00843*
X00515Y0084*
X00509Y00838*
X00504Y00835*
X00499Y00832*
X00494Y00829*
X0049Y00825*
X00485Y00821*
X00481Y00817*
X00477Y00813*
X00473Y00809*
X00469Y00804*
X00466Y00799*
X00463Y00794*
X0046Y00789*
X00458Y00783*
X00455Y00778*
X00454Y00772*
X00452Y00767*
X0045Y00761*
X00449Y00755*
X00449Y00749*
X00448Y00744*
X00448Y00738*
X00448Y00732*
X00449Y00726*
X00449Y0072*
X0045Y00714*
X00452Y00709*
X00454Y00703*
X00455Y00697*
X00458Y00692*
X0046Y00687*
X00463Y00681*
X00466Y00676*
X00469Y00672*
X00473Y00667*
X00477Y00662*
X00481Y00658*
X00485Y00654*
X0049Y0065*
X00494Y00647*
X00499Y00643*
X00504Y0064*
X00509Y00637*
X00515Y00635*
X0052Y00633*
X00526Y00631*
X00531Y00629*
X00537Y00628*
X00543Y00627*
X00549Y00626*
X00555Y00625*
X00561Y00625*
X00566Y00625*
X00572Y00626*
X00578Y00627*
X00584Y00628*
X0059Y00629*
X00595Y00631*
X00601Y00633*
X00606Y00635*
X00612Y00637*
X00617Y0064*
X00622Y00643*
X00627Y00647*
X00631Y0065*
X00636Y00654*
X0064Y00658*
X00644Y00662*
X00648Y00667*
X00652Y00672*
X00655Y00676*
X00658Y00681*
X00661Y00687*
X00663Y00692*
X00666Y00697*
X00668Y00703*
X00669Y00709*
X00671Y00714*
X00672Y0072*
X00672Y00726*
X00673Y00732*
X00673Y00738*
X00673Y00744*
X00672Y00749*
X00672Y00755*
X00671Y00761*
X00669Y00767*
X00668Y00772*
X00666Y00778*
X00663Y00783*
X00661Y00789*
X00658Y00794*
X00655Y00799*
X00652Y00804*
X00648Y00809*
X00644Y00813*
X0064Y00817*
X00636Y00821*
X00631Y00825*
X00627Y00829*
X00622Y00832*
X00617Y00835*
X00612Y00838*
X00606Y0084*
X00601Y00843*
X00595Y00845*
X0059Y00846*
X00584Y00848*
X00578Y00849*
X00572Y0085*
X00566Y0085*
X00561Y0085*
G37*
G36*
X00894Y00363D02*
X0089Y00363D01*
X00887Y00363*
X00884Y00362*
X00881Y00361*
X00878Y0036*
X00875Y00358*
X00872Y00357*
X00869Y00355*
X00867Y00352*
X00865Y0035*
X00863Y00347*
X00861Y00345*
X0086Y00342*
X00858Y00339*
X00857Y00336*
X00857Y00332*
X00856Y00329*
X00856Y00326*
X00856Y00323*
X00857Y00319*
X00857Y00316*
X00858Y00313*
X0086Y0031*
X00861Y00307*
X00863Y00304*
X00865Y00302*
X00867Y00299*
X00869Y00297*
X00872Y00295*
X00875Y00293*
X00878Y00292*
X00881Y00291*
X00884Y0029*
X00887Y00289*
X0089Y00289*
X00894Y00288*
X00897Y00289*
X009Y00289*
X00903Y0029*
X00906Y00291*
X00909Y00292*
X00912Y00293*
X00915Y00295*
X00918Y00297*
X0092Y00299*
X00922Y00302*
X00924Y00304*
X00926Y00307*
X00928Y0031*
X00929Y00313*
X0093Y00316*
X00931Y00319*
X00931Y00323*
X00931Y00326*
X00931Y00329*
X00931Y00332*
X0093Y00336*
X00929Y00339*
X00928Y00342*
X00926Y00345*
X00924Y00347*
X00922Y0035*
X0092Y00352*
X00918Y00355*
X00915Y00357*
X00912Y00358*
X00909Y0036*
X00906Y00361*
X00903Y00362*
X009Y00363*
X00897Y00363*
X00894Y00363*
G37*
G36*
X07578Y00507D02*
X07572Y00506D01*
X07566Y00506*
X07561Y00505*
X07555Y00504*
X07549Y00503*
X07543Y00501*
X07538Y00499*
X07532Y00497*
X07527Y00494*
X07522Y00491*
X07517Y00488*
X07512Y00485*
X07507Y00481*
X07502Y00477*
X07498Y00473*
X07494Y00469*
X0749Y00465*
X07487Y0046*
X07483Y00455*
X0748Y0045*
X07477Y00445*
X07475Y00439*
X07472Y00434*
X0747Y00428*
X07469Y00423*
X07467Y00417*
X07466Y00411*
X07466Y00405*
X07465Y00399*
X07465Y00393*
X07465Y00387*
X07466Y00381*
X07466Y00375*
X07467Y0037*
X07469Y00364*
X0747Y00358*
X07472Y00353*
X07475Y00347*
X07477Y00342*
X0748Y00337*
X07483Y00331*
X07487Y00327*
X0749Y00322*
X07494Y00317*
X07498Y00313*
X07502Y00309*
X07507Y00305*
X07512Y00302*
X07517Y00298*
X07522Y00295*
X07527Y00292*
X07532Y0029*
X07538Y00287*
X07543Y00285*
X07549Y00284*
X07555Y00282*
X07561Y00281*
X07566Y00281*
X07572Y0028*
X07578Y0028*
X07584Y0028*
X0759Y00281*
X07596Y00281*
X07602Y00282*
X07608Y00284*
X07613Y00285*
X07619Y00287*
X07624Y0029*
X0763Y00292*
X07635Y00295*
X0764Y00298*
X07645Y00302*
X0765Y00305*
X07654Y00309*
X07658Y00313*
X07662Y00317*
X07666Y00322*
X0767Y00327*
X07673Y00331*
X07676Y00337*
X07679Y00342*
X07682Y00347*
X07684Y00353*
X07686Y00358*
X07688Y00364*
X07689Y0037*
X0769Y00375*
X07691Y00381*
X07691Y00387*
X07692Y00393*
X07691Y00399*
X07691Y00405*
X0769Y00411*
X07689Y00417*
X07688Y00423*
X07686Y00428*
X07684Y00434*
X07682Y00439*
X07679Y00445*
X07676Y0045*
X07673Y00455*
X0767Y0046*
X07666Y00465*
X07662Y00469*
X07658Y00473*
X07654Y00477*
X0765Y00481*
X07645Y00485*
X0764Y00488*
X07635Y00491*
X0763Y00494*
X07624Y00497*
X07619Y00499*
X07613Y00501*
X07608Y00503*
X07602Y00504*
X07596Y00505*
X0759Y00506*
X07584Y00506*
X07578Y00507*
G37*
G36*
X04822D02*
X04816Y00506D01*
X0481Y00506*
X04805Y00505*
X04799Y00504*
X04793Y00503*
X04787Y00501*
X04782Y00499*
X04776Y00497*
X04771Y00494*
X04766Y00491*
X04761Y00488*
X04756Y00485*
X04751Y00481*
X04747Y00477*
X04742Y00473*
X04738Y00469*
X04734Y00465*
X04731Y0046*
X04727Y00455*
X04724Y0045*
X04721Y00445*
X04719Y00439*
X04717Y00434*
X04715Y00428*
X04713Y00423*
X04712Y00417*
X0471Y00411*
X0471Y00405*
X04709Y00399*
X04709Y00393*
X04709Y00387*
X0471Y00381*
X0471Y00375*
X04712Y0037*
X04713Y00364*
X04715Y00358*
X04717Y00353*
X04719Y00347*
X04721Y00342*
X04724Y00337*
X04727Y00331*
X04731Y00327*
X04734Y00322*
X04738Y00317*
X04742Y00313*
X04747Y00309*
X04751Y00305*
X04756Y00302*
X04761Y00298*
X04766Y00295*
X04771Y00292*
X04776Y0029*
X04782Y00287*
X04787Y00285*
X04793Y00284*
X04799Y00282*
X04805Y00281*
X0481Y00281*
X04816Y0028*
X04822Y0028*
X04828Y0028*
X04834Y00281*
X0484Y00281*
X04846Y00282*
X04852Y00284*
X04857Y00285*
X04863Y00287*
X04868Y0029*
X04874Y00292*
X04879Y00295*
X04884Y00298*
X04889Y00302*
X04894Y00305*
X04898Y00309*
X04902Y00313*
X04907Y00317*
X0491Y00322*
X04914Y00327*
X04917Y00331*
X0492Y00337*
X04923Y00342*
X04926Y00347*
X04928Y00353*
X0493Y00358*
X04932Y00364*
X04933Y0037*
X04934Y00375*
X04935Y00381*
X04935Y00387*
X04936Y00393*
X04935Y00399*
X04935Y00405*
X04934Y00411*
X04933Y00417*
X04932Y00423*
X0493Y00428*
X04928Y00434*
X04926Y00439*
X04923Y00445*
X0492Y0045*
X04917Y00455*
X04914Y0046*
X0491Y00465*
X04907Y00469*
X04902Y00473*
X04898Y00477*
X04894Y00481*
X04889Y00485*
X04884Y00488*
X04879Y00491*
X04874Y00494*
X04868Y00497*
X04863Y00499*
X04857Y00501*
X04852Y00503*
X04846Y00504*
X0484Y00505*
X04834Y00506*
X04828Y00506*
X04822Y00507*
G37*
G36*
X01233Y03645D02*
X01229Y03645D01*
X01226Y03645*
X01223Y03644*
X0122Y03643*
X01217Y03642*
X01214Y0364*
X01211Y03639*
X01208Y03637*
X01206Y03634*
X01204Y03632*
X01202Y03629*
X012Y03627*
X01199Y03624*
X01197Y03621*
X01196Y03617*
X01196Y03614*
X01195Y03611*
X01195Y03608*
X01195Y03605*
X01196Y03601*
X01196Y03598*
X01197Y03595*
X01199Y03592*
X012Y03589*
X01202Y03586*
X01204Y03584*
X01206Y03581*
X01208Y03579*
X01211Y03577*
X01214Y03575*
X01217Y03574*
X0122Y03573*
X01223Y03572*
X01226Y03571*
X01229Y0357*
X01233Y0357*
X01236Y0357*
X01239Y03571*
X01242Y03572*
X01245Y03573*
X01248Y03574*
X01251Y03575*
X01254Y03577*
X01257Y03579*
X01259Y03581*
X01261Y03584*
X01263Y03586*
X01265Y03589*
X01267Y03592*
X01268Y03595*
X01269Y03598*
X0127Y03601*
X0127Y03605*
X0127Y03608*
X0127Y03611*
X0127Y03614*
X01269Y03617*
X01268Y03621*
X01267Y03624*
X01265Y03627*
X01263Y03629*
X01261Y03632*
X01259Y03634*
X01257Y03637*
X01254Y03639*
X01251Y0364*
X01248Y03642*
X01245Y03643*
X01242Y03644*
X01239Y03645*
X01236Y03645*
X01233Y03645*
G37*
G36*
X00695D02*
X00692Y03645D01*
X00688Y03645*
X00685Y03644*
X00682Y03643*
X00679Y03642*
X00676Y0364*
X00673Y03639*
X00671Y03637*
X00668Y03634*
X00666Y03632*
X00664Y03629*
X00662Y03627*
X00661Y03624*
X0066Y03621*
X00659Y03617*
X00658Y03614*
X00658Y03611*
X00657Y03608*
X00658Y03605*
X00658Y03601*
X00659Y03598*
X0066Y03595*
X00661Y03592*
X00662Y03589*
X00664Y03586*
X00666Y03584*
X00668Y03581*
X00671Y03579*
X00673Y03577*
X00676Y03575*
X00679Y03574*
X00682Y03573*
X00685Y03572*
X00688Y03571*
X00692Y0357*
X00695Y0357*
X00698Y0357*
X00701Y03571*
X00705Y03572*
X00708Y03573*
X00711Y03574*
X00714Y03575*
X00716Y03577*
X00719Y03579*
X00722Y03581*
X00724Y03584*
X00726Y03586*
X00727Y03589*
X00729Y03592*
X0073Y03595*
X00731Y03598*
X00732Y03601*
X00732Y03605*
X00732Y03608*
X00732Y03611*
X00732Y03614*
X00731Y03617*
X0073Y03621*
X00729Y03624*
X00727Y03627*
X00726Y03629*
X00724Y03632*
X00722Y03634*
X00719Y03637*
X00716Y03639*
X00714Y0364*
X00711Y03642*
X00708Y03643*
X00705Y03644*
X00701Y03645*
X00698Y03645*
X00695Y03645*
G37*
G36*
X01678D02*
X01674Y03645D01*
X01671Y03645*
X01668Y03644*
X01665Y03643*
X01662Y03642*
X01659Y0364*
X01656Y03639*
X01654Y03637*
X01651Y03634*
X01649Y03632*
X01647Y03629*
X01645Y03627*
X01644Y03624*
X01642Y03621*
X01641Y03617*
X01641Y03614*
X0164Y03611*
X0164Y03608*
X0164Y03605*
X01641Y03601*
X01641Y03598*
X01642Y03595*
X01644Y03592*
X01645Y03589*
X01647Y03586*
X01649Y03584*
X01651Y03581*
X01654Y03579*
X01656Y03577*
X01659Y03575*
X01662Y03574*
X01665Y03573*
X01668Y03572*
X01671Y03571*
X01674Y0357*
X01678Y0357*
X01681Y0357*
X01684Y03571*
X01687Y03572*
X0169Y03573*
X01694Y03574*
X01696Y03575*
X01699Y03577*
X01702Y03579*
X01704Y03581*
X01706Y03584*
X01708Y03586*
X0171Y03589*
X01712Y03592*
X01713Y03595*
X01714Y03598*
X01715Y03601*
X01715Y03605*
X01715Y03608*
X01715Y03611*
X01715Y03614*
X01714Y03617*
X01713Y03621*
X01712Y03624*
X0171Y03627*
X01708Y03629*
X01706Y03632*
X01704Y03634*
X01702Y03637*
X01699Y03639*
X01696Y0364*
X01694Y03642*
X0169Y03643*
X01687Y03644*
X01684Y03645*
X01681Y03645*
X01678Y03645*
G37*
G36*
X00393Y03656D02*
X00387Y03656D01*
X00381Y03655*
X00375Y03655*
X0037Y03654*
X00364Y03652*
X00358Y03651*
X00353Y03649*
X00347Y03646*
X00342Y03644*
X00337Y03641*
X00331Y03638*
X00327Y03634*
X00322Y03631*
X00317Y03627*
X00313Y03623*
X00309Y03619*
X00305Y03614*
X00302Y03609*
X00298Y03605*
X00295Y03599*
X00292Y03594*
X0029Y03589*
X00287Y03583*
X00285Y03578*
X00284Y03572*
X00282Y03566*
X00281Y03561*
X00281Y03555*
X0028Y03549*
X0028Y03543*
X0028Y03537*
X00281Y03531*
X00281Y03525*
X00282Y03519*
X00284Y03513*
X00285Y03508*
X00287Y03502*
X0029Y03497*
X00292Y03491*
X00295Y03486*
X00298Y03481*
X00302Y03476*
X00305Y03472*
X00309Y03467*
X00313Y03463*
X00317Y03459*
X00322Y03455*
X00327Y03451*
X00331Y03448*
X00337Y03445*
X00342Y03442*
X00347Y03439*
X00353Y03437*
X00358Y03435*
X00364Y03433*
X0037Y03432*
X00375Y03431*
X00381Y0343*
X00387Y0343*
X00393Y0343*
X00399Y0343*
X00405Y0343*
X00411Y03431*
X00417Y03432*
X00423Y03433*
X00428Y03435*
X00434Y03437*
X00439Y03439*
X00445Y03442*
X0045Y03445*
X00455Y03448*
X0046Y03451*
X00465Y03455*
X00469Y03459*
X00473Y03463*
X00477Y03467*
X00481Y03472*
X00485Y03476*
X00488Y03481*
X00491Y03486*
X00494Y03491*
X00497Y03497*
X00499Y03502*
X00501Y03508*
X00503Y03513*
X00504Y03519*
X00505Y03525*
X00506Y03531*
X00506Y03537*
X00507Y03543*
X00506Y03549*
X00506Y03555*
X00505Y03561*
X00504Y03566*
X00503Y03572*
X00501Y03578*
X00499Y03583*
X00497Y03589*
X00494Y03594*
X00491Y03599*
X00488Y03605*
X00485Y03609*
X00481Y03614*
X00477Y03619*
X00473Y03623*
X00469Y03627*
X00465Y03631*
X0046Y03634*
X00455Y03638*
X0045Y03641*
X00445Y03644*
X00439Y03646*
X00434Y03649*
X00428Y03651*
X00423Y03652*
X00417Y03654*
X00411Y03655*
X00405Y03655*
X00399Y03656*
X00393Y03656*
G37*
G36*
X01379Y03291D02*
X01376Y03291D01*
X01373Y0329*
X0137Y0329*
X01367Y03289*
X01364Y03288*
X01361Y03286*
X01359Y03285*
X01356Y03283*
X01354Y03281*
X01352Y03278*
X0135Y03276*
X01349Y03273*
X01347Y03271*
X01346Y03268*
X01345Y03265*
X01344Y03262*
X01344Y03259*
X01344Y03256*
X01344Y03253*
X01344Y0325*
X01345Y03247*
X01346Y03244*
X01347Y03241*
X01349Y03238*
X0135Y03236*
X01352Y03233*
X01354Y03231*
X01356Y03229*
X01359Y03227*
X01361Y03225*
X01364Y03224*
X01367Y03223*
X0137Y03222*
X01373Y03221*
X01376Y03221*
X01379Y03221*
X01382Y03221*
X01385Y03221*
X01388Y03222*
X01391Y03223*
X01394Y03224*
X01397Y03225*
X01399Y03227*
X01402Y03229*
X01404Y03231*
X01406Y03233*
X01408Y03236*
X01409Y03238*
X01411Y03241*
X01412Y03244*
X01413Y03247*
X01414Y0325*
X01414Y03253*
X01414Y03256*
X01414Y03259*
X01414Y03262*
X01413Y03265*
X01412Y03268*
X01411Y03271*
X01409Y03273*
X01408Y03276*
X01406Y03278*
X01404Y03281*
X01402Y03283*
X01399Y03285*
X01397Y03286*
X01394Y03288*
X01391Y03289*
X01388Y0329*
X01385Y0329*
X01382Y03291*
X01379Y03291*
G37*
G36*
X01279D02*
X01276Y03291D01*
X01273Y0329*
X0127Y0329*
X01267Y03289*
X01264Y03288*
X01261Y03286*
X01259Y03285*
X01256Y03283*
X01254Y03281*
X01252Y03278*
X0125Y03276*
X01249Y03273*
X01247Y03271*
X01246Y03268*
X01245Y03265*
X01244Y03262*
X01244Y03259*
X01244Y03256*
X01244Y03253*
X01244Y0325*
X01245Y03247*
X01246Y03244*
X01247Y03241*
X01249Y03238*
X0125Y03236*
X01252Y03233*
X01254Y03231*
X01256Y03229*
X01259Y03227*
X01261Y03225*
X01264Y03224*
X01267Y03223*
X0127Y03222*
X01273Y03221*
X01276Y03221*
X01279Y03221*
X01282Y03221*
X01285Y03221*
X01288Y03222*
X01291Y03223*
X01294Y03224*
X01297Y03225*
X01299Y03227*
X01302Y03229*
X01304Y03231*
X01306Y03233*
X01308Y03236*
X01309Y03238*
X01311Y03241*
X01312Y03244*
X01313Y03247*
X01314Y0325*
X01314Y03253*
X01314Y03256*
X01314Y03259*
X01314Y03262*
X01313Y03265*
X01312Y03268*
X01311Y03271*
X01309Y03273*
X01308Y03276*
X01306Y03278*
X01304Y03281*
X01302Y03283*
X01299Y03285*
X01297Y03286*
X01294Y03288*
X01291Y03289*
X01288Y0329*
X01285Y0329*
X01282Y03291*
X01279Y03291*
G37*
G36*
X01379Y03191D02*
X01376Y03191D01*
X01373Y0319*
X0137Y0319*
X01367Y03189*
X01364Y03188*
X01361Y03186*
X01359Y03185*
X01356Y03183*
X01354Y03181*
X01352Y03178*
X0135Y03176*
X01349Y03173*
X01347Y03171*
X01346Y03168*
X01345Y03165*
X01344Y03162*
X01344Y03159*
X01344Y03156*
X01344Y03153*
X01344Y0315*
X01345Y03147*
X01346Y03144*
X01347Y03141*
X01349Y03138*
X0135Y03136*
X01352Y03133*
X01354Y03131*
X01356Y03129*
X01359Y03127*
X01361Y03125*
X01364Y03124*
X01367Y03123*
X0137Y03122*
X01373Y03121*
X01376Y03121*
X01379Y03121*
X01382Y03121*
X01385Y03121*
X01388Y03122*
X01391Y03123*
X01394Y03124*
X01397Y03125*
X01399Y03127*
X01402Y03129*
X01404Y03131*
X01406Y03133*
X01408Y03136*
X01409Y03138*
X01411Y03141*
X01412Y03144*
X01413Y03147*
X01414Y0315*
X01414Y03153*
X01414Y03156*
X01414Y03159*
X01414Y03162*
X01413Y03165*
X01412Y03168*
X01411Y03171*
X01409Y03173*
X01408Y03176*
X01406Y03178*
X01404Y03181*
X01402Y03183*
X01399Y03185*
X01397Y03186*
X01394Y03188*
X01391Y03189*
X01388Y0319*
X01385Y0319*
X01382Y03191*
X01379Y03191*
G37*
G36*
X01279D02*
X01276Y03191D01*
X01273Y0319*
X0127Y0319*
X01267Y03189*
X01264Y03188*
X01261Y03186*
X01259Y03185*
X01256Y03183*
X01254Y03181*
X01252Y03178*
X0125Y03176*
X01249Y03173*
X01247Y03171*
X01246Y03168*
X01245Y03165*
X01244Y03162*
X01244Y03159*
X01244Y03156*
X01244Y03153*
X01244Y0315*
X01245Y03147*
X01246Y03144*
X01247Y03141*
X01249Y03138*
X0125Y03136*
X01252Y03133*
X01254Y03131*
X01256Y03129*
X01259Y03127*
X01261Y03125*
X01264Y03124*
X01267Y03123*
X0127Y03122*
X01273Y03121*
X01276Y03121*
X01279Y03121*
X01282Y03121*
X01285Y03121*
X01288Y03122*
X01291Y03123*
X01294Y03124*
X01297Y03125*
X01299Y03127*
X01302Y03129*
X01304Y03131*
X01306Y03133*
X01308Y03136*
X01309Y03138*
X01311Y03141*
X01312Y03144*
X01313Y03147*
X01314Y0315*
X01314Y03153*
X01314Y03156*
X01314Y03159*
X01314Y03162*
X01313Y03165*
X01312Y03168*
X01311Y03171*
X01309Y03173*
X01308Y03176*
X01306Y03178*
X01304Y03181*
X01302Y03183*
X01299Y03185*
X01297Y03186*
X01294Y03188*
X01291Y03189*
X01288Y0319*
X01285Y0319*
X01282Y03191*
X01279Y03191*
G37*
G36*
X01379Y03091D02*
X01376Y03091D01*
X01373Y0309*
X0137Y0309*
X01367Y03089*
X01364Y03088*
X01361Y03086*
X01359Y03085*
X01356Y03083*
X01354Y03081*
X01352Y03078*
X0135Y03076*
X01349Y03073*
X01347Y03071*
X01346Y03068*
X01345Y03065*
X01344Y03062*
X01344Y03059*
X01344Y03056*
X01344Y03053*
X01344Y0305*
X01345Y03047*
X01346Y03044*
X01347Y03041*
X01349Y03038*
X0135Y03036*
X01352Y03033*
X01354Y03031*
X01356Y03029*
X01359Y03027*
X01361Y03025*
X01364Y03024*
X01367Y03023*
X0137Y03022*
X01373Y03021*
X01376Y03021*
X01379Y03021*
X01382Y03021*
X01385Y03021*
X01388Y03022*
X01391Y03023*
X01394Y03024*
X01397Y03025*
X01399Y03027*
X01402Y03029*
X01404Y03031*
X01406Y03033*
X01408Y03036*
X01409Y03038*
X01411Y03041*
X01412Y03044*
X01413Y03047*
X01414Y0305*
X01414Y03053*
X01414Y03056*
X01414Y03059*
X01414Y03062*
X01413Y03065*
X01412Y03068*
X01411Y03071*
X01409Y03073*
X01408Y03076*
X01406Y03078*
X01404Y03081*
X01402Y03083*
X01399Y03085*
X01397Y03086*
X01394Y03088*
X01391Y03089*
X01388Y0309*
X01385Y0309*
X01382Y03091*
X01379Y03091*
G37*
G36*
X01279D02*
X01276Y03091D01*
X01273Y0309*
X0127Y0309*
X01267Y03089*
X01264Y03088*
X01261Y03086*
X01259Y03085*
X01256Y03083*
X01254Y03081*
X01252Y03078*
X0125Y03076*
X01249Y03073*
X01247Y03071*
X01246Y03068*
X01245Y03065*
X01244Y03062*
X01244Y03059*
X01244Y03056*
X01244Y03053*
X01244Y0305*
X01245Y03047*
X01246Y03044*
X01247Y03041*
X01249Y03038*
X0125Y03036*
X01252Y03033*
X01254Y03031*
X01256Y03029*
X01259Y03027*
X01261Y03025*
X01264Y03024*
X01267Y03023*
X0127Y03022*
X01273Y03021*
X01276Y03021*
X01279Y03021*
X01282Y03021*
X01285Y03021*
X01288Y03022*
X01291Y03023*
X01294Y03024*
X01297Y03025*
X01299Y03027*
X01302Y03029*
X01304Y03031*
X01306Y03033*
X01308Y03036*
X01309Y03038*
X01311Y03041*
X01312Y03044*
X01313Y03047*
X01314Y0305*
X01314Y03053*
X01314Y03056*
X01314Y03059*
X01314Y03062*
X01313Y03065*
X01312Y03068*
X01311Y03071*
X01309Y03073*
X01308Y03076*
X01306Y03078*
X01304Y03081*
X01302Y03083*
X01299Y03085*
X01297Y03086*
X01294Y03088*
X01291Y03089*
X01288Y0309*
X01285Y0309*
X01282Y03091*
X01279Y03091*
G37*
G36*
X0083Y03069D02*
X00827Y03069D01*
X00823Y03069*
X0082Y03068*
X00817Y03067*
X00814Y03066*
X00811Y03064*
X00808Y03062*
X00805Y0306*
X00803Y03058*
X008Y03056*
X00798Y03053*
X00796Y0305*
X00795Y03047*
X00794Y03044*
X00793Y03041*
X00792Y03037*
X00791Y03034*
X00791Y0303*
X00791Y03027*
X00792Y03024*
X00793Y0302*
X00794Y03017*
X00795Y03014*
X00796Y03011*
X00798Y03008*
X008Y03005*
X00803Y03003*
X00805Y03001*
X00808Y02999*
X00811Y02997*
X00814Y02995*
X00817Y02994*
X0082Y02993*
X00823Y02992*
X00827Y02992*
X0083Y02991*
X00834Y02992*
X00837Y02992*
X0084Y02993*
X00844Y02994*
X00847Y02995*
X0085Y02997*
X00853Y02999*
X00855Y03001*
X00858Y03003*
X0086Y03005*
X00862Y03008*
X00864Y03011*
X00866Y03014*
X00867Y03017*
X00868Y0302*
X00869Y03024*
X00869Y03027*
X00869Y0303*
X00869Y03034*
X00869Y03037*
X00868Y03041*
X00867Y03044*
X00866Y03047*
X00864Y0305*
X00862Y03053*
X0086Y03056*
X00858Y03058*
X00855Y0306*
X00853Y03062*
X0085Y03064*
X00847Y03066*
X00844Y03067*
X0084Y03068*
X00837Y03069*
X00834Y03069*
X0083Y03069*
G37*
G36*
X0063D02*
X00627Y03069D01*
X00623Y03069*
X0062Y03068*
X00617Y03067*
X00614Y03066*
X00611Y03064*
X00608Y03062*
X00605Y0306*
X00603Y03058*
X006Y03056*
X00598Y03053*
X00596Y0305*
X00595Y03047*
X00594Y03044*
X00593Y03041*
X00592Y03037*
X00591Y03034*
X00591Y0303*
X00591Y03027*
X00592Y03024*
X00593Y0302*
X00594Y03017*
X00595Y03014*
X00596Y03011*
X00598Y03008*
X006Y03005*
X00603Y03003*
X00605Y03001*
X00608Y02999*
X00611Y02997*
X00614Y02995*
X00617Y02994*
X0062Y02993*
X00623Y02992*
X00627Y02992*
X0063Y02991*
X00634Y02992*
X00637Y02992*
X0064Y02993*
X00644Y02994*
X00647Y02995*
X0065Y02997*
X00653Y02999*
X00655Y03001*
X00658Y03003*
X0066Y03005*
X00662Y03008*
X00664Y03011*
X00666Y03014*
X00667Y03017*
X00668Y0302*
X00669Y03024*
X00669Y03027*
X00669Y0303*
X00669Y03034*
X00669Y03037*
X00668Y03041*
X00667Y03044*
X00666Y03047*
X00664Y0305*
X00662Y03053*
X0066Y03056*
X00658Y03058*
X00655Y0306*
X00653Y03062*
X0065Y03064*
X00647Y03066*
X00644Y03067*
X0064Y03068*
X00637Y03069*
X00634Y03069*
X0063Y03069*
G37*
G36*
X01379Y02991D02*
X01376Y02991D01*
X01373Y0299*
X0137Y0299*
X01367Y02989*
X01364Y02988*
X01361Y02986*
X01359Y02985*
X01356Y02983*
X01354Y02981*
X01352Y02978*
X0135Y02976*
X01349Y02973*
X01347Y02971*
X01346Y02968*
X01345Y02965*
X01344Y02962*
X01344Y02959*
X01344Y02956*
X01344Y02953*
X01344Y0295*
X01345Y02947*
X01346Y02944*
X01347Y02941*
X01349Y02938*
X0135Y02936*
X01352Y02933*
X01354Y02931*
X01356Y02929*
X01359Y02927*
X01361Y02925*
X01364Y02924*
X01367Y02923*
X0137Y02922*
X01373Y02921*
X01376Y02921*
X01379Y02921*
X01382Y02921*
X01385Y02921*
X01388Y02922*
X01391Y02923*
X01394Y02924*
X01397Y02925*
X01399Y02927*
X01402Y02929*
X01404Y02931*
X01406Y02933*
X01408Y02936*
X01409Y02938*
X01411Y02941*
X01412Y02944*
X01413Y02947*
X01414Y0295*
X01414Y02953*
X01414Y02956*
X01414Y02959*
X01414Y02962*
X01413Y02965*
X01412Y02968*
X01411Y02971*
X01409Y02973*
X01408Y02976*
X01406Y02978*
X01404Y02981*
X01402Y02983*
X01399Y02985*
X01397Y02986*
X01394Y02988*
X01391Y02989*
X01388Y0299*
X01385Y0299*
X01382Y02991*
X01379Y02991*
G37*
G36*
Y02891D02*
X01376Y02891D01*
X01373Y0289*
X0137Y0289*
X01367Y02889*
X01364Y02888*
X01361Y02886*
X01359Y02885*
X01356Y02883*
X01354Y02881*
X01352Y02878*
X0135Y02876*
X01349Y02873*
X01347Y02871*
X01346Y02868*
X01345Y02865*
X01344Y02862*
X01344Y02859*
X01344Y02856*
X01344Y02853*
X01344Y0285*
X01345Y02847*
X01346Y02844*
X01347Y02841*
X01349Y02838*
X0135Y02836*
X01352Y02833*
X01354Y02831*
X01356Y02829*
X01359Y02827*
X01361Y02825*
X01364Y02824*
X01367Y02823*
X0137Y02822*
X01373Y02821*
X01376Y02821*
X01379Y02821*
X01382Y02821*
X01385Y02821*
X01388Y02822*
X01391Y02823*
X01394Y02824*
X01397Y02825*
X01399Y02827*
X01402Y02829*
X01404Y02831*
X01406Y02833*
X01408Y02836*
X01409Y02838*
X01411Y02841*
X01412Y02844*
X01413Y02847*
X01414Y0285*
X01414Y02853*
X01414Y02856*
X01414Y02859*
X01414Y02862*
X01413Y02865*
X01412Y02868*
X01411Y02871*
X01409Y02873*
X01408Y02876*
X01406Y02878*
X01404Y02881*
X01402Y02883*
X01399Y02885*
X01397Y02886*
X01394Y02888*
X01391Y02889*
X01388Y0289*
X01385Y0289*
X01382Y02891*
X01379Y02891*
G37*
G36*
X01279D02*
X01276Y02891D01*
X01273Y0289*
X0127Y0289*
X01267Y02889*
X01264Y02888*
X01261Y02886*
X01259Y02885*
X01256Y02883*
X01254Y02881*
X01252Y02878*
X0125Y02876*
X01249Y02873*
X01247Y02871*
X01246Y02868*
X01245Y02865*
X01244Y02862*
X01244Y02859*
X01244Y02856*
X01244Y02853*
X01244Y0285*
X01245Y02847*
X01246Y02844*
X01247Y02841*
X01249Y02838*
X0125Y02836*
X01252Y02833*
X01254Y02831*
X01256Y02829*
X01259Y02827*
X01261Y02825*
X01264Y02824*
X01267Y02823*
X0127Y02822*
X01273Y02821*
X01276Y02821*
X01279Y02821*
X01282Y02821*
X01285Y02821*
X01288Y02822*
X01291Y02823*
X01294Y02824*
X01297Y02825*
X01299Y02827*
X01302Y02829*
X01304Y02831*
X01306Y02833*
X01308Y02836*
X01309Y02838*
X01311Y02841*
X01312Y02844*
X01313Y02847*
X01314Y0285*
X01314Y02853*
X01314Y02856*
X01314Y02859*
X01314Y02862*
X01313Y02865*
X01312Y02868*
X01311Y02871*
X01309Y02873*
X01308Y02876*
X01306Y02878*
X01304Y02881*
X01302Y02883*
X01299Y02885*
X01297Y02886*
X01294Y02888*
X01291Y02889*
X01288Y0289*
X01285Y0289*
X01282Y02891*
X01279Y02891*
G37*
G36*
X01379Y02791D02*
X01376Y02791D01*
X01373Y0279*
X0137Y0279*
X01367Y02789*
X01364Y02788*
X01361Y02786*
X01359Y02785*
X01356Y02783*
X01354Y02781*
X01352Y02778*
X0135Y02776*
X01349Y02773*
X01347Y02771*
X01346Y02768*
X01345Y02765*
X01344Y02762*
X01344Y02759*
X01344Y02756*
X01344Y02753*
X01344Y0275*
X01345Y02747*
X01346Y02744*
X01347Y02741*
X01349Y02738*
X0135Y02736*
X01352Y02733*
X01354Y02731*
X01356Y02729*
X01359Y02727*
X01361Y02725*
X01364Y02724*
X01367Y02723*
X0137Y02722*
X01373Y02721*
X01376Y02721*
X01379Y02721*
X01382Y02721*
X01385Y02721*
X01388Y02722*
X01391Y02723*
X01394Y02724*
X01397Y02725*
X01399Y02727*
X01402Y02729*
X01404Y02731*
X01406Y02733*
X01408Y02736*
X01409Y02738*
X01411Y02741*
X01412Y02744*
X01413Y02747*
X01414Y0275*
X01414Y02753*
X01414Y02756*
X01414Y02759*
X01414Y02762*
X01413Y02765*
X01412Y02768*
X01411Y02771*
X01409Y02773*
X01408Y02776*
X01406Y02778*
X01404Y02781*
X01402Y02783*
X01399Y02785*
X01397Y02786*
X01394Y02788*
X01391Y02789*
X01388Y0279*
X01385Y0279*
X01382Y02791*
X01379Y02791*
G37*
G36*
X0063Y02484D02*
X00627Y02484D01*
X00623Y02484*
X0062Y02483*
X00617Y02482*
X00614Y02481*
X00611Y02479*
X00608Y02477*
X00605Y02475*
X00603Y02473*
X006Y0247*
X00598Y02468*
X00596Y02465*
X00595Y02462*
X00594Y02459*
X00593Y02455*
X00592Y02452*
X00591Y02449*
X00591Y02445*
X00591Y02442*
X00592Y02438*
X00593Y02435*
X00594Y02432*
X00595Y02429*
X00596Y02426*
X00598Y02423*
X006Y0242*
X00603Y02418*
X00605Y02415*
X00608Y02413*
X00611Y02411*
X00614Y0241*
X00617Y02409*
X0062Y02408*
X00623Y02407*
X00627Y02406*
X0063Y02406*
X00634Y02406*
X00637Y02407*
X0064Y02408*
X00644Y02409*
X00647Y0241*
X0065Y02411*
X00653Y02413*
X00655Y02415*
X00658Y02418*
X0066Y0242*
X00662Y02423*
X00664Y02426*
X00666Y02429*
X00667Y02432*
X00668Y02435*
X00669Y02438*
X00669Y02442*
X00669Y02445*
X00669Y02449*
X00669Y02452*
X00668Y02455*
X00667Y02459*
X00666Y02462*
X00664Y02465*
X00662Y02468*
X0066Y0247*
X00658Y02473*
X00655Y02475*
X00653Y02477*
X0065Y02479*
X00647Y02481*
X00644Y02482*
X0064Y02483*
X00637Y02484*
X00634Y02484*
X0063Y02484*
G37*
G36*
X00393Y01865D02*
X00375Y01864D01*
X00358Y0186*
X00342Y01853*
X00326Y01843*
X00313Y01832*
X00301Y01818*
X00292Y01803*
X00285Y01787*
X00281Y01769*
X0028Y01751*
X00281Y01734*
X00285Y01716*
X00292Y017*
X00301Y01685*
X00313Y01671*
X00326Y0166*
X00342Y0165*
X00358Y01643*
X00375Y01639*
X00393Y01638*
X00411Y01639*
X00428Y01643*
X00445Y0165*
X0046Y0166*
X00474Y01671*
X00485Y01685*
X00494Y017*
X00501Y01716*
X00505Y01734*
X00507Y01751*
X00505Y01769*
X00501Y01787*
X00494Y01803*
X00485Y01818*
X00474Y01832*
X0046Y01843*
X00445Y01853*
X00428Y0186*
X00411Y01864*
X00393Y01865*
G37*
%LNrmx_explorer_board-3*%
%LPD*%
G36*
X04488Y02618D02*
X04421D01*
Y02657*
X04488*
Y02618*
G37*
G36*
X04633Y01631D02*
X04566D01*
Y0167*
X04633*
Y01631*
G37*
G36*
X0057Y0124D02*
X00531D01*
Y01307*
X0057*
Y0124*
G37*
G36*
X04571Y00409D02*
X04138D01*
Y00488*
X04571*
Y00409*
G37*
G36*
X01052Y0153D02*
D01*
X01053Y01529*
Y01486*
X0101*
X01009Y01486*
X00954*
X00954*
X00954*
X00954*
X00954Y01486*
X00954Y01486*
X00925*
X00925Y01486*
X00925Y01486*
X00887Y01524*
X00886Y01524*
X00885Y01525*
X00884*
X00883Y01525*
X00827*
Y01555*
X01052*
Y0153*
G37*
G54D16*
X03779Y01456D02*
X03787Y01464D01*
X03818*
X03779Y01556D02*
X03793D01*
X03806Y01569*
X03809*
X0411Y03242D02*
X04143Y0321D01*
X04187Y03171D02*
X04225Y03209D01*
X01559Y03173D02*
Y03608D01*
X01468Y02345D02*
Y03083D01*
X03974Y01619D02*
Y03182D01*
X03944Y01703D02*
Y03194D01*
X03959Y01659D02*
Y03188D01*
X03929Y01729D02*
Y032D01*
X03728Y01504D02*
X03804D01*
X03679Y01456D02*
X03728Y01504D01*
X03679Y01556D02*
D01*
X04137Y03171D02*
X04187D01*
X04013Y03242D02*
X0411D01*
X04135Y03257D02*
X04184Y03208D01*
X04007Y03257D02*
X04135D01*
X04019Y03227D02*
X04081D01*
X0421Y03272D02*
X04272Y0321D01*
X01468Y03083D02*
X01559Y03173D01*
X03727Y01604D02*
X03804D01*
X03679Y01556D02*
X03727Y01604D01*
X04081Y03227D02*
X04137Y03171D01*
X03974Y03182D02*
X04019Y03227D01*
X01379Y02256D02*
X01468Y02345D01*
X03929Y032D02*
X04Y03272D01*
X03959Y03188D02*
X04013Y03242D01*
X03944Y03194D02*
X04007Y03257D01*
X03818Y01464D02*
X03974Y01619D01*
X03809Y01569D02*
X03944Y01703D01*
X03804Y01604D02*
X03929Y01729D01*
X03804Y01504D02*
X03959Y01659D01*
X04Y03272D02*
X0421D01*
G54D80*
X01114Y03123D02*
X01133Y03103D01*
X01114Y03123D02*
Y03125D01*
X0105Y02407D02*
X01052D01*
X01062Y02397*
X01113*
X01131Y02378*
Y02343D02*
Y02378D01*
X0093Y01859D02*
X0093Y01859D01*
X01082*
X01082Y01859*
X00882Y01811D02*
X01134D01*
X01279Y01956*
X0083Y01759D02*
X00882Y01811D01*
X01006Y01742D02*
X01009D01*
X0103Y0172D02*
X01143D01*
X01009Y01742D02*
X0103Y0172D01*
X01001Y01669D02*
X01215Y01456D01*
X01279*
X01157Y01706D02*
X01329D01*
X01143Y0172D02*
X01157Y01706D01*
X01329D02*
X01379Y01756D01*
X01137Y01698D02*
X01178Y01657D01*
X00791Y01698D02*
X01137D01*
X01178Y01657D02*
X01279Y01556D01*
X0073Y01759D02*
X00791Y01698D01*
X0072Y01669D02*
X01001D01*
X00684Y02292D02*
X01118D01*
X01208Y02127D02*
Y02201D01*
X01118Y02292D02*
X01208Y02201D01*
X01131Y02343D02*
X01266Y02208D01*
X01401*
X04587Y01649D02*
X04614D01*
X0409D02*
X04603D01*
X0068Y0254D02*
X00693Y02527D01*
X01174D02*
X01187Y0254D01*
X01133Y03103D02*
X01182D01*
X0131Y02606D02*
X01328Y02587D01*
X01371Y02464D02*
X01379Y02456D01*
X00549Y01259D02*
Y01286D01*
X0065Y02787D02*
X00684Y0282D01*
Y02959D02*
X00705Y02981D01*
X0078Y02395D02*
Y02467D01*
X0073Y02345D02*
X0078Y02395D01*
X00811Y02772D02*
Y0285D01*
X01236Y02487D02*
X01267Y02456D01*
X01306Y02507D02*
X0133Y02483D01*
Y02405D02*
Y02483D01*
X01328Y02534D02*
Y02587D01*
X01371Y02464D02*
Y02492D01*
X00549Y01286D02*
Y01356D01*
X0065Y02598D02*
X00701Y02547D01*
X00684Y0282D02*
Y02959D01*
X01208Y03129D02*
Y03291D01*
X01459Y03541D02*
Y03608D01*
X0063Y02589D02*
Y0293D01*
X0065Y02598D02*
Y02787D01*
X00705Y02981D02*
X0078D01*
X01267Y02456D02*
X01279D01*
X01253Y02606D02*
X0131D01*
X01275Y02656D02*
X01279D01*
X01328Y02534D02*
X01371Y02492D01*
X01328Y02707D02*
X01379Y02656D01*
X01459Y03608D02*
X0152Y03669D01*
X00549Y01356D02*
X00641Y01448D01*
X0078Y02467D02*
X0082Y02507D01*
X00879Y02394D02*
X00963D01*
X0083Y02345D02*
X00879Y02394D01*
X00811Y02772D02*
X00875Y02707D01*
X0078Y02981D02*
X0083Y0293D01*
X01208Y02127D02*
X01279Y02056D01*
X01056Y02487D02*
X01236D01*
X01182Y03103D02*
X01208Y03129D01*
X0133Y02405D02*
X01379Y02356D01*
X0073Y0293D02*
X00811Y0285D01*
X01166Y02547D02*
X01275Y02656D01*
X01187Y0254D02*
X01253Y02606D01*
X01401Y02208D02*
X01519Y02326D01*
X00641Y01448D02*
X00996D01*
X0082Y02507D02*
X01306D01*
X00693Y02527D02*
X01174D01*
X00701Y02547D02*
X01166D01*
X00875Y02707D02*
X01328D01*
X0152Y03669D02*
X01838D01*
X03035Y01397D02*
X03838D01*
X0063Y01759D02*
X0072Y01669D01*
X0063Y02589D02*
X0068Y0254D01*
X00963Y02394D02*
X01056Y02487D01*
X0063Y02345D02*
X00684Y02292D01*
X01208Y03291D02*
X01459Y03541D01*
X00996Y01448D02*
X01311Y01133D01*
X01838Y03669D02*
X0199Y03517D01*
X02771Y01133D02*
X03035Y01397D01*
X01311Y01133D02*
X02771D01*
X03838Y01397D02*
X0409Y01649D01*
G54D81*
X04468Y02637D02*
X04687Y02418D01*
Y01636D02*
Y02418D01*
X04622Y0157D02*
X04687Y01636D01*
X04622Y00531D02*
Y0157D01*
X0454Y00449D02*
X04622Y00531D01*
X04437Y02637D02*
X04442D01*
X04464*
X04389Y02685D02*
X04437Y02637D01*
X04389Y03131D02*
D01*
Y03157*
Y03216*
X03779Y01656D02*
X03854Y01731D01*
X04279Y03326D02*
X04389Y03216D01*
X03854Y01731D02*
Y03204D01*
X04389Y02685D02*
Y03131D01*
X03854Y03204D02*
X03976Y03326D01*
X04279*
G54D84*
X00561Y00738D03*
Y00501D03*
X00753Y00622D03*
G54D85*
X00994Y00326D03*
X03839Y03608D03*
X03939D03*
X04039D03*
X01678D03*
X01778D03*
X01459D03*
X01559D03*
X04266D03*
X04366D03*
X04485D03*
X04585D03*
X01133D03*
X01233D03*
X00914D03*
X01014D03*
X00695D03*
X00795D03*
X00894Y00326D03*
G54D86*
X01082Y01859D03*
Y01759D03*
Y0303D03*
Y0293D03*
Y02445D03*
Y02345D03*
X04603Y02858D03*
X04703D03*
G54D87*
X01082Y01659D03*
Y0283D03*
Y02245D03*
G54D88*
X0093Y01859D03*
Y01759D03*
X0073Y01859D03*
X0063D03*
X0083D03*
X0073Y01759D03*
X0083D03*
X04825Y02855D03*
Y02555D03*
Y02655D03*
Y02755D03*
X04925Y02855D03*
Y02755D03*
Y02655D03*
X0093Y0293D03*
X0073D03*
X0083D03*
X0063Y0303D03*
X0073D03*
X0083D03*
X0093D03*
X0083Y02345D03*
X0073D03*
X0083Y02445D03*
X0063D03*
X0073D03*
X0093Y02345D03*
Y02445D03*
G54D89*
X0063Y01759D03*
Y0293D03*
Y02345D03*
G54D90*
X03839Y03708D03*
X04039D03*
X03939D03*
X01678D03*
X01778D03*
X01459D03*
X01559D03*
X04266D03*
X04366D03*
X04485D03*
X04585D03*
X01133D03*
X01233D03*
X00914D03*
X01014D03*
X00695D03*
X00795D03*
X00994Y00226D03*
X00894D03*
G54D91*
X04503Y02858D03*
G54D92*
X04925Y02555D03*
G54D93*
X03779Y03256D03*
Y02556D03*
Y02656D03*
Y02356D03*
Y02456D03*
Y03056D03*
Y03156D03*
Y02756D03*
Y02956D03*
X03679Y03156D03*
Y03256D03*
Y02956D03*
Y03056D03*
X03779Y02856D03*
X03679D03*
Y02656D03*
Y02756D03*
Y02456D03*
Y02556D03*
X03779Y01856D03*
Y02056D03*
Y01656D03*
Y01756D03*
Y01556D03*
X03679Y02356D03*
X03779Y02256D03*
X03679D03*
X03779Y01956D03*
Y02156D03*
X03679Y02056D03*
Y02156D03*
Y01856D03*
Y01956D03*
Y01756D03*
Y01556D03*
Y01656D03*
Y01456D03*
X01379Y03256D03*
Y02556D03*
Y02656D03*
Y02256D03*
Y02456D03*
Y03056D03*
Y03156D03*
Y02856D03*
Y02956D03*
X01279Y03056D03*
Y02956D03*
Y03156D03*
Y02756D03*
Y02856D03*
Y03256D03*
X01379Y02756D03*
X01279Y02656D03*
X01379Y02356D03*
X01279Y02556D03*
Y02356D03*
Y02456D03*
Y02156D03*
Y02256D03*
X01379Y02056D03*
Y01656D03*
Y02156D03*
Y01756D03*
Y01956D03*
Y01556D03*
X01279Y01956D03*
X01379Y01856D03*
X01279Y02056D03*
Y01856D03*
Y01656D03*
Y01756D03*
Y01556D03*
Y01456D03*
G54D94*
X02179Y03356D03*
X03479Y01306D03*
X01579Y01356D03*
G54D95*
X03779Y01456D03*
X01379D03*
G54D96*
X04822Y03543D03*
X00393D03*
Y01751D03*
X04822Y00393D03*
X07578D03*
Y03543D03*
G54D97*
X04893Y03078D03*
X04578Y03149D03*
X04311Y02464D03*
X04271D03*
X04232D03*
Y02425D03*
X04271D03*
X04311D03*
X04121Y0294D03*
X0412Y03073D03*
X01049Y00893D03*
X00334Y00708D03*
X00314Y00354D03*
X00728D03*
X01119Y02104D03*
X01008Y02616D03*
Y02586D03*
X01181Y00393D03*
X01211Y01181D03*
X07283Y03149D03*
X07086Y02755D03*
X07283Y02362D03*
X07086Y01968D03*
X07283Y01574D03*
X07086Y01181D03*
X07283Y00787D03*
X07086Y00393D03*
X06889Y03149D03*
X06692Y02755D03*
X06889Y02362D03*
X06692Y01968D03*
X06889Y01574D03*
X06692Y01181D03*
X06889Y00787D03*
X06692Y00393D03*
X06496Y03149D03*
X06299Y02755D03*
X06496Y02362D03*
X06299Y01968D03*
X06496Y01574D03*
X06299Y01181D03*
X06496Y00787D03*
X06299Y00393D03*
X06102Y03149D03*
X05905Y02755D03*
X06102Y02362D03*
X05905Y01968D03*
X06102Y01574D03*
X05905Y01181D03*
X06102Y00787D03*
X05905Y00393D03*
X05708Y03149D03*
X05511Y02755D03*
X05708Y02362D03*
X05511Y01968D03*
X05708Y01574D03*
X05511Y01181D03*
X05708Y00787D03*
X05511Y00393D03*
X05314Y03149D03*
X05118Y02755D03*
X05314Y02362D03*
X05118Y01968D03*
X05314Y01574D03*
X05118Y01181D03*
X05314Y00787D03*
X05118Y00393D03*
X04921Y03149D03*
Y02362D03*
Y01574D03*
Y00787D03*
X04527Y03149D03*
Y02362D03*
X03937Y00393D03*
X03543Y01968D03*
X0374Y00787D03*
X03543Y00393D03*
X03346Y03149D03*
X03149Y02755D03*
Y01968D03*
X03346Y01574D03*
Y00787D03*
X03149Y00393D03*
X02952Y03149D03*
X02755Y02755D03*
X02952Y02362D03*
X02755Y01968D03*
X02952Y01574D03*
Y00787D03*
X02755Y00393D03*
X02559Y03149D03*
X02362Y02755D03*
X02559Y02362D03*
X02362Y01968D03*
X02559Y01574D03*
Y00787D03*
X02362Y00393D03*
X02165Y03149D03*
X01968Y02755D03*
X02165Y02362D03*
X01968Y01968D03*
X02165Y01574D03*
Y00787D03*
X01968Y00393D03*
X01771Y03149D03*
X01574Y02755D03*
Y01968D03*
X01771Y00787D03*
X01574Y00393D03*
X01377Y00787D03*
X0059Y03149D03*
Y01574D03*
X01114Y03125D03*
X0105Y02407D03*
X00787Y0216D03*
Y02113D03*
X00748D03*
Y0216D03*
Y02066D03*
X00787D03*
X00748Y02019D03*
X00787D03*
X00708D03*
Y0216D03*
Y02066D03*
Y02113D03*
X01006Y01742D03*
X04704Y00338D03*
X04614Y01649D03*
X04587D03*
X04183Y00462D03*
X04153Y00433D03*
X04212Y00462D03*
Y00433D03*
X04153Y00462D03*
X04183Y00433D03*
X04242Y00462D03*
Y00433D03*
X04256Y02759D03*
X04212D03*
X04256Y02802D03*
X04212D03*
X0045Y02108D03*
Y02137D03*
Y02196D03*
X00438Y0269D03*
Y0275D03*
Y02779D03*
X00442Y03307D03*
Y03336D03*
X00744Y01059D03*
Y01088D03*
Y01147D03*
Y01177D03*
Y01236D03*
Y01265D03*
Y01295D03*
Y01324D03*
X00846Y02219D03*
Y02834D03*
X00944Y01505D03*
Y01535D03*
X00905Y02219D03*
X00935D03*
Y02834D03*
X00905D03*
X01003Y01505D03*
X00974D03*
X01003Y01535D03*
X00974D03*
X01535Y01555D03*
X01574Y02913D03*
X01614Y01555D03*
X01633Y02854D03*
X01791Y00334D03*
X01811Y01397D03*
Y01653D03*
X0187Y01338D03*
X01988Y00334D03*
X02047Y01417D03*
X02125Y01082D03*
X02135Y03667D03*
X02185Y00334D03*
X02381D03*
X0245Y03667D03*
X02578Y00334D03*
X02775D03*
X02933Y0122D03*
X02972Y00334D03*
X03011Y0122D03*
X03001Y03667D03*
X0309Y0122D03*
X03169Y00334D03*
Y0122D03*
X03248D03*
X03326D03*
X03405D03*
X03484D03*
X03464Y02913D03*
X03484Y03405D03*
X03562Y00334D03*
Y0122D03*
Y03307D03*
X03553Y03667D03*
X03641Y0122D03*
X0372D03*
X03799D03*
X03877D03*
Y03326D03*
X03956Y00334D03*
Y0124D03*
X03976Y03385D03*
X04004Y01299D03*
X04307Y0298D03*
Y03007D03*
X04334Y0298D03*
Y03007D03*
X04751Y02421D03*
Y02618D03*
X0045Y02167D03*
X00438Y0272D03*
X00442Y03277D03*
Y03366D03*
X00744Y01029D03*
Y01118D03*
Y01206D03*
Y01354D03*
X00846Y02248D03*
Y02805D03*
X00905Y02248D03*
X00935D03*
X00905Y02805D03*
X00935D03*
X01692Y01515D03*
Y02795D03*
X0187Y01594D03*
X02106Y01358D03*
X02185Y01043D03*
X02263D03*
X02342D03*
X02421D03*
X025D03*
X02578D03*
X02657D03*
X02736D03*
X02814D03*
X02893D03*
X02972D03*
X03582Y02795D03*
X03562Y03129D03*
X03543Y03444D03*
X03622D03*
X037D03*
X03779D03*
X04055Y02322D03*
X04035Y02401D03*
Y0248D03*
Y02559D03*
Y02637D03*
Y02716D03*
Y02795D03*
Y02874D03*
Y02952D03*
Y03031D03*
Y0311D03*
Y03188D03*
X04143Y0321D03*
X04184Y03208D03*
X04225Y03209D03*
X04272Y0321D03*
X04442Y02637D03*
X00549Y01259D03*
X0048Y02108D03*
Y02137D03*
Y02196D03*
X00468Y0269D03*
Y0275D03*
Y02779D03*
X00472Y03307D03*
Y03336D03*
X00714Y01059D03*
Y01088D03*
Y01147D03*
Y01177D03*
Y01236D03*
Y01265D03*
Y01295D03*
Y01324D03*
X00875Y02219D03*
X00964D03*
X00875Y02834D03*
X00964D03*
X01033Y01535D03*
X01751Y01456D03*
X01929Y01535D03*
X01751Y01712D03*
Y01791D03*
Y0187D03*
Y01948D03*
Y02027D03*
Y02106D03*
Y02185D03*
Y02263D03*
Y02342D03*
Y02421D03*
Y025D03*
Y02578D03*
Y02657D03*
Y02736D03*
X02165Y01299D03*
X01988Y01476D03*
X02726Y03667D03*
X03366Y00334D03*
X03523Y02854D03*
X03444Y03011D03*
Y0309D03*
Y03169D03*
Y03248D03*
Y03346D03*
X03277Y03667D03*
X03759Y00334D03*
X04389Y03157D03*
X00549Y01286D03*
X0048Y02167D03*
X00468Y0272D03*
X00472Y03277D03*
Y03366D03*
X00714Y01029D03*
Y01118D03*
Y01206D03*
Y01354D03*
X00875Y02248D03*
X00964D03*
X00875Y02805D03*
X00964D03*
X01929Y01279D03*
X03051Y01043D03*
X03129D03*
X03208D03*
X03287D03*
X03366D03*
X03444D03*
X03523D03*
X03602D03*
X03681D03*
X03759D03*
X03838D03*
X03917D03*
X04468Y02637D03*
X04389Y03131D03*
X00708Y03284D03*
Y03237D03*
Y03332D03*
Y0319D03*
X00787D03*
X00748D03*
Y03237D03*
Y03284D03*
X00787Y03332D03*
X00748D03*
X00787Y03237D03*
Y03284D03*
X00708Y02699D03*
Y02652D03*
Y02746D03*
Y02605D03*
X00787D03*
X00748D03*
X00787Y02652D03*
X00748D03*
Y02746D03*
Y02699D03*
X00787D03*
Y02746D03*
G54D98*
X00954Y01515D02*
X01023D01*
X03191Y01656D02*
X03679D01*
X01023Y01515D02*
X01338Y012D01*
X02736*
X03191Y01656*
G54D99*
X04039Y03598D02*
Y03608D01*
X01442Y01756D02*
X01519Y01833D01*
X01379Y01756D02*
X01442D01*
X01519Y01833D02*
Y02326D01*
X03958Y03517D02*
X04039Y03598D01*
X01519Y02326D02*
Y03047D01*
X0199Y03517*
X03958*
M02*