%FSTAX23Y23*%
%MOIN*%
%SFA1B1*%

%IPPOS*%
%ADD43C,0.218900*%
%ADD44C,0.068900*%
%ADD45C,0.057090*%
%ADD46R,0.057090X0.057090*%
%ADD47C,0.071850*%
%ADD48R,0.071850X0.071850*%
%ADD49C,0.025590*%
%ADD50R,0.057090X0.057090*%
%ADD51R,0.071850X0.071850*%
%ADD52C,0.064170*%
%ADD53C,0.122050*%
%ADD54R,0.064170X0.064170*%
%ADD55C,0.220470*%
%LNrmx_explorer_board-1*%
%LPD*%
G36*
X07362Y03579D02*
X05039D01*
Y03724*
X07362*
Y03579*
G37*
G36*
X00354Y01929D02*
X00275Y0185D01*
X00196*
Y03413*
X00354*
Y01929*
G37*
G36*
X00338Y01141D02*
X00409Y0107D01*
Y01066*
X00598*
X00685Y01153*
Y01374*
X00775*
Y0098*
X00728Y00933*
X00204*
Y01409*
X00338*
Y01141*
G37*
G54D43*
X00561Y00738D03*
Y00501D03*
X00753Y00622D03*
G54D44*
X00994Y00326D03*
X03839Y03608D03*
X03939D03*
X04039D03*
X01678D03*
X01778D03*
X01459D03*
X01559D03*
X04266D03*
X04366D03*
X04485D03*
X04585D03*
X01133D03*
X01233D03*
X00914D03*
X01014D03*
X00695D03*
X00795D03*
X00894Y00326D03*
G54D45*
X01082Y01859D03*
Y01759D03*
Y0303D03*
Y0293D03*
Y02445D03*
Y02345D03*
X04603Y02858D03*
X04703D03*
G54D46*
X01082Y01659D03*
Y0283D03*
Y02245D03*
G54D47*
X0093Y01859D03*
Y01759D03*
X0073Y01859D03*
X0063D03*
X0083D03*
X0073Y01759D03*
X0083D03*
X04825Y02855D03*
Y02555D03*
Y02655D03*
Y02755D03*
X04925Y02855D03*
Y02755D03*
Y02655D03*
X0093Y0293D03*
X0073D03*
X0083D03*
X0063Y0303D03*
X0073D03*
X0083D03*
X0093D03*
X0083Y02345D03*
X0073D03*
X0083Y02445D03*
X0063D03*
X0073D03*
X0093Y02345D03*
Y02445D03*
G54D48*
X0063Y01759D03*
Y0293D03*
Y02345D03*
G54D49*
X03839Y03708D03*
X04039D03*
X03939D03*
X01678D03*
X01778D03*
X01459D03*
X01559D03*
X04266D03*
X04366D03*
X04485D03*
X04585D03*
X01133D03*
X01233D03*
X00914D03*
X01014D03*
X00695D03*
X00795D03*
X00994Y00226D03*
X00894D03*
G54D50*
X04503Y02858D03*
G54D51*
X04925Y02555D03*
G54D52*
X03779Y03256D03*
Y02556D03*
Y02656D03*
Y02356D03*
Y02456D03*
Y03056D03*
Y03156D03*
Y02756D03*
Y02956D03*
X03679Y03156D03*
Y03256D03*
Y02956D03*
Y03056D03*
X03779Y02856D03*
X03679D03*
Y02656D03*
Y02756D03*
Y02456D03*
Y02556D03*
X03779Y01856D03*
Y02056D03*
Y01656D03*
Y01756D03*
Y01556D03*
X03679Y02356D03*
X03779Y02256D03*
X03679D03*
X03779Y01956D03*
Y02156D03*
X03679Y02056D03*
Y02156D03*
Y01856D03*
Y01956D03*
Y01756D03*
Y01556D03*
Y01656D03*
Y01456D03*
X01379Y03256D03*
Y02556D03*
Y02656D03*
Y02256D03*
Y02456D03*
Y03056D03*
Y03156D03*
Y02856D03*
Y02956D03*
X01279Y03056D03*
Y02956D03*
Y03156D03*
Y02756D03*
Y02856D03*
Y03256D03*
X01379Y02756D03*
X01279Y02656D03*
X01379Y02356D03*
X01279Y02556D03*
Y02356D03*
Y02456D03*
Y02156D03*
Y02256D03*
X01379Y02056D03*
Y01656D03*
Y02156D03*
Y01756D03*
Y01956D03*
Y01556D03*
X01279Y01956D03*
X01379Y01856D03*
X01279Y02056D03*
Y01856D03*
Y01656D03*
Y01756D03*
Y01556D03*
Y01456D03*
G54D53*
X02179Y03356D03*
X03479Y01306D03*
X01579Y01356D03*
G54D54*
X03779Y01456D03*
X01379D03*
G54D55*
X04822Y03543D03*
X00393D03*
Y01751D03*
X04822Y00393D03*
X07578D03*
Y03543D03*
M02*